<?xml version="1.0" encoding="UTF-8" standalone="no"?>
<!-- Created with Inkscape (http://www.inkscape.org/) -->

<svg
   version="1.1"
   id="svg1"
   width="680"
   height="670"
   viewBox="0 0 680 670"
   sodipodi:docname="slogan.png"
   inkscape:export-filename="three_sheets_slogan.png"
   inkscape:export-xdpi="96"
   inkscape:export-ydpi="96"
   xmlns:inkscape="http://www.inkscape.org/namespaces/inkscape"
   xmlns:sodipodi="http://sodipodi.sourceforge.net/DTD/sodipodi-0.dtd"
   xmlns="http://www.w3.org/2000/svg"
   xmlns:svg="http://www.w3.org/2000/svg">
  <defs
     id="defs1" />
  <sodipodi:namedview
     id="namedview1"
     pagecolor="#ffffff"
     bordercolor="#000000"
     borderopacity="0.25"
     inkscape:showpageshadow="2"
     inkscape:pageopacity="0.0"
     inkscape:pagecheckerboard="0"
     inkscape:deskcolor="#d1d1d1" />
  <g
     inkscape:groupmode="layer"
     inkscape:label="Image"
     id="g1">
    <path
       style="fill:#af903b;fill-opacity:1"
       d="m 204.81252,659.46097 c -22.83999,-2.57319 -39.98779,-7.28687 -58.39426,-16.05174 -15.21896,-7.24702 -22.29303,-11.48245 -53.813355,-32.2194 -37.92911,-24.95325 -54.20958,-34.19207 -78.65321,-44.63401 -6.5234594,-2.78672 -12.3734594,-5.38418 -12.9999993,-5.77213 -0.62655,-0.38796 3.8989999,-1.26751 10.0567703,-1.95456 11.916719,-1.3296 33.240809,-6.14269 52.614109,-11.8756 13.92324,-4.12013 34.64432,-11.83016 65.689945,-24.44232 29.23325,-11.87589 48.53521,-18.44549 62.35248,-21.22225 14.93079,-3.00053 50.0629,-3.24402 64.0424,-0.44385 14.3696,2.87829 37.8172,9.99418 56.6051,17.17855 9.625,3.68053 18.625,6.94272 20,7.24931 2.2586,0.50359 2.3642,0.39306 1.0938,-1.14442 -0.7734,-0.93601 -6.8484,-5.41867 -13.5,-9.96145 C 218.2862,444.76446 165.34127,383.19231 145.71904,311.59649 138.91173,286.75862 135.79141,266.60501 130.29999,212.00781 120.41998,113.77784 110.94542,73.316489 81.886795,5.2580089 c -0.88061,-2.0625 -1.4246,-3.75 -1.20886,-3.75 0.21574,0 2.84993,3.26531 5.85375,7.2562501 9.922,13.18257 34.487775,32.05884 72.780835,55.92459 10.36023,6.4569 35.8408,21.13402 69.99998,40.320861 69.8719,39.24625 107.0676,63.69225 127.0464,83.4983 8.7187,8.64322 27.6256,31.41285 34.8751,42 16.2379,23.71363 28.4888,54.13568 37.451,93 4.4676,19.37352 6.3265,30.9157 12.6424,78.5 7.9538,59.92329 13.4405,89.10685 21.1508,112.5 10.345,31.38715 26.4539,55.48785 46.7458,69.93693 3.4575,2.46199 6.0885,2.66728 6.0885,0.47507 0,-0.8734 -1.6172,-5.2609 -3.5937,-9.75 -17.1185,-38.87894 -29.1995,-87.15045 -32.497,-129.8468 -1.4711,-19.04772 -0.634,-59.72271 1.5706,-76.3152 5.061,-38.09002 16.9683,-70.31678 34.7131,-93.95024 5.5747,-7.42466 17.0834,-19.79197 35.8218,-38.49445 43.0955,-43.01278 56.1269,-59.81966 76.9917,-99.29787 4.6786,-8.85231 9.0224,-16.26706 9.6529,-16.47723 0.7842,-0.2614 1.3357,2.71404 1.7458,9.41884 1.6063,26.26087 3.7881,51.91037 5.1372,60.3935 0.8229,5.1741 3.9367,19.08245 6.9196,30.90745 6.5296,25.88493 10.6704,45.61613 13.6472,65.03035 2.9727,19.38661 3.2222,51.51284 0.5163,66.46965 -5.6151,31.03799 -23.1468,66.2731 -49.2588,99 -4.8843,6.12165 -20.4229,22.4779 -35.0373,36.88108 -28.115,27.70844 -33.4252,34.19646 -40.8296,49.88536 -7.2391,15.33883 -11.4832,36.17346 -11.4939,56.42454 0,6.15504 -0.4101,11.4408 -0.9041,11.74613 -0.494,0.30533 -2.3285,-1.67373 -4.0766,-4.39791 -1.7481,-2.72418 -3.9553,-5.19963 -4.9048,-5.50099 -0.9495,-0.30137 -8.2276,-1.68589 -16.1734,-3.07671 -34.5198,-6.04224 -71.5806,-18.12522 -103.8744,-33.86627 -16.8216,-8.1994 -15.957,-6.00841 4.2315,10.7225 14.6971,12.17997 49.2568,45.68227 47.1242,45.68227 -0.577,0 -3.9469,-1.14007 -7.4887,-2.53348 -14.9621,-5.8864 -21.0456,-6.91378 -40.9396,-6.91378 -16.1754,0 -19.568,0.28906 -27,2.30046 -12.2741,3.32189 -27.3548,9.42654 -53.5,21.65672 -28.9853,13.55876 -41.9959,18.79527 -55.9439,22.51632 -20.1282,5.36982 -44.7687,7.76167 -61.05608,5.92672 z M 387.79,580.48445 c -15.2484,-7.41702 -38.8367,-16.85956 -57.4775,-23.00866 -27.8975,-9.20263 -52.4355,-13.31366 -79.5,-13.31923 -19.8499,-0.004 -28.4455,0.81187 -77.49998,7.35682 -43.21766,5.76618 -57.89734,7.41795 -84.000005,9.45173 -31.8811,2.48402 -33.33541,3.4727 -9,6.11843 20.884225,2.27053 59.885065,1.47464 99.500005,-2.03048 66.21628,-5.85879 81.93648,-6.522 107.10478,-4.51858 30.8341,2.45442 50.2609,7.03084 103.8952,24.47484 9.8606,3.20703 8.4106,1.03631 -3.0225,-4.52487 z m 68.5225,-21.92468 c 0,-0.52153 -5.5125,-5.55945 -12.25,-11.19539 C 378.7826,492.75762 335.1267,444.37091 296.2266,383.50801 278.3665,355.56419 264.8699,330.3695 226.3189,253.00801 184.09866,168.28315 172.96491,146.97444 156.09229,118.60234 141.52082,94.099719 135.19652,84.508009 133.61218,84.508009 c -1.68375,0 -1.63943,1.25106 0.20034,5.65424 0.825,1.9745 1.5,4.64432 1.5,5.93294 0,3.968441 2.82569,11.046121 13.73896,34.412821 12.58432,26.9446 13.86198,29.83052 34.97528,79 43.39974,101.07102 64.19594,142.63043 93.57414,187 37.8111,57.10567 96.013,113.54944 154.1253,149.46978 9.7099,6.00183 23.158,13.53022 24.1694,13.53022 0.2293,0 0.4169,-0.42671 0.4169,-0.94824 z m 62.3316,-41.55176 c 0.8788,-48.3261 6.2802,-81.28969 19.9924,-122.00867 9.0048,-26.74022 16.2499,-43.54205 41.1765,-95.49133 6.9935,-14.575 15.5271,-33.25 18.9637,-41.5 9.5426,-22.90856 19.9444,-53.50016 22.1022,-65.00227 1.3638,-7.26964 -1.9124,-3.15597 -6.835,8.58217 -7.0699,16.85847 -23.663,50.27833 -40.0393,80.6424 -28.0261,51.96459 -38.4201,74.1527 -47.2092,100.7777 -9.124,27.63931 -13.9572,54.48741 -15.368,85.36717 -1.4155,30.98362 2.4251,83.17377 5.851,79.51003 0.4511,-0.48246 1.0657,-14.3772 1.3657,-30.8772 z"
       id="path1" />
  </g>
</svg>
