<svg width="31" height="19" viewBox="0 0 31 19" fill="none" xmlns="http://www.w3.org/2000/svg">
<path d="M7.52786 0.7677H0.549683V18.063H7.52786V0.7677Z" fill="#EA0020"/>
<path d="M30.2024 0.7677H23.2242V18.063H30.2024V0.7677Z" fill="#EA0020"/>
<path d="M23.2209 0.7677H7.52441V18.063H23.2209V0.7677Z" fill="white"/>
<path d="M15.3798 3.00269L14.3552 4.99896C14.2403 5.21978 14.0283 5.1933 13.8164 5.06964L13.0744 4.66329L13.6309 7.73724C13.7457 8.30256 13.3747 8.30254 13.1892 8.05522L11.8907 6.53594L11.6787 7.30442C11.664 7.36727 11.6252 7.42185 11.5707 7.45651C11.5163 7.49117 11.4504 7.50315 11.3872 7.48991L9.74428 7.12775L10.1771 8.76188C10.2743 9.12404 10.3449 9.27421 10.0799 9.37137L9.49695 9.65404L12.3236 12.0478C12.3797 12.0955 12.4212 12.1582 12.4431 12.2286C12.465 12.299 12.4664 12.3741 12.4472 12.4453L12.1999 13.3286L15.0177 12.9841C15.106 12.9841 15.2473 13.0636 15.2473 13.1608L15.1148 16.2524H15.5918L15.5123 13.1608C15.5123 13.0636 15.6448 12.9753 15.7243 12.9753L18.5421 13.3198L18.2948 12.4365C18.2776 12.3645 18.281 12.2891 18.3044 12.2189C18.3278 12.1486 18.3703 12.0863 18.4273 12.039L21.2539 9.6452L20.6709 9.36253C20.4147 9.26536 20.4854 9.1152 20.5737 8.75304L21.0065 7.1189L19.3636 7.48107C19.3004 7.49431 19.2345 7.48233 19.1801 7.44767C19.1256 7.41301 19.0868 7.35842 19.0721 7.29558L18.8601 6.5271L17.5616 8.0464C17.3761 8.28489 17.0051 8.28488 17.1199 7.72839L17.6764 4.65448L16.9345 5.0608C16.7225 5.18446 16.5105 5.20214 16.3956 4.99014L15.3798 3.00269Z" fill="#EA0020"/>
</svg>
