<svg width="31" height="18" viewBox="0 0 31 18" fill="none" xmlns="http://www.w3.org/2000/svg">
<path d="M30.3269 0.100098H0.672363V17.4015H30.3269V0.100098Z" fill="white"/>
<path d="M13.3659 5.3492C13.3429 5.44802 13.3429 5.55083 13.3659 5.64965C13.4004 5.99919 13.3735 6.35206 13.2864 6.69233C13.1881 6.86088 13.0306 6.98685 12.8446 7.04577C12.7474 7.04577 12.4558 6.86022 12.1907 6.78069C12.0747 6.72698 11.9472 6.70269 11.8196 6.70999C11.6617 6.7268 11.5101 6.78134 11.3777 6.86904C11.3336 6.86904 11.3159 6.86904 11.2894 6.86904C11.2229 6.93069 11.1663 7.00224 11.1215 7.08112C11.1215 7.15181 11.0243 7.42572 10.9359 7.45223C10.8476 7.47874 10.6178 7.71734 10.4676 7.71734C10.3973 7.72749 10.3259 7.72749 10.2556 7.71734C10.1495 7.71734 10.1407 7.60246 10.0435 7.54945C9.99433 7.5245 9.95195 7.48814 9.91979 7.44341C9.91979 7.44341 9.91977 7.32854 9.84908 7.32854C9.77839 7.32854 9.76953 7.52292 9.76953 7.58477C9.79955 7.70259 9.85709 7.81162 9.93742 7.90289C9.99044 7.90289 9.99044 8.20334 9.93742 8.27403C9.8844 8.34472 9.99046 8.4154 10.0081 8.48609C10.0258 8.55678 9.91977 8.6098 10.0081 8.62747C10.039 8.64734 10.0642 8.67487 10.0813 8.7074C10.0983 8.73993 10.1066 8.77633 10.1053 8.81302C10.1053 8.90139 10.3174 8.9279 10.3616 9.00742C10.3987 9.10999 10.4224 9.21689 10.4323 9.32552C10.4323 9.41388 10.4941 9.32552 10.503 9.58178L10.7592 9.72316C10.8476 9.72316 10.8299 9.86453 10.9448 9.90871C11.0596 9.95289 11.0596 9.90871 11.1127 9.90871C11.1657 9.90871 11.1127 9.90871 11.1834 9.96173C11.2541 10.0147 11.3247 9.96173 11.4043 9.96173C11.4838 9.96173 11.5368 10.1031 11.5898 10.1385L11.9079 10.2533C11.9693 10.2856 12.0346 10.3093 12.1023 10.324C12.143 10.3122 12.1818 10.2943 12.2172 10.271C12.2781 10.286 12.3418 10.286 12.4028 10.271C12.4911 10.271 12.5441 10.1561 12.606 10.1561C12.6678 10.1561 12.6767 10.1561 12.7297 10.1561C12.7767 10.1619 12.8241 10.1619 12.8711 10.1561C12.9456 10.1312 13.0263 10.1312 13.1008 10.1561C13.254 10.2649 13.3685 10.4197 13.4278 10.5979C13.4343 10.6537 13.4343 10.7101 13.4278 10.7658C13.4802 10.7546 13.5344 10.7546 13.5868 10.7658C13.631 10.7658 13.5868 10.7658 13.9403 10.7658C13.9403 10.6863 13.6133 10.4654 13.9403 10.1561C14.2672 9.84686 14.2407 9.97057 14.3114 9.90871C14.4223 9.83102 14.5515 9.78364 14.6864 9.77124C14.8212 9.75884 14.9569 9.78187 15.0801 9.83804C15.5131 9.76734 15.195 9.70549 15.4336 9.69665C15.5031 9.6783 15.5762 9.6783 15.6457 9.69665C15.6624 9.66345 15.6897 9.63676 15.7233 9.62077C15.7569 9.60478 15.7949 9.60037 15.8313 9.60828C15.8618 9.56899 15.9006 9.53678 15.9448 9.5139C15.9891 9.49102 16.0377 9.47801 16.0875 9.47575C16.0875 9.37855 16.4144 9.26367 16.5823 9.24599C16.7502 9.22832 16.7325 8.89255 17.1302 9.03393C17.1302 8.94557 17.2097 8.79535 17.3157 8.76001C17.3157 8.56561 17.2627 8.17683 17.4571 8.05312C17.6515 7.92941 17.8283 7.92056 18.1552 7.9294C18.4821 7.93823 18.4821 8.14148 18.5528 8.15915C18.5849 8.16835 18.6189 8.16913 18.6514 8.16139C18.6839 8.15365 18.7138 8.13764 18.7384 8.11495C18.8267 8.06193 18.7384 7.94706 18.8002 7.94706C18.8528 7.95631 18.9067 7.95631 18.9593 7.94706C19.0741 7.94706 19.0565 7.89406 19.1272 7.87638C19.1979 7.85871 19.3745 7.87638 19.4276 7.9294C19.4806 7.98242 19.4894 7.9294 19.6131 7.98241C19.6328 8.00524 19.6572 8.02342 19.6847 8.03565C19.7122 8.04787 19.7421 8.05385 19.7722 8.05312C19.7722 8.05312 19.6838 8.0531 19.7192 7.98241C19.7294 7.94409 19.7299 7.90382 19.7207 7.86525C19.7114 7.82667 19.6927 7.79102 19.6662 7.76151C19.6174 7.72215 19.573 7.67772 19.5336 7.62897C19.5336 7.57595 19.5337 7.57594 19.4806 7.50525C19.4276 7.43456 19.2508 7.36389 19.2155 7.27552C19.1802 7.18716 19.2155 7.13412 19.1095 7.06343C19.0034 6.99274 18.756 6.74534 18.7384 6.49793C18.7207 6.25051 18.7384 5.99426 18.9239 5.91473C18.9239 5.76451 18.9239 5.738 19.1095 5.65847C19.295 5.57895 19.2862 5.65847 19.3834 5.65847C19.4275 5.66724 19.4729 5.66707 19.5169 5.65796C19.5609 5.64885 19.6027 5.631 19.6397 5.60546C19.7369 5.53477 19.6397 5.3757 19.9048 5.1548C20.1698 4.93389 20.267 4.81019 20.3466 4.80135C20.4261 4.79252 20.7442 4.57162 20.8679 4.58929C20.9561 4.46993 21.0568 4.36033 21.1683 4.26235C21.2832 4.17399 21.4069 4.174 21.4688 4.10331C21.5306 4.03262 21.513 3.9089 21.6809 3.79403C21.8487 3.67916 21.999 3.60847 22.0697 3.54662C22.1403 3.48476 22.2994 3.5466 22.3524 3.47591C22.4054 3.40522 22.4054 3.202 22.4672 3.15782C22.5291 3.11364 22.2817 3.25501 22.1491 3.31687C22.0067 3.4011 21.8461 3.44961 21.6809 3.45825C21.5218 3.45825 21.6102 3.54662 21.5218 3.57313C21.4334 3.59963 21.2921 3.57311 21.239 3.6438C21.166 3.73508 21.0863 3.82074 21.0004 3.90006C20.9121 3.95308 20.8679 3.90007 20.7884 3.98843L20.5586 4.10331C20.4648 4.11626 20.3697 4.11626 20.2759 4.10331C20.2759 4.10331 20.0903 4.34188 20.0019 4.43024C19.9136 4.51861 19.8164 4.50094 19.7369 4.54512C19.3334 4.80541 18.8924 5.00208 18.4291 5.12829C17.9343 5.19898 18.1551 5.12829 17.9961 5.12829C17.837 5.12829 17.6162 5.47293 17.4306 5.48176C17.3366 5.49205 17.2418 5.49205 17.1478 5.48176C17.1037 5.48176 16.8739 5.62312 16.7325 5.59661C16.5926 5.62567 16.4483 5.62567 16.3084 5.59661C16.2465 5.59661 16.1405 5.6673 15.9815 5.59661C15.8224 5.52592 15.8577 5.64079 15.628 5.59661C15.3982 5.55243 15.2304 5.59661 15.1155 5.59661C15.0006 5.59661 15.0183 5.49058 14.9299 5.49058C14.8416 5.49058 14.8504 5.55244 14.7444 5.55244C14.6383 5.55244 14.6295 5.49058 14.55 5.49058C14.4457 5.51583 14.3391 5.53064 14.2319 5.53478C14.1082 5.53478 14.064 5.46407 13.9756 5.46407C13.7856 5.4129 13.5995 5.34792 13.4189 5.26967L13.3659 5.3492Z" fill="#DD7D21"/>
<path d="M14.8123 14.0442C15.0516 13.8795 15.3278 13.7763 15.6164 13.7437C15.9522 13.6819 16.3056 13.5847 16.5 13.5405C16.2117 13.6556 15.9166 13.7529 15.6164 13.8321C15.4132 13.894 14.7328 14.0442 14.7328 14.0442H14.8123Z" fill="#2C6752"/>
<path d="M16.1737 13.5228C16.1318 13.3198 16.1565 13.1088 16.244 12.9209C16.3316 12.7331 16.4774 12.5785 16.6598 12.4801C16.6724 12.6807 16.6346 12.8812 16.5496 13.0634C16.4647 13.2455 16.3355 13.4035 16.1737 13.5228Z" fill="#2C6752"/>
<path d="M16.832 13.3021C16.6287 12.9486 16.9733 12.498 17.2296 12.2771C17.2633 12.468 17.2441 12.6644 17.174 12.8451C17.1039 13.0259 16.9856 13.1839 16.832 13.3021Z" fill="#2C6752"/>
<path d="M17.4686 13.0096C17.2477 12.7092 17.4686 12.179 17.7867 11.9669C17.8416 12.1528 17.8407 12.3506 17.7842 12.536C17.7276 12.7213 17.6179 12.886 17.4686 13.0096Z" fill="#2C6752"/>
<path d="M18.0303 12.6479C17.956 12.476 17.9382 12.285 17.9795 12.1023C18.0208 11.9197 18.1191 11.7549 18.2601 11.6317C18.4633 11.8703 18.2601 12.3828 18.0303 12.6479Z" fill="#2C6752"/>
<path d="M18.5163 12.2677C18.4579 12.0759 18.456 11.8714 18.5109 11.6787C18.5657 11.4859 18.675 11.3131 18.8255 11.1808C18.885 11.3724 18.8874 11.5772 18.8325 11.7702C18.7776 11.9632 18.6677 12.136 18.5163 12.2677Z" fill="#2C6752"/>
<path d="M18.9059 12.1268C18.8617 11.7381 19.5333 11.3139 19.7895 11.3316C19.7895 11.6497 19.4714 11.9943 18.9059 12.1268Z" fill="#2C6752"/>
<path d="M18.5284 12.6038C18.6876 12.4761 18.8739 12.3866 19.073 12.3422C19.2721 12.2978 19.4788 12.2996 19.6771 12.3476C19.6241 12.5331 18.8996 12.9484 18.5284 12.6038Z" fill="#2C6752"/>
<path d="M18.0957 12.9305C18.5375 12.8156 18.8291 12.7184 19.0942 12.9923C18.9086 13.2309 18.2106 13.1602 18.0957 12.9305Z" fill="#2C6752"/>
<path d="M17.4637 13.2221C17.6416 13.146 17.8404 13.1344 18.0259 13.1892C18.2115 13.2441 18.3721 13.362 18.4799 13.5225C18.2994 13.5718 18.1086 13.5698 17.9291 13.5167C17.7496 13.4637 17.5885 13.3616 17.4637 13.2221Z" fill="#2C6752"/>
<path d="M16.87 13.5407C17.0456 13.4837 17.234 13.4784 17.4126 13.5254C17.5912 13.5724 17.7525 13.6697 17.8773 13.8058C17.7072 13.8982 17.5083 13.9223 17.3211 13.873C17.1339 13.8238 16.9726 13.7049 16.87 13.5407Z" fill="#2C6752"/>
<path d="M16.3414 13.7084C16.5296 13.6977 16.7173 13.736 16.8861 13.8196C17.055 13.9033 17.1992 14.0294 17.3046 14.1856C16.7391 14.2386 16.5182 14.0707 16.3414 13.7084Z" fill="#2C6752"/>
<path d="M16.1945 14.0442C15.9565 13.8771 15.6797 13.7737 15.3905 13.7437C15.0547 13.6819 14.7012 13.5847 14.5068 13.5405C14.7956 13.6545 15.0906 13.7518 15.3905 13.8321L16.2299 14.0442H16.1945Z" fill="#2C6752"/>
<path d="M14.8146 13.5228C14.858 13.3198 14.8341 13.1082 14.7464 12.92C14.6587 12.7318 14.512 12.5774 14.3286 12.4801C14.3176 12.6805 14.3561 12.8805 14.4409 13.0624C14.5257 13.2442 14.6541 13.4024 14.8146 13.5228Z" fill="#2C6752"/>
<path d="M14.1891 13.3021C14.4011 12.9486 14.0477 12.498 13.7915 12.2771C13.7577 12.468 13.7769 12.6644 13.847 12.8451C13.9171 13.0259 14.0354 13.1839 14.1891 13.3021Z" fill="#2C6752"/>
<path d="M13.5939 13.0096C13.8148 12.7092 13.5939 12.179 13.2758 11.9669C13.2209 12.1528 13.2217 12.3506 13.2783 12.536C13.3348 12.7213 13.4446 12.886 13.5939 13.0096Z" fill="#2C6752"/>
<path d="M12.9893 12.6479C13.0636 12.476 13.0814 12.285 13.0401 12.1023C12.9988 11.9197 12.9006 11.7549 12.7596 11.6317C12.5563 11.8703 12.7596 12.3828 12.9893 12.6479Z" fill="#2C6752"/>
<path d="M12.5045 12.2677C12.5629 12.0759 12.5647 11.8714 12.5099 11.6787C12.455 11.4859 12.3458 11.3131 12.1953 11.1808C12.1346 11.3723 12.1316 11.5775 12.1866 11.7707C12.2416 11.9639 12.3521 12.1367 12.5045 12.2677Z" fill="#2C6752"/>
<path d="M12.1119 12.1268C12.1649 11.7381 11.4934 11.3139 11.2283 11.3316C11.2283 11.6497 11.5375 11.9943 12.1119 12.1268Z" fill="#2C6752"/>
<path d="M12.4956 12.6038C12.3365 12.4761 12.1502 12.3866 11.9511 12.3422C11.7519 12.2978 11.5452 12.2996 11.3469 12.3476C11.4088 12.5331 12.1245 12.9484 12.4956 12.6038Z" fill="#2C6752"/>
<path d="M12.9276 12.9305C12.4858 12.8156 12.1942 12.7184 11.9291 12.9923C12.1146 13.2309 12.8127 13.1602 12.9276 12.9305Z" fill="#2C6752"/>
<path d="M13.562 13.2228C13.3844 13.145 13.1849 13.1324 12.999 13.1874C12.813 13.2424 12.6525 13.3614 12.5458 13.5233C12.7263 13.5736 12.9173 13.5721 13.097 13.519C13.2767 13.4659 13.4378 13.3632 13.562 13.2228Z" fill="#2C6752"/>
<path d="M14.143 13.5401C13.9674 13.482 13.7788 13.4761 13.6 13.5231C13.4211 13.5702 13.2598 13.6682 13.1356 13.8052C13.3057 13.8976 13.5047 13.9217 13.6919 13.8724C13.8791 13.8231 14.0404 13.7043 14.143 13.5401Z" fill="#2C6752"/>
<path d="M14.6771 13.7084C14.489 13.6977 14.3013 13.736 14.1324 13.8196C13.9636 13.9033 13.8194 14.0294 13.714 14.1856C14.2795 14.2386 14.5004 14.0707 14.6771 13.7084Z" fill="#2C6752"/>
</svg>
