<svg width="31" height="18" viewBox="0 0 31 18" fill="none" xmlns="http://www.w3.org/2000/svg">
<path d="M30.1902 0.157471H0.535645V17.4589H30.1902V0.157471Z" fill="#4EAEC4"/>
<path d="M2.47244 12.3614C2.47472 12.2906 2.49095 12.2209 2.52017 12.1564C2.54939 12.0919 2.59103 12.0338 2.64273 11.9853C2.69443 11.9369 2.75519 11.8992 2.82149 11.8742C2.88779 11.8493 2.95833 11.8377 3.02913 11.84C3.0926 11.8325 3.15697 11.8386 3.21792 11.8578C3.27887 11.8771 3.33502 11.9091 3.38265 11.9517C3.43029 11.9944 3.46832 12.0466 3.49421 12.1051C3.5201 12.1635 3.53324 12.2268 3.5328 12.2907C3.5334 12.4236 3.49995 12.5544 3.43561 12.6707L2.67568 14.2347C2.66136 14.3017 2.66136 14.3709 2.67568 14.4379C2.67568 14.5106 2.70453 14.5802 2.75591 14.6316C2.80728 14.683 2.87695 14.7118 2.9496 14.7118C3.02225 14.7118 3.09193 14.683 3.1433 14.6316C3.19467 14.5802 3.22353 14.5106 3.22353 14.4379C3.22353 14.27 3.13518 14.1905 3.04682 14.1905C2.95845 14.1905 2.88774 14.2347 2.88774 14.3142C2.88774 14.3937 2.88776 14.3937 2.95845 14.3937C3.02914 14.3937 3.02913 14.2612 3.02913 14.2612C3.04291 14.2628 3.05613 14.2676 3.06772 14.2752C3.0793 14.2828 3.08893 14.2931 3.09581 14.3051C3.1027 14.3172 3.10666 14.3307 3.10736 14.3446C3.10805 14.3584 3.10547 14.3722 3.09983 14.3849C3.13352 14.3943 3.16405 14.4126 3.1882 14.4379C3.16467 14.464 3.1339 14.4824 3.09983 14.4909C3.09983 14.5705 3.09984 14.6058 3.02031 14.6146C3.02978 14.589 3.02978 14.5608 3.02031 14.5351C2.98977 14.5449 2.95735 14.5473 2.92571 14.5421C2.89407 14.5369 2.86411 14.5244 2.83826 14.5054C2.81241 14.4864 2.7914 14.4617 2.77697 14.433C2.76253 14.4044 2.75508 14.3728 2.7552 14.3407C2.75236 14.2961 2.76016 14.2514 2.77794 14.2104C2.79571 14.1693 2.82296 14.1331 2.85746 14.1046C2.89196 14.0762 2.93271 14.0563 2.97638 14.0467C3.02005 14.037 3.06537 14.0378 3.10865 14.0491C3.08288 14.0353 3.06118 14.015 3.04568 13.9902C3.03019 13.9654 3.02145 13.9369 3.02031 13.9077H3.10865C3.06791 13.8545 3.04616 13.7892 3.04682 13.7222C3.04682 13.7222 3.12634 13.784 3.17936 13.7222C3.15969 13.6728 3.15201 13.6195 3.15695 13.5666C3.16188 13.5137 3.17929 13.4628 3.20775 13.4179C3.23621 13.3731 3.2749 13.3356 3.32066 13.3086C3.36641 13.2817 3.41792 13.2659 3.47094 13.2627C3.37858 13.3612 3.3252 13.49 3.32074 13.625C3.32074 14.0226 3.43561 14.0933 3.43561 14.3672C3.43425 14.4331 3.41756 14.4977 3.38689 14.556C3.35621 14.6142 3.31238 14.6646 3.25888 14.703C3.29245 14.7086 3.32427 14.7219 3.35186 14.7418C3.37945 14.7617 3.40205 14.7878 3.41792 14.8179C3.2271 14.8706 3.02556 14.8706 2.83473 14.8179C2.77117 14.8096 2.71034 14.787 2.65678 14.7518C2.60321 14.7166 2.55832 14.6697 2.52548 14.6146C2.49035 14.5369 2.47217 14.4526 2.47217 14.3672C2.47217 14.2819 2.49035 14.1976 2.52548 14.1198L3.29423 12.4939C3.32952 12.4225 3.34767 12.3439 3.34725 12.2642C3.3461 12.2271 3.33766 12.1905 3.32238 12.1566C3.30711 12.1228 3.28529 12.0922 3.2582 12.0668C3.23112 12.0414 3.19931 12.0215 3.16455 12.0084C3.12979 11.9952 3.09277 11.9891 3.05563 11.9903C2.99286 11.9877 2.93145 12.0091 2.88386 12.0501C2.83627 12.0911 2.80608 12.1487 2.7994 12.2112C2.79681 12.2265 2.79762 12.2422 2.80178 12.2572C2.80593 12.2722 2.81331 12.2861 2.82343 12.2979C2.83355 12.3097 2.84615 12.3191 2.86032 12.3255C2.87449 12.3319 2.88989 12.3351 2.90543 12.3349C3.04681 12.3349 3.03797 12.2112 3.01146 12.1317C2.98496 12.0521 3.16167 12.2465 3.144 12.3172C3.20053 12.3279 3.25099 12.3595 3.28539 12.4056C3.26938 12.4287 3.24834 12.4478 3.22385 12.4616C3.19936 12.4754 3.17205 12.4834 3.144 12.4851C3.144 12.6088 3.09099 12.653 3.01146 12.6795C2.93194 12.706 3.01147 12.4939 2.90543 12.4939C2.86153 12.4989 2.81708 12.4935 2.77564 12.4781C2.73421 12.4628 2.69694 12.4379 2.66684 12.4056C2.66684 12.4939 2.66684 12.8651 2.66684 12.8651C2.66684 13.0064 2.8524 12.9976 2.97611 12.9623C2.96896 13.0008 2.95387 13.0374 2.93181 13.0698C2.90975 13.1022 2.8812 13.1297 2.84797 13.1504C2.81473 13.1712 2.77754 13.1848 2.73876 13.1905C2.69997 13.1961 2.66044 13.1936 2.62267 13.1832C2.6559 13.1962 2.68409 13.2196 2.70316 13.2498C2.72223 13.2799 2.73117 13.3154 2.7287 13.3511C2.72409 13.4137 2.7059 13.4747 2.67538 13.5296C2.64487 13.5845 2.60276 13.6321 2.55199 13.6692L2.47244 12.3614Z" fill="#F5C832"/>
<path d="M2.54823 12.3615C2.54848 12.2868 2.53322 12.2129 2.50341 12.1445C2.47361 12.076 2.42991 12.0145 2.37508 11.9638C2.32025 11.9131 2.25547 11.8744 2.18489 11.8501C2.11431 11.8257 2.03944 11.8163 1.96504 11.8225C1.90156 11.8149 1.83722 11.821 1.77627 11.8403C1.71532 11.8595 1.65914 11.8915 1.61151 11.9341C1.56387 11.9768 1.52586 12.029 1.49998 12.0875C1.47409 12.1459 1.46092 12.2092 1.46136 12.2731C1.45766 12.4053 1.4881 12.5361 1.54973 12.6531L2.30966 14.2171C2.32483 14.284 2.32483 14.3534 2.30966 14.4203C2.30966 14.493 2.28078 14.5627 2.22941 14.614C2.17804 14.6654 2.10836 14.6943 2.03571 14.6943C1.96306 14.6943 1.89341 14.6654 1.84204 14.614C1.79067 14.5627 1.76179 14.493 1.76179 14.4203C1.76179 14.2524 1.85016 14.1729 1.93853 14.1729C2.02689 14.1729 2.09757 14.2171 2.09757 14.2966C2.09757 14.3761 2.09757 14.3762 2.03571 14.3762C1.97386 14.3762 1.96504 14.2436 1.96504 14.2436C1.95203 14.2463 1.9398 14.252 1.92928 14.2601C1.91876 14.2683 1.91023 14.2787 1.90428 14.2905C1.89834 14.3024 1.89514 14.3155 1.89495 14.3288C1.89476 14.3421 1.89757 14.3553 1.90317 14.3673C1.8668 14.3765 1.83336 14.3947 1.80599 14.4203C1.83256 14.4471 1.86632 14.4655 1.90317 14.4733C1.90317 14.5529 1.90319 14.5882 1.97388 14.5971C1.96441 14.5714 1.96441 14.5432 1.97388 14.5175C2.00442 14.5273 2.03681 14.5297 2.06845 14.5245C2.10009 14.5194 2.13005 14.5068 2.1559 14.4878C2.18175 14.4689 2.20276 14.4441 2.2172 14.4155C2.23163 14.3868 2.23908 14.3552 2.23896 14.3231C2.2418 14.2785 2.23403 14.2338 2.21625 14.1928C2.19848 14.1518 2.1712 14.1155 2.1367 14.0871C2.1022 14.0586 2.06145 14.0387 2.01778 14.0291C1.97411 14.0194 1.92879 14.0203 1.88551 14.0315C1.91188 14.0185 1.93409 13.9983 1.94969 13.9733C1.96529 13.9484 1.97368 13.9196 1.97388 13.8902H1.88551C1.92688 13.8373 1.94873 13.7717 1.94737 13.7046C1.94737 13.7046 1.85901 13.7665 1.80599 13.7046C1.82566 13.6553 1.83334 13.6019 1.8284 13.5491C1.82346 13.4962 1.80603 13.4452 1.77757 13.4004C1.7491 13.3555 1.71041 13.318 1.66466 13.291C1.61891 13.2641 1.5674 13.2483 1.51438 13.2451C1.60817 13.3427 1.6618 13.472 1.66461 13.6074C1.66461 14.005 1.54973 14.0757 1.54973 14.3496C1.55039 14.4156 1.56678 14.4805 1.59751 14.5389C1.62825 14.5973 1.67245 14.6475 1.72647 14.6854C1.69312 14.6916 1.66155 14.7052 1.63405 14.725C1.60655 14.7449 1.58378 14.7706 1.56739 14.8003C1.75828 14.8525 1.9597 14.8525 2.15059 14.8003C2.21395 14.7914 2.27455 14.7685 2.32803 14.7334C2.3815 14.6982 2.42653 14.6517 2.45986 14.5971C2.49341 14.5189 2.51072 14.4347 2.51072 14.3496C2.51072 14.2646 2.49341 14.1804 2.45986 14.1022C2.35383 13.8813 1.85017 12.8121 1.69111 12.4763C1.6575 12.4043 1.63943 12.3261 1.6381 12.2466C1.63924 12.2095 1.64768 12.1729 1.66296 12.139C1.67824 12.1052 1.70003 12.0747 1.72711 12.0492C1.75419 12.0238 1.78604 12.0039 1.82079 11.9908C1.85555 11.9777 1.89255 11.9715 1.92968 11.9727C1.99246 11.9701 2.05389 11.9915 2.10148 12.0325C2.14907 12.0735 2.17926 12.1311 2.18594 12.1936C2.18853 12.2089 2.18772 12.2246 2.18357 12.2396C2.17941 12.2546 2.17201 12.2685 2.16189 12.2803C2.15177 12.2921 2.13919 12.3015 2.12503 12.3079C2.11086 12.3143 2.09546 12.3175 2.07991 12.3173C1.93853 12.3173 1.94737 12.1936 1.97388 12.1141C2.00039 12.0345 1.83249 12.2289 1.85016 12.2996C1.79394 12.3111 1.74374 12.3425 1.70878 12.388C1.72478 12.4111 1.74582 12.4302 1.77031 12.444C1.7948 12.4578 1.82211 12.4658 1.85016 12.4675C1.85016 12.5912 1.90319 12.6354 1.97388 12.6619C2.04457 12.6884 1.97388 12.4763 2.07991 12.4763C2.12382 12.4813 2.16827 12.4759 2.2097 12.4605C2.25113 12.4452 2.28838 12.4203 2.31848 12.388C2.31848 12.4764 2.31848 12.8475 2.31848 12.8475C2.31848 12.9889 2.13291 12.98 2.00921 12.9447C2.01743 12.9835 2.03352 13.0203 2.05648 13.0528C2.07943 13.0852 2.10876 13.1126 2.14269 13.1333C2.17661 13.154 2.21442 13.1675 2.25376 13.1731C2.29311 13.1786 2.33317 13.1761 2.3715 13.1656C2.33826 13.1786 2.31007 13.202 2.291 13.2322C2.27193 13.2624 2.26299 13.2978 2.26547 13.3335C2.27064 13.396 2.28909 13.4567 2.31956 13.5116C2.35003 13.5664 2.39184 13.6141 2.4422 13.6516L2.54823 12.3615Z" fill="#F5C832"/>
<path d="M2.50992 16.1082C2.50992 16.1082 2.66898 16.2408 2.73083 16.1701C2.79269 16.0994 2.45691 15.5073 2.45691 15.2864C2.45691 15.0655 2.66899 14.88 2.93408 14.8358C3.08954 14.8158 3.24693 14.8158 3.4024 14.8358C3.38465 14.8666 3.35878 14.892 3.32762 14.9091C3.29646 14.9262 3.26119 14.9345 3.22566 14.933C3.28823 14.9658 3.34042 15.0155 3.37632 15.0764C3.41222 15.1372 3.43043 15.2069 3.4289 15.2776C3.4289 15.5515 3.31403 15.6664 3.31403 15.9757C3.32835 16.1177 3.37686 16.2541 3.45541 16.3733C3.40377 16.3705 3.35346 16.3558 3.30842 16.3304C3.26338 16.305 3.22483 16.2696 3.19575 16.2268C3.16668 16.184 3.14787 16.1351 3.1408 16.0839C3.13373 16.0327 3.13858 15.9805 3.15498 15.9315C3.13861 15.9229 3.12042 15.9185 3.10197 15.9185C3.08351 15.9185 3.06533 15.9229 3.04895 15.9315C3.0428 15.902 3.04358 15.8715 3.05124 15.8423C3.05891 15.8132 3.07325 15.7862 3.09312 15.7636C3.09312 15.7636 3.04011 15.7636 2.98709 15.7636C2.99438 15.7306 3.00832 15.6995 3.02808 15.6722C3.04783 15.6448 3.07299 15.6218 3.10197 15.6045C3.06027 15.6188 3.01576 15.6227 2.97221 15.6161C2.92865 15.6094 2.88733 15.5924 2.85177 15.5663C2.81622 15.5403 2.78748 15.5061 2.76796 15.4666C2.74845 15.4271 2.73874 15.3835 2.73968 15.3395C2.73676 15.2897 2.75227 15.2405 2.78323 15.2014C2.81418 15.1623 2.85844 15.136 2.90757 15.1274C2.93907 15.1166 2.97325 15.1166 3.00475 15.1274C3.01205 15.1106 3.01584 15.0926 3.01584 15.0743C3.01584 15.0561 3.01205 15.0381 3.00475 15.0213C3.06661 15.0213 3.11079 15.0655 3.08428 15.1451C3.10546 15.1439 3.12666 15.1472 3.14646 15.1548C3.16626 15.1625 3.18421 15.1742 3.19915 15.1892C3.18797 15.2069 3.17218 15.2211 3.1535 15.2305C3.13482 15.2398 3.11395 15.2439 3.09312 15.2422C3.09312 15.3129 3.09311 15.3571 3.03126 15.3836C2.96941 15.4101 3.03126 15.2422 2.97825 15.2422C2.92523 15.2422 2.89872 15.2422 2.89872 15.3218C2.9009 15.3404 2.90677 15.3584 2.91598 15.3747C2.92519 15.3911 2.93756 15.4054 2.95236 15.4169C2.96716 15.4284 2.98409 15.4369 3.00219 15.4418C3.02029 15.4467 3.03918 15.448 3.05777 15.4455C3.1638 15.4455 3.25217 15.366 3.25217 15.1981C3.25217 15.0302 3.12847 14.9595 2.96058 14.9595C2.92683 14.9542 2.89232 14.9565 2.85957 14.9662C2.82682 14.9759 2.79665 14.9928 2.77125 15.0157C2.74586 15.0385 2.72587 15.0668 2.71276 15.0983C2.69966 15.1299 2.69375 15.1639 2.69548 15.1981C2.69548 15.4013 2.99594 15.8696 2.99594 16.0817C2.9937 16.1119 2.98552 16.1414 2.97185 16.1684C2.95819 16.1954 2.93933 16.2195 2.91633 16.2392C2.89334 16.2589 2.86666 16.2738 2.83786 16.2832C2.80906 16.2926 2.77871 16.2962 2.74852 16.2938C2.63489 16.279 2.53087 16.2222 2.45691 16.1347L2.50992 16.1082Z" fill="#F5C832"/>
<path d="M2.51257 16.108C2.51257 16.108 2.34468 16.2405 2.29166 16.1698C2.23865 16.0992 2.56559 15.5071 2.56559 15.2862C2.56559 15.0653 2.35353 14.8797 2.08845 14.8356C1.93296 14.8159 1.77559 14.8159 1.6201 14.8356C1.63929 14.8671 1.66671 14.8928 1.69941 14.9099C1.7321 14.927 1.76884 14.9349 1.80568 14.9327C1.7431 14.9656 1.69092 15.0153 1.65502 15.0762C1.61912 15.137 1.60091 15.2067 1.60244 15.2774C1.60244 15.5513 1.71731 15.6662 1.71731 15.9754C1.70299 16.1175 1.65448 16.2539 1.57593 16.3731C1.62833 16.3716 1.67965 16.3579 1.72581 16.3331C1.77196 16.3082 1.81167 16.2729 1.84173 16.23C1.87179 16.187 1.89138 16.1376 1.89893 16.0858C1.90648 16.0339 1.90178 15.981 1.8852 15.9313C1.90177 15.9234 1.91988 15.9193 1.93822 15.9193C1.95656 15.9193 1.97466 15.9234 1.99123 15.9313C1.99555 15.9011 1.99302 15.8703 1.98384 15.8413C1.97467 15.8122 1.95908 15.7856 1.93822 15.7634C1.93822 15.7634 1.99123 15.7634 2.04425 15.7634C2.03747 15.7302 2.02374 15.6989 2.00393 15.6715C1.98413 15.6441 1.9587 15.6212 1.92937 15.6043C1.97107 15.6185 2.01558 15.6225 2.05913 15.6159C2.10269 15.6092 2.14401 15.5921 2.17956 15.5661C2.21512 15.5401 2.24386 15.5059 2.26338 15.4664C2.28289 15.4269 2.2926 15.3833 2.29166 15.3392C2.29409 15.3137 2.29145 15.2879 2.28387 15.2634C2.27629 15.2389 2.26392 15.2161 2.24749 15.1964C2.23106 15.1767 2.21089 15.1604 2.18814 15.1485C2.16539 15.1366 2.14052 15.1294 2.11495 15.1271C2.08617 15.1183 2.05537 15.1183 2.02659 15.1271C2.01929 15.1104 2.0155 15.0924 2.0155 15.0741C2.0155 15.0559 2.01929 15.0378 2.02659 15.0211C1.96473 15.0211 1.92054 15.0653 1.95588 15.1448C1.91608 15.1449 1.87795 15.1608 1.84985 15.189C1.8617 15.2081 1.87891 15.2233 1.89933 15.2327C1.91975 15.2422 1.94249 15.2454 1.96473 15.242C1.96473 15.3127 1.96473 15.3569 2.02659 15.3834C2.08844 15.4099 2.02658 15.242 2.0796 15.242C2.09039 15.2406 2.10135 15.2416 2.11166 15.2451C2.12198 15.2486 2.13136 15.2544 2.13906 15.2621C2.14676 15.2698 2.15257 15.2792 2.15605 15.2895C2.15953 15.2998 2.16058 15.3108 2.15912 15.3215C2.15824 15.3407 2.15321 15.3594 2.1444 15.3764C2.13559 15.3934 2.12322 15.4083 2.1081 15.4201C2.09299 15.4318 2.07549 15.4402 2.05684 15.4445C2.03819 15.4489 2.01884 15.4491 2.00008 15.4453C1.89404 15.4453 1.80568 15.3657 1.80568 15.1979C1.80568 15.03 1.92938 14.9593 2.09726 14.9593C2.13102 14.954 2.16553 14.9563 2.19828 14.966C2.23103 14.9757 2.2612 14.9926 2.28659 15.0155C2.31199 15.0383 2.33198 15.0666 2.34508 15.0981C2.35819 15.1297 2.3641 15.1637 2.36237 15.1979C2.36237 15.4011 2.06191 15.8694 2.06191 16.0815C2.06414 16.1117 2.07233 16.1411 2.08599 16.1682C2.09965 16.1952 2.11852 16.2193 2.14152 16.239C2.16451 16.2587 2.19119 16.2736 2.21999 16.283C2.24879 16.2924 2.27916 16.296 2.30935 16.2935C2.42326 16.2796 2.52754 16.2227 2.60094 16.1345L2.51257 16.108Z" fill="#F5C832"/>
<path d="M2.47244 6.29988C2.47472 6.22908 2.49095 6.15943 2.52017 6.09491C2.54939 6.03038 2.59103 5.97225 2.64273 5.92383C2.69443 5.87542 2.75519 5.83766 2.82149 5.81273C2.88779 5.7878 2.95833 5.77618 3.02913 5.77854C3.09335 5.77091 3.15849 5.77719 3.22007 5.79696C3.28166 5.81673 3.33824 5.84953 3.38602 5.89312C3.43381 5.93671 3.47166 5.99006 3.49699 6.04958C3.52231 6.10909 3.53452 6.17336 3.5328 6.23802C3.53462 6.37104 3.50109 6.50216 3.43561 6.61797L2.67568 8.182C2.66211 8.24907 2.66211 8.31816 2.67568 8.38522C2.67568 8.45787 2.70453 8.52755 2.75591 8.57892C2.80728 8.63029 2.87695 8.65917 2.9496 8.65917C3.02225 8.65917 3.09193 8.63029 3.1433 8.57892C3.19467 8.52755 3.22353 8.45787 3.22353 8.38522C3.22353 8.2085 3.13518 8.13781 3.04682 8.13781C2.95845 8.13781 2.88774 8.13782 2.88774 8.26153C2.88774 8.38524 2.88776 8.34105 2.95845 8.34105C3.02914 8.34105 3.02913 8.20851 3.02913 8.20851C3.04215 8.21155 3.05443 8.21724 3.06515 8.22523C3.07588 8.23322 3.08484 8.24334 3.09147 8.25495C3.09811 8.26656 3.10225 8.27941 3.10369 8.2927C3.10513 8.306 3.10383 8.31944 3.09983 8.33221C3.13462 8.33891 3.16592 8.35768 3.1882 8.38522C3.16379 8.41019 3.13335 8.42848 3.09983 8.43826C3.09983 8.50895 3.09984 8.55312 3.02031 8.56196C3.02906 8.53617 3.02906 8.50822 3.02031 8.48243C2.98977 8.49445 2.95666 8.49852 2.92412 8.4943C2.89158 8.49008 2.86065 8.47771 2.83419 8.4583C2.80772 8.43889 2.78659 8.4131 2.77279 8.38333C2.75898 8.35356 2.75293 8.32077 2.7552 8.28804C2.7538 8.24413 2.76267 8.20051 2.78107 8.16062C2.79946 8.12073 2.82688 8.08567 2.86118 8.05823C2.89548 8.03079 2.93572 8.01171 2.97867 8.00252C3.02163 7.99333 3.06612 7.99426 3.10865 8.00527C3.08288 7.99144 3.06118 7.97112 3.04568 7.94632C3.03019 7.92152 3.02145 7.89311 3.02031 7.86389H3.10865C3.06856 7.81371 3.04677 7.7514 3.04682 7.68718C3.04682 7.68718 3.12634 7.74019 3.17936 7.68718C3.09099 7.51929 3.17934 7.28953 3.47094 7.22767C3.37991 7.32707 3.32675 7.45532 3.32074 7.58996C3.32074 7.9876 3.43561 8.05828 3.43561 8.33221C3.43425 8.39805 3.41756 8.46269 3.38689 8.52097C3.35621 8.57925 3.31238 8.62958 3.25888 8.66799C3.29164 8.67262 3.32293 8.68456 3.35046 8.70291C3.37798 8.72126 3.40105 8.74556 3.41792 8.77402C3.22755 8.82999 3.0251 8.82999 2.83473 8.77402C2.77117 8.76571 2.71034 8.74313 2.65678 8.70793C2.60321 8.67273 2.55832 8.62585 2.52548 8.5708C2.49035 8.49305 2.47217 8.40871 2.47217 8.32339C2.47217 8.23807 2.49035 8.15373 2.52548 8.07597L3.29423 6.4501C3.32983 6.3788 3.348 6.30005 3.34725 6.22035C3.3461 6.18321 3.33766 6.14666 3.32238 6.11278C3.30711 6.07891 3.28528 6.0484 3.2582 6.02296C3.23112 5.99752 3.19931 5.97766 3.16455 5.96453C3.12979 5.95139 3.09277 5.94525 3.05563 5.94643C2.99286 5.94383 2.93145 5.96522 2.88386 6.00624C2.83627 6.04727 2.80608 6.10486 2.7994 6.16734C2.79681 6.18267 2.79762 6.19836 2.80178 6.21334C2.80593 6.22832 2.81331 6.24223 2.82343 6.25403C2.83355 6.26584 2.84615 6.27525 2.86032 6.28165C2.87449 6.28804 2.88989 6.29125 2.90543 6.29103C3.04681 6.29103 3.03797 6.16732 3.01146 6.09663C2.98496 6.02594 3.16167 6.21152 3.144 6.28221C3.20053 6.29293 3.25099 6.32444 3.28539 6.37055C3.26854 6.39281 3.24731 6.41137 3.22299 6.42505C3.19866 6.43874 3.17177 6.44727 3.144 6.4501C3.144 6.56498 3.09099 6.61799 3.01146 6.6445C2.93194 6.67101 3.01147 6.45892 2.90543 6.45892C2.86153 6.46386 2.81708 6.45844 2.77564 6.44309C2.73421 6.42775 2.69694 6.4029 2.66684 6.37055C2.66684 6.45892 2.66684 6.83006 2.66684 6.83006C2.66684 6.97144 2.8524 6.96259 2.97611 6.92724C2.93193 7.0863 2.83474 7.17466 2.62267 7.14815C2.65512 7.16229 2.68258 7.18587 2.70149 7.21581C2.72039 7.24574 2.72987 7.28066 2.7287 7.31604C2.72409 7.37871 2.7059 7.43962 2.67538 7.49456C2.64487 7.54949 2.60276 7.59714 2.55199 7.63416L2.47244 6.29988Z" fill="#F5C832"/>
<path d="M2.54872 6.29988C2.54643 6.22908 2.53021 6.15943 2.50099 6.09491C2.47177 6.03038 2.43013 5.97225 2.37843 5.92383C2.32673 5.87542 2.266 5.83766 2.19969 5.81273C2.13339 5.7878 2.06282 5.77618 1.99203 5.77854C1.9278 5.77091 1.86269 5.77719 1.80111 5.79696C1.73952 5.81673 1.68291 5.84953 1.63513 5.89312C1.58735 5.93671 1.54952 5.99006 1.52419 6.04958C1.49887 6.10909 1.48663 6.17336 1.48835 6.23802C1.48383 6.37024 1.51432 6.50131 1.57672 6.61797L2.33666 8.182C2.35125 8.24896 2.35125 8.31826 2.33666 8.38522C2.33666 8.45787 2.30777 8.52755 2.2564 8.57892C2.20503 8.63029 2.13536 8.65917 2.06271 8.65917C1.99006 8.65917 1.92041 8.63029 1.86904 8.57892C1.81766 8.52755 1.78878 8.45787 1.78878 8.38522C1.78878 8.2085 1.87716 8.13781 1.96552 8.13781C2.05388 8.13781 2.12457 8.13782 2.12457 8.26153C2.12457 8.38524 2.12456 8.34105 2.06271 8.34105C2.00085 8.34105 1.99203 8.20851 1.99203 8.20851C1.9798 8.21251 1.96847 8.21888 1.95872 8.22728C1.94898 8.23568 1.94102 8.24592 1.93526 8.25743C1.92951 8.26894 1.92608 8.28148 1.92521 8.29432C1.92433 8.30716 1.92602 8.32003 1.93017 8.33221C1.89271 8.33838 1.85845 8.35707 1.83298 8.38522C1.86036 8.41086 1.89379 8.42913 1.93017 8.43826C1.92453 8.45094 1.92195 8.46475 1.92264 8.47861C1.92334 8.49246 1.9273 8.50596 1.93419 8.518C1.94107 8.53005 1.9507 8.5403 1.96228 8.54794C1.97387 8.55557 1.98709 8.56038 2.00087 8.56196C1.99212 8.53617 1.99212 8.50822 2.00087 8.48243C2.03141 8.49445 2.06449 8.49852 2.09703 8.4943C2.12958 8.49008 2.16053 8.47771 2.18699 8.4583C2.21346 8.43889 2.23456 8.4131 2.24837 8.38333C2.26218 8.35356 2.26823 8.32077 2.26595 8.28804C2.26735 8.24413 2.25851 8.20051 2.24012 8.16062C2.22172 8.12073 2.19428 8.08567 2.15997 8.05823C2.12567 8.03079 2.08544 8.01171 2.04248 8.00252C1.99953 7.99333 1.95503 7.99426 1.9125 8.00527C1.93887 7.99219 1.96108 7.97206 1.97668 7.9471C1.99228 7.92214 2.00067 7.89332 2.00087 7.86389C1.97164 7.869 1.94174 7.869 1.9125 7.86389C1.95393 7.81446 1.97593 7.75165 1.97437 7.68718C1.97437 7.68718 1.886 7.74019 1.83298 7.68718C1.92134 7.51929 1.83297 7.28953 1.54137 7.22767C1.63373 7.32621 1.68713 7.45498 1.6916 7.58996C1.6916 7.9876 1.57672 8.05828 1.57672 8.33221C1.57739 8.39819 1.59377 8.46309 1.62451 8.52148C1.65524 8.57987 1.69944 8.63008 1.75346 8.66799C1.72089 8.67321 1.68981 8.6854 1.66237 8.70369C1.63492 8.72199 1.61173 8.74596 1.59439 8.77402C1.78476 8.82999 1.98721 8.82999 2.17758 8.77402C2.24095 8.7651 2.30154 8.74226 2.35502 8.70712C2.4085 8.67198 2.45353 8.62543 2.48686 8.5708C2.5204 8.49263 2.53771 8.40845 2.53771 8.32339C2.53771 8.23832 2.5204 8.15415 2.48686 8.07597C2.38082 7.85507 1.87716 6.78588 1.71811 6.4501C1.68397 6.37828 1.66588 6.29987 1.66509 6.22035C1.66623 6.18321 1.67468 6.14666 1.68995 6.11278C1.70523 6.07891 1.72702 6.0484 1.75411 6.02296C1.78119 5.99752 1.81303 5.97766 1.84779 5.96453C1.88254 5.95139 1.91954 5.94525 1.95668 5.94643C2.01945 5.94383 2.08089 5.96522 2.12848 6.00624C2.17607 6.04727 2.20626 6.10486 2.21293 6.16734C2.21293 6.24686 2.21294 6.29103 2.1069 6.29103C2.00087 6.29103 1.97436 6.16732 2.00087 6.09663C1.96293 6.10998 1.93034 6.1353 1.90803 6.16877C1.88572 6.20223 1.87487 6.24205 1.87715 6.28221C1.82093 6.29371 1.77074 6.32506 1.73577 6.37055C1.77049 6.41475 1.82135 6.44338 1.87715 6.4501C1.87715 6.56498 1.93018 6.61799 2.00087 6.6445C2.07156 6.67101 2.00087 6.45892 2.1069 6.45892C2.15081 6.46386 2.19526 6.45844 2.23669 6.44309C2.27812 6.42775 2.31537 6.4029 2.34547 6.37055C2.34547 6.45892 2.34547 6.83006 2.34547 6.83006C2.34547 6.97144 2.15991 6.96259 2.0362 6.92724C2.08038 7.0863 2.17758 7.17466 2.39849 7.14815C2.36603 7.16229 2.33857 7.18587 2.31967 7.21581C2.30076 7.24574 2.29128 7.28066 2.29246 7.31604C2.29764 7.37857 2.31608 7.4393 2.34655 7.49415C2.37702 7.549 2.41884 7.59673 2.46919 7.63416L2.54872 6.29988Z" fill="#F5C832"/>
<path d="M2.54883 5.26598C2.54655 5.33677 2.53032 5.40645 2.5011 5.47097C2.47188 5.5355 2.43024 5.59363 2.37854 5.64205C2.32684 5.69047 2.26611 5.72822 2.19981 5.75315C2.13351 5.77808 2.06293 5.7897 1.99214 5.78734C1.92764 5.79654 1.8619 5.79135 1.79963 5.77216C1.73736 5.75297 1.68012 5.72026 1.63198 5.67635C1.58385 5.63243 1.54601 5.57842 1.5212 5.51817C1.4964 5.45792 1.48521 5.39291 1.48847 5.32784C1.48549 5.19859 1.51593 5.07077 1.57684 4.95673L2.33677 3.39269C2.35224 3.32583 2.35224 3.25634 2.33677 3.18948C2.33677 3.11683 2.30789 3.04715 2.25652 2.99578C2.20515 2.94441 2.13547 2.91555 2.06282 2.91555C1.99017 2.91555 1.92052 2.94441 1.86915 2.99578C1.81778 3.04715 1.7889 3.11683 1.7889 3.18948C1.7889 3.3662 1.87727 3.44571 1.96563 3.44571C2.054 3.44571 2.12468 3.40154 2.12468 3.32202C2.12468 3.24249 2.12467 3.24249 2.06282 3.24249C2.00097 3.24249 1.99214 3.37503 1.99214 3.37503C1.97913 3.37228 1.9669 3.36663 1.95638 3.3585C1.94586 3.35037 1.93733 3.33997 1.93139 3.32808C1.92544 3.31619 1.92225 3.30314 1.92206 3.28984C1.92187 3.27655 1.92468 3.26336 1.93028 3.25131C1.89324 3.24394 1.85934 3.22545 1.8331 3.19829C1.85967 3.17157 1.89343 3.15316 1.93028 3.14528C1.93028 3.06575 1.9303 3.03042 2.00099 3.02159C1.99338 3.04755 1.99338 3.07515 2.00099 3.10111C2.03153 3.0891 2.0646 3.085 2.09715 3.08922C2.12969 3.09344 2.16064 3.10584 2.18711 3.12524C2.21357 3.14465 2.23467 3.17044 2.24848 3.20021C2.26229 3.22998 2.26834 3.26277 2.26606 3.29551C2.26946 3.33999 2.26194 3.38462 2.24417 3.42554C2.22639 3.46645 2.19889 3.50241 2.16405 3.53028C2.12921 3.55814 2.08811 3.57709 2.04429 3.58545C2.00047 3.59381 1.95527 3.59136 1.91262 3.57827C1.93838 3.5921 1.96009 3.61243 1.97558 3.63722C1.99108 3.66202 1.99985 3.69041 2.00099 3.71963H1.91262C1.95465 3.77216 1.97659 3.83797 1.97448 3.90521C1.97448 3.90521 1.88611 3.84336 1.8331 3.90521C1.85276 3.95456 1.86044 4.00786 1.8555 4.06075C1.85057 4.11364 1.83314 4.16459 1.80467 4.20944C1.77621 4.25429 1.73752 4.29175 1.69177 4.31874C1.64601 4.34573 1.5945 4.36147 1.54148 4.36469C1.63455 4.2666 1.68806 4.13756 1.69171 4.0024C1.69171 3.60477 1.57684 3.53407 1.57684 3.25131C1.57818 3.18669 1.59491 3.12332 1.62564 3.06646C1.65638 3.0096 1.70024 2.96089 1.75357 2.92437C1.68886 2.91087 1.63185 2.87288 1.5945 2.81834C1.78487 2.76238 1.98733 2.76238 2.1777 2.81834C2.24087 2.82784 2.30125 2.85094 2.35465 2.88603C2.40804 2.92111 2.45318 2.96736 2.48697 3.02159C2.52052 3.09976 2.53783 3.18393 2.53783 3.269C2.53783 3.35407 2.52052 3.43824 2.48697 3.51641C2.38093 3.73732 1.87727 4.80651 1.71822 5.14228C1.6846 5.21429 1.66654 5.29258 1.6652 5.37204C1.6675 5.44783 1.69924 5.51974 1.75368 5.57253C1.80812 5.62532 1.88096 5.65481 1.95679 5.65478C2.01905 5.65537 2.07941 5.6333 2.12657 5.59265C2.17373 5.55199 2.20446 5.49554 2.21305 5.43387C2.21305 5.35434 2.21305 5.31018 2.10702 5.31018C2.00098 5.31018 1.97448 5.43387 2.00099 5.51339C1.96218 5.50139 1.92868 5.4764 1.90615 5.44261C1.88362 5.40881 1.87342 5.36827 1.87727 5.32784C1.82204 5.3194 1.77177 5.29113 1.73588 5.24832C1.75139 5.22473 1.77231 5.2052 1.79691 5.19136C1.8215 5.17753 1.84906 5.1698 1.87727 5.16879C1.87727 5.05392 1.9303 5.0009 2.00099 4.97439C2.07168 4.94788 2.00098 5.15995 2.10702 5.15995C2.151 5.15349 2.1959 5.1582 2.23759 5.17365C2.27928 5.18909 2.31642 5.21476 2.34559 5.24832C2.34559 5.15112 2.34559 4.78884 2.34559 4.78884C2.34559 4.64746 2.16002 4.65628 2.03631 4.69163C2.04453 4.65275 2.06063 4.61598 2.08358 4.58355C2.10654 4.55111 2.13587 4.52368 2.16979 4.503C2.20372 4.48231 2.24152 4.46877 2.28087 4.46322C2.32021 4.45767 2.36028 4.46023 2.3986 4.47072C2.36537 4.45765 2.33718 4.43433 2.31811 4.40414C2.29904 4.37395 2.29009 4.33845 2.29257 4.30283C2.29775 4.2403 2.31619 4.17959 2.34667 4.12474C2.37714 4.06989 2.41895 4.02217 2.46931 3.98474L2.54883 5.26598Z" fill="#F5C832"/>
<path d="M2.47244 5.26598C2.47472 5.33677 2.49095 5.40645 2.52017 5.47097C2.54939 5.5355 2.59103 5.59363 2.64273 5.64205C2.69443 5.69047 2.75519 5.72822 2.82149 5.75315C2.88779 5.77808 2.95833 5.7897 3.02913 5.78734C3.09335 5.79497 3.15849 5.78867 3.22007 5.7689C3.28166 5.74913 3.33824 5.71635 3.38602 5.67276C3.43381 5.62917 3.47166 5.57579 3.49699 5.51628C3.52231 5.45676 3.53452 5.39249 3.5328 5.32784C3.53267 5.19785 3.49922 5.07009 3.43561 4.95673L2.67568 3.39269C2.66109 3.32574 2.66109 3.25644 2.67568 3.18948C2.67568 3.11683 2.70453 3.04715 2.75591 2.99578C2.80728 2.94441 2.87695 2.91555 2.9496 2.91555C3.02225 2.91555 3.09193 2.94441 3.1433 2.99578C3.19467 3.04715 3.22353 3.11683 3.22353 3.18948C3.22353 3.3662 3.13518 3.44571 3.04682 3.44571C2.95845 3.44571 2.88774 3.40154 2.88774 3.32202C2.88774 3.24249 2.88776 3.24249 2.95845 3.24249C3.02914 3.24249 3.02913 3.37503 3.02913 3.37503C3.04291 3.37345 3.05613 3.36864 3.06772 3.36101C3.0793 3.35337 3.08893 3.34312 3.09581 3.33108C3.1027 3.31903 3.10666 3.30553 3.10736 3.29168C3.10805 3.27782 3.10547 3.26399 3.09983 3.25131C3.13412 3.24334 3.16503 3.22479 3.1882 3.19829C3.16467 3.17224 3.1339 3.15378 3.09983 3.14528C3.10565 3.13194 3.10808 3.11739 3.10692 3.10289C3.10576 3.08838 3.10104 3.07438 3.09317 3.06214C3.0853 3.0499 3.07452 3.0398 3.06181 3.03272C3.0491 3.02565 3.03486 3.02183 3.02031 3.02159C3.02792 3.04755 3.02792 3.07515 3.02031 3.10111C2.98977 3.0891 2.95666 3.085 2.92412 3.08922C2.89158 3.09344 2.86065 3.10584 2.83419 3.12524C2.80772 3.14465 2.78659 3.17044 2.77279 3.20021C2.75898 3.22998 2.75293 3.26277 2.7552 3.29551C2.7538 3.33941 2.76267 3.38303 2.78107 3.42292C2.79946 3.46281 2.82688 3.49787 2.86118 3.52531C2.89548 3.55276 2.93572 3.57184 2.97867 3.58103C3.02163 3.59022 3.06612 3.58928 3.10865 3.57827C3.08343 3.59275 3.06218 3.61321 3.04676 3.63787C3.03135 3.66253 3.02227 3.69061 3.02031 3.71963H3.10865C3.06728 3.77252 3.04546 3.83808 3.04682 3.90521C3.04682 3.90521 3.12634 3.84336 3.17936 3.90521C3.15969 3.95456 3.15201 4.00786 3.15695 4.06075C3.16188 4.11364 3.17929 4.16459 3.20775 4.20944C3.23621 4.25429 3.2749 4.29175 3.32066 4.31874C3.36641 4.34573 3.41792 4.36147 3.47094 4.36469C3.37926 4.26571 3.32599 4.13721 3.32074 4.0024C3.32074 3.60477 3.43561 3.53407 3.43561 3.25131C3.43357 3.18683 3.41654 3.12372 3.38586 3.06697C3.35519 3.01022 3.3117 2.9614 3.25888 2.92437C3.29127 2.91862 3.32211 2.90624 3.34948 2.888C3.37686 2.86975 3.40016 2.84603 3.41792 2.81834C3.22755 2.76238 3.0251 2.76238 2.83473 2.81834C2.77136 2.82726 2.71077 2.8501 2.65729 2.88524C2.60381 2.92039 2.55881 2.96696 2.52548 3.02159C2.49035 3.09934 2.47217 3.18368 2.47217 3.269C2.47217 3.35432 2.49035 3.43866 2.52548 3.51641L3.29423 5.14228C3.32952 5.2137 3.34767 5.29238 3.34725 5.37204C3.34495 5.44783 3.31321 5.51974 3.25877 5.57253C3.20433 5.62532 3.13146 5.65481 3.05563 5.65478C2.99337 5.65537 2.93304 5.6333 2.88588 5.59265C2.83872 5.55199 2.80799 5.49554 2.7994 5.43387C2.7994 5.35434 2.84358 5.31018 2.90543 5.31018C2.96729 5.31018 3.03797 5.43387 3.01146 5.51339C3.05191 5.50309 3.08741 5.47883 3.11167 5.44487C3.13593 5.41091 3.14738 5.36944 3.144 5.32784C3.19923 5.3194 3.2495 5.29113 3.28539 5.24832C3.26988 5.22473 3.24896 5.2052 3.22436 5.19136C3.19976 5.17753 3.17221 5.1698 3.144 5.16879C3.144 5.05392 3.09099 5.0009 3.01146 4.97439C2.93194 4.94788 3.01147 5.15995 2.90543 5.15995C2.86145 5.15349 2.81653 5.1582 2.77484 5.17365C2.73314 5.18909 2.696 5.21476 2.66684 5.24832C2.66684 5.15112 2.66684 4.78884 2.66684 4.78884C2.66684 4.64746 2.8524 4.65628 2.97611 4.69163C2.96896 4.65309 2.95387 4.61648 2.93181 4.58408C2.90975 4.55169 2.8812 4.52423 2.84797 4.50346C2.81473 4.48268 2.77754 4.46905 2.73876 4.46341C2.69997 4.45778 2.66044 4.46026 2.62267 4.47072C2.6559 4.45765 2.68409 4.43433 2.70316 4.40414C2.72223 4.37395 2.73117 4.33845 2.7287 4.30283C2.72409 4.24016 2.7059 4.17924 2.67538 4.12431C2.64487 4.06938 2.60276 4.02176 2.55199 3.98474L2.47244 5.26598Z" fill="#F5C832"/>
<path d="M2.54864 11.3271C2.54636 11.3979 2.53013 11.4676 2.50091 11.5321C2.4717 11.5966 2.43005 11.6547 2.37835 11.7031C2.32665 11.7516 2.26592 11.7893 2.19962 11.8142C2.13332 11.8392 2.06275 11.8508 1.99196 11.8484C1.92773 11.8561 1.86262 11.8498 1.80104 11.83C1.73945 11.8103 1.68284 11.7775 1.63506 11.7339C1.58728 11.6903 1.54945 11.6369 1.52412 11.5774C1.49879 11.5179 1.48656 11.4536 1.48828 11.389C1.48417 11.2568 1.51464 11.1258 1.57665 11.009L2.33658 9.44498C2.35146 9.37805 2.35146 9.30866 2.33658 9.24173C2.33658 9.16908 2.3077 9.09943 2.25633 9.04806C2.20496 8.99669 2.13528 8.96781 2.06263 8.96781C1.98998 8.96781 1.92033 8.99669 1.86896 9.04806C1.81759 9.09943 1.78871 9.16908 1.78871 9.24173C1.78871 9.41846 1.87709 9.49799 1.96545 9.49799C2.05381 9.49799 2.12449 9.45383 2.12449 9.3743C2.12449 9.29477 2.12449 9.29478 2.06263 9.29478C2.00078 9.29478 1.99196 9.42731 1.99196 9.42731C1.97973 9.42332 1.9684 9.41695 1.95865 9.40855C1.94891 9.40015 1.94095 9.38988 1.93519 9.37837C1.92944 9.36686 1.92601 9.35434 1.92513 9.34151C1.92426 9.32867 1.92595 9.31577 1.9301 9.30359C1.89263 9.29742 1.85838 9.27873 1.83291 9.25058C1.84839 9.22896 1.86814 9.21076 1.89094 9.19708C1.91374 9.1834 1.93909 9.17454 1.96545 9.17106C1.95981 9.15838 1.95723 9.14454 1.95792 9.13069C1.95862 9.11683 1.96258 9.10334 1.96947 9.09129C1.97635 9.07924 1.98598 9.06899 1.99756 9.06136C2.00915 9.05372 2.02234 9.04891 2.03613 9.04733C2.02852 9.0733 2.02852 9.10092 2.03613 9.12688C2.06667 9.11487 2.09977 9.11077 2.13231 9.11499C2.16486 9.11921 2.19578 9.13161 2.22225 9.15102C2.24871 9.17043 2.26984 9.19621 2.28365 9.22599C2.29746 9.25576 2.30351 9.28855 2.30123 9.32128C2.30407 9.36592 2.29627 9.41057 2.2785 9.45161C2.26072 9.49265 2.23347 9.52888 2.19897 9.55735C2.16448 9.58581 2.12372 9.60567 2.08005 9.61532C2.03639 9.62497 1.99106 9.62414 1.94779 9.61287C1.97415 9.62595 1.99636 9.6461 2.01196 9.67106C2.02757 9.69602 2.03592 9.72482 2.03613 9.75425H1.94779C1.98915 9.80714 2.01098 9.87268 2.00962 9.93981C2.00962 9.93981 1.92128 9.88679 1.86826 9.93981C1.88793 9.98915 1.89561 10.0425 1.89067 10.0953C1.88573 10.1482 1.8683 10.1992 1.83984 10.244C1.81138 10.2889 1.77269 10.3264 1.72693 10.3534C1.68118 10.3803 1.62967 10.3961 1.57665 10.3993C1.66971 10.3012 1.72323 10.1722 1.72688 10.037C1.72688 9.63939 1.612 9.56869 1.612 9.28593C1.61334 9.22131 1.63008 9.15794 1.66081 9.10108C1.69155 9.04422 1.73538 8.99551 1.78871 8.95899C1.75557 8.95222 1.72426 8.93846 1.69684 8.91865C1.66942 8.89885 1.64652 8.87345 1.62967 8.84412C1.82055 8.79187 2.02198 8.79187 2.21286 8.84412C2.27604 8.85362 2.33642 8.87672 2.38981 8.9118C2.44321 8.94689 2.48835 8.99311 2.52214 9.04733C2.55568 9.12551 2.57297 9.20971 2.57297 9.29478C2.57297 9.37984 2.55568 9.46402 2.52214 9.54219C2.4161 9.7631 1.91244 10.8323 1.75339 11.1681C1.71977 11.2401 1.70171 11.3183 1.70037 11.3978C1.70151 11.4349 1.70996 11.4715 1.72523 11.5054C1.74051 11.5392 1.76231 11.5697 1.78939 11.5952C1.81647 11.6206 1.84831 11.6405 1.88307 11.6536C1.91782 11.6667 1.95482 11.6729 1.99196 11.6717C2.05473 11.6743 2.11614 11.6529 2.16373 11.6119C2.21132 11.5709 2.24154 11.5133 2.24821 11.4508C2.24821 11.3713 2.24822 11.3271 2.14218 11.3271C2.03615 11.3271 2.00962 11.4508 2.03613 11.5303C1.99818 11.517 1.96562 11.4917 1.94331 11.4582C1.921 11.4247 1.91015 11.3849 1.91243 11.3448C1.85693 11.3371 1.80639 11.3087 1.77105 11.2652C1.78655 11.2417 1.80748 11.2222 1.83207 11.2083C1.85667 11.1945 1.88423 11.1867 1.91243 11.1857C1.91243 11.062 1.96544 11.009 2.03613 10.9825C2.10682 10.956 2.03615 11.1681 2.14218 11.1681C2.18617 11.1616 2.23106 11.1663 2.27275 11.1817C2.31445 11.1972 2.35159 11.2228 2.38075 11.2564C2.38075 11.1592 2.38075 10.7969 2.38075 10.7969C2.38075 10.6555 2.19519 10.6644 2.07148 10.6997C2.11566 10.5407 2.21286 10.4612 2.43377 10.4788C2.40054 10.4658 2.37234 10.4424 2.35328 10.4122C2.33421 10.382 2.32526 10.3466 2.32774 10.3109C2.33346 10.2485 2.35213 10.188 2.38256 10.1333C2.41299 10.0785 2.45449 10.0306 2.50445 9.99282L2.54864 11.3271Z" fill="#F5C832"/>
<path d="M2.47217 11.3278C2.47445 11.3986 2.49068 11.4682 2.5199 11.5328C2.54912 11.5973 2.59076 11.6554 2.64246 11.7038C2.69416 11.7522 2.75492 11.79 2.82122 11.8149C2.88752 11.8399 2.95806 11.8515 3.02886 11.8491C3.09308 11.8568 3.15822 11.8505 3.2198 11.8307C3.28139 11.8109 3.33797 11.7781 3.38575 11.7345C3.43354 11.6909 3.47139 11.6376 3.49672 11.5781C3.52204 11.5186 3.53425 11.4543 3.53253 11.3896C3.53394 11.2567 3.50043 11.1256 3.43534 11.0097L2.67541 9.44565C2.66135 9.37864 2.66135 9.30942 2.67541 9.24241C2.67991 9.17052 2.71169 9.10307 2.76424 9.05381C2.81679 9.00454 2.88615 8.97719 2.95818 8.97733C3.02867 8.9794 3.09583 9.00773 3.14651 9.05677C3.19719 9.10582 3.22772 9.17202 3.2321 9.24241C3.2321 9.41913 3.14373 9.49867 3.05536 9.49867C2.967 9.49867 2.89632 9.4545 2.89632 9.37497C2.89632 9.29545 2.89633 9.29545 2.96702 9.29545C3.03771 9.29545 3.0377 9.42799 3.0377 9.42799C3.05073 9.42495 3.06298 9.41926 3.0737 9.41127C3.08443 9.40328 3.09339 9.39317 3.10002 9.38155C3.10666 9.36994 3.11082 9.35707 3.11226 9.34377C3.1137 9.33048 3.11238 9.31703 3.10838 9.30427C3.14316 9.29757 3.17447 9.27879 3.19675 9.25125C3.17321 9.2252 3.14245 9.20674 3.10838 9.19824C3.10838 9.12755 3.10838 9.09222 3.02886 9.07454C3.036 9.10057 3.036 9.12804 3.02886 9.15407C2.99832 9.14206 2.96524 9.13795 2.9327 9.14218C2.90015 9.1464 2.8692 9.1588 2.84274 9.1782C2.81627 9.19761 2.79517 9.2234 2.78136 9.25317C2.76755 9.28294 2.7615 9.31573 2.76378 9.34847C2.76094 9.3931 2.76871 9.43776 2.78649 9.47879C2.80426 9.51983 2.83154 9.55607 2.86604 9.58453C2.90053 9.61299 2.94129 9.63285 2.98496 9.64251C3.02862 9.65216 3.07395 9.65132 3.11723 9.64005C3.09146 9.65388 3.06976 9.6742 3.05426 9.699C3.03876 9.7238 3.03 9.75221 3.02886 9.78144H3.11723C3.07649 9.83466 3.05471 9.89997 3.05536 9.96699C3.05536 9.96699 3.13491 9.91397 3.18793 9.96699C3.16826 10.0163 3.16058 10.0696 3.16552 10.1225C3.17046 10.1754 3.18786 10.2264 3.21633 10.2712C3.24479 10.3161 3.28348 10.3536 3.32923 10.3805C3.37499 10.4075 3.42649 10.4233 3.47952 10.4265C3.38783 10.3275 3.33454 10.199 3.32929 10.0642C3.32929 9.66657 3.44416 9.59587 3.44416 9.31311C3.44212 9.24864 3.42509 9.18552 3.39441 9.12877C3.36373 9.07202 3.32028 9.0232 3.26745 8.98618C3.30102 8.98057 3.33284 8.9673 3.36043 8.94737C3.38802 8.92745 3.41063 8.90141 3.4265 8.8713C3.23567 8.81862 3.03413 8.81862 2.8433 8.8713C2.77994 8.88022 2.71934 8.90306 2.66587 8.9382C2.61239 8.97335 2.56736 9.01992 2.53403 9.07454C2.4989 9.1523 2.48074 9.23664 2.48074 9.32196C2.48074 9.40728 2.4989 9.49162 2.53403 9.56937L3.30278 11.1952C3.33807 11.2667 3.35622 11.3453 3.35579 11.425C3.35465 11.4621 3.34621 11.4987 3.33093 11.5325C3.31566 11.5664 3.29386 11.5969 3.26678 11.6224C3.2397 11.6478 3.20786 11.6677 3.1731 11.6808C3.13834 11.6939 3.10135 11.7001 3.06421 11.6989C3.00143 11.7015 2.94003 11.6801 2.89244 11.6391C2.84485 11.5981 2.81463 11.5405 2.80795 11.478C2.80536 11.4627 2.80617 11.447 2.81032 11.432C2.81448 11.417 2.82189 11.4031 2.832 11.3913C2.84212 11.3795 2.8547 11.3701 2.86887 11.3637C2.88304 11.3573 2.89844 11.3541 2.91398 11.3543C3.05536 11.3543 3.04655 11.478 3.02004 11.5575C2.99353 11.6371 3.17025 11.4515 3.15258 11.372C3.20808 11.3643 3.25862 11.3359 3.29396 11.2924C3.27846 11.2688 3.25753 11.2493 3.23294 11.2355C3.20834 11.2217 3.18078 11.2139 3.15258 11.2129C3.15258 11.0892 3.09957 11.0362 3.02004 11.0097C2.94051 10.9832 3.02002 11.1952 2.91398 11.1952C2.86999 11.1888 2.8251 11.1935 2.78341 11.2089C2.74172 11.2244 2.70458 11.2501 2.67541 11.2836C2.67541 11.1864 2.67541 10.8241 2.67541 10.8241C2.67541 10.6827 2.86098 10.6916 2.98469 10.7269C2.94051 10.5679 2.84331 10.4883 2.63124 10.506C2.66447 10.4929 2.69267 10.4696 2.71174 10.4394C2.7308 10.4092 2.73975 10.3737 2.73727 10.3381C2.73155 10.2757 2.71288 10.2152 2.68245 10.1604C2.65202 10.1057 2.61049 10.0578 2.56054 10.02L2.47217 11.3278Z" fill="#F5C832"/>
<path d="M2.50992 1.52804C2.50992 1.52804 2.66898 1.38665 2.73083 1.45734C2.79269 1.52803 2.45691 2.12889 2.45691 2.34097C2.45691 2.55304 2.66899 2.74744 2.93408 2.79162C3.0897 2.80906 3.24678 2.80906 3.4024 2.79162C3.38637 2.75933 3.36085 2.73271 3.32926 2.71534C3.29768 2.69796 3.26151 2.69068 3.22566 2.69444C3.28759 2.66081 3.3392 2.61098 3.375 2.55028C3.4108 2.48958 3.42944 2.42028 3.4289 2.34981C3.4289 2.07589 3.31403 1.96101 3.31403 1.65174C3.32973 1.51278 3.37818 1.37952 3.45541 1.26294C3.40306 1.26384 3.35168 1.27731 3.30561 1.3022C3.25955 1.3271 3.22016 1.3627 3.19071 1.40599C3.16127 1.44929 3.14265 1.49903 3.13643 1.55102C3.13021 1.60301 3.13658 1.65573 3.15498 1.70475C3.13861 1.71327 3.12042 1.71772 3.10197 1.71772C3.08351 1.71772 3.06533 1.71327 3.04895 1.70475C3.04354 1.73288 3.04471 1.76189 3.05238 1.78948C3.06004 1.81707 3.07398 1.84252 3.09312 1.86383C3.09312 1.86383 3.04011 1.86383 2.98709 1.86383C2.99438 1.89677 3.00832 1.92786 3.02808 1.95521C3.04783 1.98257 3.07299 2.00559 3.10197 2.02287C3.06027 2.00865 3.01576 2.00468 2.97221 2.01133C2.92865 2.01798 2.88733 2.03504 2.85177 2.06106C2.81622 2.08707 2.78748 2.12128 2.76796 2.16078C2.74845 2.20028 2.73874 2.2439 2.73968 2.28795C2.73465 2.33818 2.74936 2.38841 2.78069 2.42798C2.81202 2.46756 2.85753 2.49341 2.90757 2.50004C2.93939 2.50867 2.97293 2.50867 3.00475 2.50004C3.01279 2.51812 3.01694 2.53769 3.01694 2.55748C3.01694 2.57726 3.01279 2.59681 3.00475 2.61489C3.06661 2.61489 3.11079 2.56187 3.08428 2.48235C3.1054 2.48298 3.12644 2.47942 3.14616 2.47183C3.16589 2.46425 3.1839 2.4528 3.19915 2.43818C3.18681 2.42172 3.1708 2.40836 3.15239 2.39916C3.13399 2.38996 3.1137 2.38516 3.09312 2.38516C3.09312 2.31447 3.09311 2.27912 3.03126 2.24378C2.96941 2.20843 3.03126 2.38516 2.97825 2.38516C2.92523 2.38516 2.89872 2.38515 2.89872 2.31446C2.89872 2.24377 2.9429 2.19076 3.05777 2.19076C3.17264 2.19076 3.25217 2.26145 3.25217 2.43818C3.25217 2.6149 3.12847 2.67675 2.96058 2.67675C2.92759 2.68189 2.89387 2.67977 2.86178 2.67055C2.82969 2.66132 2.79999 2.64522 2.77476 2.62335C2.74953 2.60149 2.72936 2.5744 2.71568 2.54394C2.70199 2.51348 2.69508 2.48041 2.69548 2.44702C2.69548 2.23495 2.99594 1.76663 2.99594 1.5634C2.99484 1.53243 2.98747 1.502 2.97431 1.47395C2.96115 1.4459 2.94244 1.42078 2.91932 1.40014C2.89621 1.37951 2.86919 1.36378 2.83983 1.35387C2.81047 1.34396 2.77941 1.34009 2.74852 1.34249C2.63489 1.35729 2.53087 1.41401 2.45691 1.50154L2.50992 1.52804Z" fill="#F5C832"/>
<path d="M2.51648 1.52804C2.51648 1.52804 2.34859 1.38665 2.29557 1.45734C2.24255 1.52803 2.56949 2.12889 2.56949 2.34097C2.56949 2.55304 2.35744 2.74744 2.09235 2.79162C1.93672 2.80877 1.77964 2.80877 1.624 2.79162C1.64155 2.75862 1.66866 2.73168 1.70177 2.71434C1.73489 2.69699 1.77246 2.69007 1.80959 2.69444C1.74766 2.66081 1.69604 2.61098 1.66025 2.55028C1.62445 2.48958 1.60581 2.42028 1.60634 2.34981C1.60634 2.07589 1.72122 1.96101 1.72122 1.65174C1.70552 1.51278 1.65706 1.37952 1.57983 1.26294C1.63223 1.26439 1.68356 1.27811 1.72971 1.30296C1.77587 1.32781 1.81558 1.36311 1.84564 1.40605C1.8757 1.44899 1.89529 1.49836 1.90283 1.55024C1.91038 1.60211 1.90568 1.65502 1.88911 1.70475C1.90548 1.71327 1.92367 1.71772 1.94212 1.71772C1.96058 1.71772 1.97877 1.71327 1.99514 1.70475C1.99873 1.73354 1.99585 1.76277 1.98667 1.79029C1.9775 1.81781 1.96227 1.84295 1.94212 1.86383C1.94212 1.86383 1.99514 1.86383 2.04816 1.86383C2.04194 1.89717 2.0284 1.92871 2.00854 1.95621C1.98868 1.98371 1.96298 2.00649 1.93328 2.02287C1.97498 2.00865 2.01949 2.00468 2.06304 2.01133C2.10659 2.01798 2.14792 2.03504 2.18347 2.06106C2.21903 2.08707 2.24777 2.12128 2.26728 2.16078C2.2868 2.20028 2.29651 2.2439 2.29557 2.28795C2.298 2.3135 2.29536 2.33929 2.28778 2.36381C2.28019 2.38832 2.26783 2.4111 2.2514 2.43082C2.23497 2.45053 2.21479 2.4668 2.19205 2.47868C2.1693 2.49056 2.14443 2.49782 2.11886 2.50004C2.08988 2.50752 2.05947 2.50752 2.03049 2.50004C2.02245 2.51812 2.0183 2.53769 2.0183 2.55748C2.0183 2.57726 2.02245 2.59681 2.03049 2.61489C1.96864 2.61489 1.92444 2.56187 1.95979 2.48235C1.92017 2.48134 1.88236 2.4656 1.85376 2.43818C1.86697 2.42047 1.88439 2.40634 1.90445 2.39708C1.92451 2.38782 1.94658 2.38372 1.96863 2.38516C1.96863 2.31447 1.96864 2.27912 2.03049 2.24378C2.09235 2.20843 2.03049 2.38516 2.08351 2.38516C2.13653 2.38516 2.16303 2.38515 2.16303 2.31446C2.16303 2.24377 2.11886 2.19076 2.00398 2.19076C1.88911 2.19076 1.80959 2.26145 1.80959 2.43818C1.80959 2.6149 1.93328 2.67675 2.10117 2.67675C2.13416 2.68189 2.16788 2.67977 2.19997 2.67055C2.23207 2.66132 2.26176 2.64522 2.28699 2.62335C2.31223 2.60149 2.33239 2.5744 2.34608 2.54394C2.35977 2.51348 2.36667 2.48041 2.36627 2.44702C2.36627 2.23495 2.06582 1.76663 2.06582 1.5634C2.06692 1.53243 2.07428 1.502 2.08744 1.47395C2.10061 1.4459 2.11932 1.42078 2.14243 1.40014C2.16554 1.37951 2.19257 1.36378 2.22192 1.35387C2.25128 1.34396 2.28237 1.34009 2.31326 1.34249C2.42716 1.35645 2.53144 1.41333 2.60484 1.50154L2.51648 1.52804Z" fill="#F5C832"/>
<path d="M2.18917 11.2917C2.18917 11.2917 2.12653 11.2917 2.08178 11.2917C2.03703 11.2917 2.00122 11.2918 2.01017 11.3544C2.01912 11.417 2.07284 11.3544 2.11759 11.3544C2.16234 11.3544 2.19812 11.3544 2.18917 11.2917Z" fill="#4EAEC4"/>
<path d="M2.04321 11.3908C2.04321 11.3908 2.04322 11.3282 2.13271 11.3103H2.22222C2.22222 11.3103 2.22221 11.3819 2.13271 11.3908H2.04321Z" fill="#4EAEC4"/>
<path d="M16.0144 11.9192C14.9909 11.9196 14.004 11.5388 13.246 10.8511C12.488 10.1633 12.0133 9.21791 11.9144 8.19918C11.9144 8.19918 11.8261 8.19919 11.8084 8.24337C11.7907 8.28755 11.8614 9.04746 11.8084 9.00328C11.7554 8.9591 11.3312 7.7927 11.2517 7.91641C11.1722 8.04012 11.7289 9.3744 11.6935 9.41858C11.6582 9.46277 10.9159 8.155 10.8629 8.26104C10.6597 8.65867 11.6847 9.92226 11.6758 9.97527C11.667 10.0283 10.8982 9.29487 10.7922 9.38323C10.6862 9.47159 11.6051 10.3464 11.6758 10.3994C11.7465 10.4524 11.1545 10.099 11.1368 10.258C11.1192 10.4171 11.4638 10.6645 11.667 10.7794C11.8702 10.8942 11.9409 10.8589 11.9939 10.9649C12.047 11.071 11.6051 10.9207 11.6228 11.0091C11.6405 11.0975 12.0911 11.1593 12.1618 11.2389C12.2325 11.3184 11.8614 11.2389 11.8791 11.3272C11.8967 11.4156 12.2855 11.4686 12.2855 11.5128C12.2855 11.557 12.0469 11.5128 12.0646 11.6277C12.0823 11.7425 12.4534 11.6983 12.5418 11.7602C12.6302 11.822 12.2148 11.7602 12.5418 11.9281C12.9242 12.1367 13.335 12.2885 13.7612 12.3787C14.2737 12.4848 14.5388 12.3787 14.5565 12.3345C14.5741 12.2904 14.309 12.3345 13.9468 12.3345C13.5779 12.2481 13.2236 12.1082 12.8952 11.9192C12.8334 11.9192 13.0896 11.8132 13.0366 11.7425C12.9836 11.6718 12.7804 11.7425 12.7008 11.6542C12.6213 11.5658 12.798 11.5923 12.798 11.5481C12.798 11.5039 12.5153 11.4421 12.4623 11.3714C12.4092 11.3007 12.586 11.3184 12.5948 11.2654C12.6036 11.2123 12.4181 11.1682 12.4092 11.124C12.4004 11.0798 12.6125 11.124 12.5153 11.0268C12.4181 10.9296 12.1088 10.8942 12.0558 10.7882C12.0028 10.6822 12.2767 10.7882 12.206 10.7087C12.1353 10.6291 11.8879 10.5231 11.8261 10.3729C11.7642 10.2227 12.0205 10.3729 12.0205 10.2934C12.0205 10.2138 11.8879 10.2934 11.8437 9.94877C11.8437 9.85157 12.0205 9.94877 12.0205 9.94877V9.89575C12.2186 10.0224 12.3947 10.1806 12.5418 10.3641C12.8334 10.7087 12.9217 11.0268 13.1957 11.2477C13.3282 11.3626 13.337 11.2477 13.6375 11.3891C13.9012 11.565 14.1495 11.7631 14.3797 11.9811C14.676 11.9889 14.9714 12.0184 15.2633 12.0695C15.5903 12.1402 15.661 12.308 15.661 12.308C15.7646 12.2474 15.8548 12.1662 15.9261 12.0695C15.9261 12.0164 15.9968 12.0695 16.0056 12.0695C16.0145 12.0695 16.0056 11.9988 16.0056 11.9988L16.0144 11.9192Z" fill="#F5C832"/>
<path d="M14.1806 12.4415C14.0483 12.4526 13.9152 12.4526 13.7829 12.4415C13.3575 12.3488 12.947 12.1971 12.5635 11.9908C12.4575 11.9378 12.4221 11.9113 12.431 11.8759C12.4398 11.8406 12.484 11.8759 12.5282 11.8318H12.5724C12.499 11.8225 12.4248 11.8225 12.3515 11.8318C12.2101 11.8318 12.0952 11.8317 12.0864 11.7345C12.0864 11.7345 12.1747 11.6904 12.2189 11.6815H12.2896H12.1659C12.051 11.6815 11.9008 11.6197 11.8831 11.5313C11.8655 11.443 11.9627 11.4783 12.051 11.4783C12.1394 11.4783 12.1747 11.4783 12.1836 11.4783C12.1924 11.4783 12.0687 11.4341 11.9892 11.4165C11.9096 11.3988 11.6534 11.3546 11.6446 11.2309C11.6357 11.1072 11.7771 11.169 11.8831 11.1867H11.9892C11.9892 11.1337 11.9892 11.1249 11.9008 11.1072C11.8302 11.0848 11.7621 11.0552 11.6976 11.0188C11.512 10.9128 11.1409 10.63 11.1586 10.4798C11.1584 10.472 11.16 10.4643 11.1632 10.4572C11.1664 10.4502 11.1712 10.4439 11.1771 10.4388C11.183 10.4337 11.1899 10.4301 11.1974 10.428C11.2049 10.4259 11.2128 10.4255 11.2204 10.4268C11.3483 10.453 11.4709 10.5008 11.5827 10.5682L11.7329 10.6389L11.6092 10.5416C11.1674 10.1617 10.7256 9.75523 10.8405 9.58734C10.9288 9.58734 11.0614 9.68453 11.2646 9.87893C11.3838 10.0043 11.5207 10.1115 11.6711 10.197C11.6392 10.124 11.5976 10.0557 11.5474 9.9938C11.2734 9.59617 10.7079 8.78323 10.867 8.47396C10.9377 8.47396 11.0172 8.58885 11.2116 8.93347C11.406 9.27808 11.618 9.63151 11.6887 9.63151C11.6584 9.49868 11.617 9.36863 11.565 9.24271C11.3842 8.8977 11.2788 8.51821 11.2558 8.12936C11.3441 8.12936 11.4855 8.38562 11.7152 8.93347L11.8301 9.19854C11.826 9.13381 11.826 9.06888 11.8301 9.00414C11.8171 8.82471 11.8171 8.64458 11.8301 8.46514C11.83 8.45507 11.8321 8.44509 11.8362 8.43589C11.8403 8.42668 11.8463 8.41845 11.8539 8.41175C11.8614 8.40506 11.8702 8.40004 11.8799 8.39705C11.8895 8.39407 11.8996 8.39318 11.9096 8.39444H11.9538C12.0486 9.41083 12.52 10.3551 13.2753 11.0417C14.0306 11.7284 15.0154 12.1079 16.0362 12.1057C16.0503 12.1093 16.063 12.1171 16.0725 12.1282C16.082 12.1393 16.0878 12.153 16.0892 12.1675C16.0086 12.2758 15.9062 12.3661 15.7888 12.4326C15.7454 12.3641 15.6871 12.3063 15.6182 12.2635C15.5494 12.2206 15.4718 12.1939 15.3911 12.1852C15.1705 12.1365 14.9455 12.1099 14.7196 12.1057H14.6135C14.5694 12.1057 14.5428 12.1057 14.5252 12.1057L14.3485 11.9555C14.1772 11.7937 13.9908 11.6487 13.7918 11.5225C13.718 11.4653 13.6287 11.4314 13.5355 11.4253H13.4737C13.4312 11.4256 13.3901 11.4098 13.3588 11.3811C13.2157 11.2458 13.0962 11.0875 13.0053 10.9128C12.9188 10.7567 12.8182 10.6089 12.7049 10.471C12.5577 10.2876 12.3816 10.1294 12.1836 10.0026V10.0468C12.1836 10.0468 12.104 10.0468 12.051 10.0468C12.051 10.2501 12.1305 10.2942 12.1747 10.3296C12.1917 10.3369 12.206 10.3494 12.2155 10.3652C12.225 10.3811 12.2293 10.3995 12.2277 10.418C12.2277 10.4621 12.1747 10.4621 12.1482 10.4621H12.0334C12.0868 10.5766 12.177 10.67 12.2896 10.7272C12.3324 10.7539 12.3711 10.7866 12.4045 10.8244C12.4045 10.8244 12.4045 10.8244 12.3515 10.8244H12.2631C12.2631 10.9128 12.4221 10.9746 12.537 11.0188L12.6872 11.0807C12.6872 11.0807 12.6872 11.0807 12.6872 11.1248C12.6872 11.169 12.6872 11.1248 12.6165 11.1248H12.5635C12.5924 11.1505 12.6252 11.1714 12.6607 11.1867C12.7226 11.1867 12.7579 11.2397 12.7579 11.2662C12.7579 11.2927 12.7137 11.3104 12.6784 11.3192H12.6165C12.6737 11.3738 12.7436 11.4132 12.8198 11.4341C12.917 11.4341 12.9612 11.4871 12.9612 11.5136C12.9612 11.5401 12.9612 11.5136 12.8993 11.5667C12.8993 11.6285 13.0142 11.6285 13.0937 11.6285C13.1732 11.6285 13.2174 11.6285 13.2527 11.6285C13.2527 11.6285 13.1997 11.6992 13.1556 11.7257L13.1025 11.7699C13.4317 11.9553 13.7858 12.0922 14.1541 12.1764C14.2804 12.1893 14.4077 12.1893 14.534 12.1764H14.7284H14.7814C14.7814 12.2294 14.6224 12.3001 14.3573 12.3001L14.1806 12.4415ZM11.7506 10.9835C11.6976 10.9835 11.6887 10.9835 11.6799 10.9835C11.6711 10.9835 11.8655 11.116 11.998 11.1425C12.1306 11.169 12.1836 11.1425 12.2101 11.2044C12.2101 11.2044 12.1394 11.2044 12.051 11.2044C11.9627 11.2044 11.9273 11.2044 11.9185 11.2044C11.9097 11.2044 12.0775 11.3016 12.1747 11.3281C12.2719 11.3546 12.3249 11.3281 12.3249 11.3988C12.3249 11.4695 12.2808 11.4429 12.2189 11.4518C12.181 11.4439 12.1419 11.4439 12.104 11.4518C12.104 11.5136 12.2366 11.5313 12.3338 11.5401C12.4128 11.5452 12.4903 11.5631 12.5635 11.5932C12.5635 11.5932 12.5635 11.5932 12.4928 11.5932H12.4221C12.4221 11.5932 12.4221 11.5932 12.537 11.6727C12.9195 11.8791 13.3304 12.028 13.7564 12.1145C13.884 12.1436 14.0144 12.1584 14.1452 12.1587C14.28 12.1743 14.4162 12.1465 14.534 12.0792H14.4545H14.3396C14.2132 12.0898 14.0861 12.0898 13.9597 12.0792C13.5877 11.9937 13.2304 11.8537 12.8993 11.6639C12.8993 11.6109 12.8993 11.5932 12.9523 11.5667C12.987 11.5505 13.0173 11.5263 13.0407 11.496C13.0407 11.496 12.97 11.496 12.9081 11.496C12.8704 11.5015 12.8319 11.4989 12.7953 11.4882C12.7587 11.4775 12.7249 11.4591 12.6961 11.4341V11.3899C12.6961 11.3899 12.6961 11.3899 12.7579 11.3369L12.6342 11.2839C12.5549 11.2694 12.4813 11.2326 12.4221 11.1779V11.1337C12.4221 11.1337 12.4663 11.1337 12.5017 11.0895C12.537 11.0453 12.5547 11.0895 12.5547 11.0895L12.4752 11.0453C12.4133 11.0453 12.3691 10.9923 12.3603 10.957C12.3515 10.9216 12.4045 10.904 12.4486 10.8951H12.4928L12.3249 10.8244C12.1924 10.7802 12.0422 10.7184 12.0068 10.6389C12.0068 10.6389 12.0687 10.6389 12.1129 10.6389C12.1129 10.6389 12.0687 10.577 12.0157 10.5416C11.9627 10.5063 11.7859 10.3914 11.7506 10.2854C11.7467 10.2771 11.7446 10.2681 11.7446 10.2589C11.7446 10.2497 11.7467 10.2407 11.7506 10.2324C11.7631 10.2268 11.7766 10.2239 11.7903 10.2239C11.8041 10.2239 11.8176 10.2268 11.8301 10.2324H11.9008C11.9008 10.2324 11.9008 10.2324 11.945 10.2324C11.9892 10.2324 11.945 10.2324 11.945 10.1705C11.9021 10.1367 11.8671 10.0938 11.8427 10.045C11.8182 9.99608 11.8049 9.9424 11.8036 9.88777C11.7982 9.87355 11.7982 9.85782 11.8036 9.8436C11.8036 9.79942 11.9892 9.8436 11.9892 9.8436V9.7994C12.2095 9.90873 12.4004 10.0693 12.5459 10.2677C12.6614 10.4059 12.7648 10.5537 12.8551 10.7095C12.9425 10.8815 13.0591 11.037 13.1997 11.169C13.231 11.1813 13.2657 11.1813 13.2969 11.169H13.456C13.5585 11.1762 13.6568 11.2131 13.7388 11.2751C13.9375 11.4016 14.1239 11.5466 14.2954 11.708L14.481 11.8671C14.481 11.8671 14.5252 11.8671 14.5429 11.8671H14.6577C14.8867 11.8699 15.1147 11.8966 15.3381 11.9466C15.6739 12.0173 15.7446 12.1852 15.7446 12.194C15.7446 12.2029 15.9036 12.0615 15.9832 11.9555C15.9901 11.9523 15.9976 11.9506 16.0053 11.9506C16.0129 11.9506 16.0204 11.9523 16.0273 11.9555V11.9024C15.0017 11.907 14.0115 11.5279 13.2512 10.8396C12.4909 10.1512 12.0155 9.20339 11.9185 8.18238C11.9185 8.18238 11.9185 8.18238 11.8743 8.18238C11.8615 8.35592 11.8615 8.53017 11.8743 8.70371C11.8743 8.90695 11.8743 8.94229 11.8743 8.95113C11.8743 8.95996 11.7859 8.82742 11.7152 8.6507C11.6156 8.37318 11.482 8.10902 11.3176 7.86426C11.3589 8.24135 11.4634 8.60879 11.6269 8.95113C11.7594 9.29574 11.7771 9.34875 11.7594 9.35759C11.6711 9.35759 11.5032 9.07484 11.2469 8.6507C11.1639 8.48697 11.0632 8.33289 10.9465 8.19122C10.8051 8.47398 11.3618 9.28691 11.6357 9.67571C11.7506 9.85243 11.7771 9.87894 11.7683 9.89662C11.7064 9.89662 11.565 9.77291 11.3353 9.56968C11.2275 9.45133 11.1024 9.35001 10.9642 9.26922C10.8581 9.42827 11.512 9.99379 11.7241 10.1528L11.8213 10.2412C11.8213 10.2412 11.8213 10.2412 11.8213 10.2942C11.8213 10.3472 11.7241 10.2943 11.6357 10.2324C11.5285 10.1685 11.4123 10.1209 11.2911 10.091C11.2911 10.2059 11.5916 10.471 11.8125 10.5947C11.8734 10.6319 11.9387 10.6615 12.0068 10.683C12.0357 10.689 12.0631 10.7007 12.0874 10.7174C12.1116 10.734 12.1323 10.7554 12.1482 10.7802C12.1482 10.8863 12.051 10.8332 11.9803 10.8244L11.7506 10.9835Z" fill="#F5C832"/>
<path d="M17.5825 12.6089C17.4941 12.6089 17.503 12.6531 17.503 12.6531C17.5058 12.6945 17.4953 12.7356 17.473 12.7706C17.4508 12.8056 17.4179 12.8325 17.3793 12.8475C17.3262 12.8475 17.3793 12.9005 17.3351 12.9359H17.1053C16.6892 13.1402 16.2202 13.2111 15.7622 13.1391L15.5502 13.3158C15.4441 13.413 15.3734 13.4307 15.3558 13.5014C15.3381 13.5721 15.4088 13.6163 15.4971 13.6163C15.5734 13.6082 15.6464 13.5809 15.7092 13.5367C15.7165 13.5593 15.7306 13.5791 15.7496 13.5933C15.7686 13.6076 15.7915 13.6156 15.8153 13.6163C15.9133 13.626 16.0122 13.617 16.1068 13.5898C16.1791 13.6217 16.2577 13.6368 16.3366 13.6339C16.4034 13.621 16.4667 13.5938 16.5221 13.5544C16.5221 13.5544 16.5221 13.6693 16.6458 13.6693C16.7695 13.6693 16.8933 13.5456 16.8933 13.5456C16.9143 13.5691 16.9402 13.5876 16.9692 13.5999C16.9983 13.6121 17.0297 13.6177 17.0611 13.6163C17.1387 13.594 17.209 13.5513 17.2644 13.4926C17.336 13.5168 17.4137 13.5168 17.4853 13.4926C17.5654 13.4614 17.6378 13.4132 17.6974 13.3512C17.7217 13.3712 17.7502 13.3856 17.7807 13.3932C17.8113 13.4008 17.8432 13.4016 17.8741 13.3954C17.9625 13.3954 18.0155 13.2451 18.0155 13.2451C18.1378 13.2921 18.2731 13.2921 18.3954 13.2451C18.5015 13.2009 18.475 13.0242 18.475 13.0242C18.475 13.0242 19.1023 13.1126 19.0758 12.7061C19.0758 12.6619 18.0596 12.7061 17.6178 12.6001L17.5825 12.6089Z" fill="#F5C832"/>
<path d="M16.6087 13.6515C16.5755 13.6473 16.5443 13.6333 16.5191 13.6113C16.4939 13.5892 16.4759 13.5602 16.4673 13.5278C16.4233 13.5744 16.3634 13.6028 16.2994 13.6073C16.2185 13.6019 16.1384 13.587 16.0609 13.5632C15.9907 13.5929 15.916 13.6108 15.84 13.6162C15.8113 13.6178 15.7828 13.6101 15.7589 13.5941C15.735 13.5782 15.7169 13.5549 15.7074 13.5278C15.683 13.556 15.6533 13.5792 15.6199 13.5958C15.5866 13.6125 15.5502 13.6224 15.513 13.625C15.4843 13.6275 15.4554 13.624 15.428 13.6149C15.4007 13.6058 15.3755 13.5912 15.354 13.572C15.3483 13.5595 15.3455 13.5459 15.3455 13.5322C15.3455 13.5185 15.3483 13.505 15.354 13.4925C15.354 13.4483 15.407 13.4129 15.46 13.3776L15.5484 13.3069L15.7604 13.1302H16.1315C16.4689 13.1391 16.8032 13.0632 17.1035 12.9093H17.3333C17.3333 12.8651 17.3333 12.8298 17.3333 12.8209C17.3681 12.8066 17.3977 12.782 17.4182 12.7505C17.4388 12.7189 17.4492 12.6818 17.4481 12.6442C17.445 12.6372 17.4433 12.6297 17.4433 12.6221C17.4433 12.6145 17.445 12.6069 17.4481 12.6C17.4653 12.5939 17.484 12.5939 17.5012 12.6C17.8377 12.6493 18.1772 12.6759 18.5174 12.6795C18.968 12.6795 18.9945 12.6795 18.9945 12.7325C18.999 12.7723 18.995 12.8125 18.9828 12.8506C18.9707 12.8887 18.9505 12.9237 18.9238 12.9535C18.8087 13.0443 18.6636 13.0885 18.5174 13.0772H18.3848C18.4016 13.1163 18.4038 13.1602 18.3908 13.2008C18.3778 13.2414 18.3505 13.276 18.3141 13.2981C18.1874 13.337 18.052 13.337 17.9253 13.2981C17.9166 13.3318 17.9001 13.363 17.877 13.3891C17.854 13.4152 17.8251 13.4355 17.7928 13.4483C17.7585 13.453 17.7236 13.4508 17.6901 13.4417C17.6567 13.4326 17.6255 13.4168 17.5984 13.3953C17.5526 13.4642 17.4836 13.5144 17.404 13.5366C17.3286 13.5557 17.2496 13.5557 17.1742 13.5366C17.126 13.5995 17.0572 13.6433 16.9798 13.6603C16.9464 13.6602 16.9135 13.653 16.883 13.6393C16.8526 13.6256 16.8254 13.6057 16.8031 13.5808C16.7433 13.6537 16.658 13.7011 16.5645 13.7134L16.6087 13.6515ZM16.4673 13.5013C16.4673 13.5013 16.5204 13.6162 16.6087 13.6162C16.697 13.5947 16.7789 13.5523 16.8473 13.4925C16.8473 13.4925 16.9268 13.5632 17.0063 13.5632C17.0856 13.5433 17.1585 13.5038 17.2184 13.4483C17.2684 13.4525 17.3186 13.4525 17.3686 13.4483H17.4393C17.5157 13.4191 17.585 13.3739 17.6425 13.3157C17.6888 13.3427 17.7398 13.3607 17.7928 13.3688C17.8661 13.3424 17.9263 13.2885 17.9607 13.2185C17.9607 13.2185 18.1021 13.2185 18.2169 13.2185C18.2606 13.2278 18.3058 13.2278 18.3495 13.2185C18.4467 13.2185 18.4201 13.0153 18.4201 13.0153C18.4727 13.0055 18.5266 13.0055 18.5792 13.0153C18.7188 13.0291 18.8583 12.9879 18.968 12.9004C18.9915 12.8743 19.0092 12.8434 19.0199 12.8099C19.0306 12.7764 19.0339 12.741 19.0298 12.706H18.5792C18.2453 12.701 17.912 12.6774 17.5807 12.6354H17.5365C17.5422 12.6851 17.5314 12.7353 17.5059 12.7784C17.4804 12.8215 17.4415 12.855 17.3951 12.8739C17.3978 12.8885 17.3978 12.9035 17.3951 12.9181H17.1566C16.7377 13.1237 16.2654 13.1947 15.8046 13.1213L15.6102 13.2892L15.513 13.3599C15.46 13.3599 15.4335 13.4129 15.4247 13.4571C15.4215 13.4641 15.4198 13.4716 15.4198 13.4792C15.4198 13.4868 15.4215 13.4944 15.4247 13.5013C15.4587 13.5314 15.503 13.5472 15.5484 13.5455C15.622 13.5376 15.6922 13.5101 15.7516 13.4659C15.7516 13.4659 15.7516 13.5367 15.8665 13.5455C15.9359 13.5143 16.0112 13.4981 16.0874 13.4981C16.1635 13.4981 16.2388 13.5143 16.3083 13.5455C16.3811 13.5402 16.4511 13.5158 16.5115 13.4748L16.4673 13.5013Z" fill="#F5C832"/>
<path d="M16.2318 12.1757C16.3957 12.1174 16.5642 12.0731 16.7355 12.0431C17.3452 11.9194 17.5572 11.9547 17.6191 11.9194C17.9323 11.5666 18.3452 11.317 18.8032 11.2037C19.0859 10.9651 19.1743 10.6381 19.4659 10.32C19.7575 10.0019 19.9342 9.94892 19.9342 9.94892V10.0284C19.9342 10.0284 20.0933 9.91358 20.0844 10.0284C20.0756 10.1433 19.943 10.3289 19.9519 10.4261C19.9607 10.5233 20.1639 10.4261 20.1463 10.4261C20.1286 10.4261 19.9254 10.6823 19.8812 10.753C19.837 10.8237 20.0756 10.753 20.0226 10.8237C19.9695 10.8944 19.6956 11.0358 19.5896 11.1065C19.4836 11.1772 19.6603 11.1506 19.6426 11.2037C19.6249 11.2567 19.351 11.3539 19.3598 11.3892C19.3687 11.4246 19.4305 11.4422 19.3598 11.4776C19.2892 11.5129 19.0682 11.5483 19.0682 11.5925C19.0682 11.6366 19.1124 11.672 19.0682 11.7338C19.0241 11.7957 18.9269 11.7338 18.8915 11.8134C18.8562 11.8929 19.0241 11.9548 18.8915 11.9724C18.7616 12.0014 18.6385 12.0554 18.5292 12.1315C18.4077 12.1718 18.2838 12.2042 18.1581 12.2287C18.0786 12.2287 17.6456 12.2994 17.6721 12.3347C17.9684 12.3731 18.2694 12.349 18.5557 12.264C18.8197 12.2202 19.0798 12.1552 19.3333 12.0696C19.7752 11.9282 19.2185 11.9194 19.3333 11.8576C19.4482 11.7957 19.8105 11.8576 19.8193 11.7427C19.8282 11.6278 19.6073 11.672 19.6073 11.619C19.6073 11.5659 20.0756 11.566 20.1021 11.4423C20.1286 11.3185 19.837 11.4422 19.9077 11.345C19.9784 11.2478 20.3407 11.239 20.3583 11.08C20.376 10.9209 20.0579 11.08 20.0932 11.0269C20.1286 10.9739 20.2346 10.9562 20.3583 10.8767C20.4821 10.7972 20.862 10.5056 20.8443 10.373C20.8267 10.2405 20.2081 10.753 20.2611 10.5498C20.3142 10.3465 21.2685 9.66615 21.1448 9.49827C21.0211 9.33038 20.323 10.214 20.2611 10.0461C20.1993 9.87822 21.3657 8.73836 21.1448 8.34956C21.0917 8.24353 20.2611 9.85171 20.1374 9.71033C20.0137 9.56895 20.8443 8.12864 20.7295 7.94307C20.6146 7.75751 20.5527 8.11982 20.429 8.40258C20.3053 8.68534 20.164 9.00344 20.1374 9.03879C20.1109 9.07413 20.1374 8.43792 20.1374 8.23469C20.1374 8.03145 20.0314 8.19052 20.0314 8.19052C19.9057 9.11018 19.4901 9.96581 18.845 10.6332C18.1998 11.3006 17.3588 11.7449 16.4439 11.9017C16.0463 11.9547 15.9225 12.1491 15.4807 12.3966C15.3393 12.4761 15.1096 12.5114 14.9152 12.6263C14.7541 12.7192 14.6177 12.8495 14.5176 13.0063C14.5081 13.0432 14.508 13.082 14.5172 13.119C14.5265 13.156 14.5448 13.1902 14.5706 13.2183C14.5706 13.2183 14.5706 13.1123 14.6589 13.0858C14.7473 13.0593 14.7031 13.13 14.765 13.13C14.8072 13.1226 14.8468 13.1043 14.8799 13.077H16.4262C16.5284 13.0757 16.6276 13.0416 16.709 12.9798C16.709 12.9267 16.5676 12.9798 16.4881 12.9798C16.1611 12.9798 15.7281 12.9798 15.4277 12.9798C15.4152 12.9776 15.4039 12.9711 15.3958 12.9614C15.3877 12.9517 15.3833 12.9394 15.3835 12.9267C15.4431 12.8459 15.508 12.7691 15.5779 12.697H15.4277C15.3836 12.7218 15.3359 12.7397 15.2863 12.75C15.2421 12.75 15.2245 12.75 15.2421 12.75C15.5253 12.5681 15.8205 12.4058 16.1258 12.264L16.2318 12.1757Z" fill="#F5C832"/>
<path d="M14.6628 13.2447C14.6628 13.2447 14.6098 13.174 14.6009 13.1563C14.5832 13.1109 14.5832 13.0604 14.6009 13.0149C14.7024 12.8562 14.8422 12.7255 15.0074 12.635C15.1121 12.5809 15.2216 12.5366 15.3343 12.5024C15.4194 12.477 15.5021 12.4445 15.5818 12.4052C15.7231 12.3257 15.8292 12.255 15.9175 12.1843C16.0997 12.0407 16.3157 11.9464 16.5449 11.9104C17.4498 11.7496 18.28 11.305 18.9155 10.6409C19.5509 9.97692 19.9585 9.12794 20.0794 8.21685C20.0899 8.20709 20.1028 8.20032 20.1167 8.19727C20.1307 8.19423 20.1453 8.19501 20.1588 8.19954C20.1724 8.20406 20.1845 8.21215 20.1938 8.22297C20.2032 8.23379 20.2094 8.24694 20.2119 8.26102C20.2231 8.43757 20.2231 8.61465 20.2119 8.7912C20.2119 8.91491 20.2119 9.03861 20.2119 9.05628C20.2788 8.87263 20.3555 8.69272 20.4417 8.51728V8.42007C20.5919 8.09312 20.6714 7.93408 20.7421 7.93408C20.6925 8.3906 20.5513 8.83241 20.3268 9.23301C20.2575 9.37285 20.1984 9.51755 20.1501 9.66598C20.3841 9.42244 20.5806 9.1455 20.7333 8.84422C20.9807 8.43775 21.0779 8.29637 21.1221 8.29637C21.3076 8.61448 20.6891 9.42742 20.3975 9.81621C20.3471 9.87856 20.2999 9.94344 20.2561 10.0106C20.3796 9.94508 20.4927 9.86172 20.5919 9.7632C20.7686 9.60414 20.9542 9.43623 21.0514 9.43623C21.1663 9.56878 20.7951 9.93106 20.4063 10.3199C20.3338 10.3826 20.2659 10.4505 20.2031 10.5231C20.2031 10.5231 20.3445 10.5231 20.4417 10.4347C20.5389 10.3464 20.7775 10.258 20.7863 10.3375C20.7951 10.4171 20.6361 10.6203 20.2915 10.8589L20.1059 10.9561L20.0264 11.0003H20.1148C20.1855 11.0003 20.2561 11.0003 20.2738 11.0003C20.2738 11.1151 20.1148 11.1593 19.991 11.1947C19.9299 11.2084 19.8726 11.2356 19.8232 11.2742C19.8232 11.2742 19.8762 11.2742 19.9027 11.2742C19.9398 11.2607 19.9805 11.2607 20.0176 11.2742C20.0176 11.3891 19.832 11.4156 19.6818 11.4421H19.5227H19.5934C19.6553 11.4421 19.7436 11.4421 19.7348 11.5481C19.7259 11.6541 19.6022 11.6188 19.4609 11.6365C19.3848 11.624 19.3072 11.624 19.2311 11.6365H19.3018C19.3725 11.6365 19.4344 11.6365 19.4344 11.716C19.4344 11.7955 19.4344 11.7779 19.2488 11.8309C18.9948 11.917 18.7349 11.9849 18.4712 12.0341C18.2233 12.0814 17.9723 12.1109 17.7201 12.1225C17.6141 12.1225 17.5964 12.1225 17.5876 12.1225C17.5787 12.1225 17.6759 12.0606 17.941 12.0164H18.0913H18.215C18.296 12.002 18.3757 11.9813 18.4535 11.9546C18.5654 11.8773 18.6915 11.8232 18.8246 11.7955C18.8246 11.7955 18.8246 11.7513 18.8246 11.7337C18.8246 11.716 18.7805 11.6718 18.8246 11.6453C18.8257 11.6383 18.8282 11.6316 18.8319 11.6255C18.8356 11.6195 18.8405 11.6143 18.8462 11.6102C18.852 11.606 18.8586 11.6031 18.8655 11.6016C18.8724 11.6 18.8795 11.5999 18.8865 11.6011C18.9012 11.601 18.9156 11.5968 18.9281 11.589C18.9406 11.5812 18.9507 11.5701 18.9572 11.557C18.9652 11.5452 18.9695 11.5314 18.9695 11.5172C18.9695 11.503 18.9652 11.4891 18.9572 11.4774C18.9558 11.4627 18.9558 11.4479 18.9572 11.4332C18.9572 11.4332 19.0014 11.389 19.0809 11.3714C19.1413 11.3659 19.1993 11.3446 19.2488 11.3095C19.2488 11.3095 19.2488 11.2653 19.2046 11.2388C19.1604 11.2123 19.2046 11.1947 19.346 11.1328C19.4007 11.112 19.4515 11.0821 19.4962 11.0444L19.6199 10.9738C19.7345 10.9304 19.8374 10.8607 19.9204 10.7705C19.9107 10.7658 19.9002 10.7634 19.8894 10.7634C19.8787 10.7634 19.8681 10.7658 19.8585 10.7705H19.8143C19.8143 10.7705 19.8143 10.7705 19.8143 10.7263L19.885 10.6556C19.9716 10.5929 20.0389 10.5072 20.0794 10.4082H20.0176C19.9292 10.4082 19.885 10.4082 19.885 10.4082C19.8872 10.3402 19.9053 10.2736 19.938 10.2138C19.9733 10.1476 19.9972 10.0759 20.0087 10.0018C20.0087 10.0018 19.9115 10.0018 19.885 10.0018L19.8232 9.92224C19.6509 10.0127 19.5002 10.1393 19.3813 10.2933C19.2662 10.4318 19.1628 10.5796 19.0721 10.7352C18.9785 10.9105 18.856 11.0689 18.7098 11.2035L18.5154 11.2742C18.1296 11.3879 17.7855 11.6121 17.5257 11.9192C17.5257 11.9192 17.4639 11.9192 17.3755 11.9192C17.1318 11.9321 16.8895 11.9646 16.6509 12.0164C16.4791 12.0481 16.3105 12.0954 16.1473 12.1578C15.8418 12.2991 15.5465 12.4615 15.2636 12.6438C15.3222 12.6419 15.3796 12.6268 15.4315 12.5996H15.5994C15.5199 12.7233 15.4227 12.8294 15.4227 12.847V12.9001C15.732 12.9001 16.1561 12.9001 16.483 12.9001H16.5361C16.6067 12.9001 16.6951 12.9001 16.7216 12.9001C16.6405 12.9763 16.5325 13.0176 16.4212 13.0149H14.8748C14.8432 13.0444 14.8029 13.0629 14.76 13.068C14.7504 13.0726 14.7398 13.0751 14.7291 13.0751C14.7183 13.0751 14.7078 13.0726 14.6981 13.068C14.6981 13.068 14.6451 13.0679 14.6363 13.121C14.6274 13.174 14.6363 13.1828 14.5833 13.1828L14.6628 13.2447ZM20.1589 8.21685C20.0367 9.13933 19.6212 9.99806 18.9736 10.6663C18.326 11.3346 17.4808 11.7769 16.5626 11.9281C16.3392 11.9654 16.1291 12.0598 15.9529 12.202C15.8428 12.2829 15.7277 12.3566 15.6083 12.4229C15.527 12.4653 15.4409 12.4979 15.352 12.5201C15.2417 12.5532 15.1351 12.5976 15.0339 12.6526C14.8764 12.7433 14.743 12.8706 14.6451 13.0238C14.6371 13.0418 14.6329 13.0614 14.6329 13.0812C14.6329 13.101 14.6371 13.1205 14.6451 13.1386C14.6387 13.1618 14.6387 13.1862 14.6451 13.2093C14.6451 13.2093 14.6451 13.2093 14.6451 13.1651C14.6518 13.1304 14.6706 13.0991 14.6981 13.0768C14.7423 13.0768 14.7511 13.0768 14.7688 13.0768C14.7865 13.0768 14.7688 13.0768 14.7688 13.0768C14.8074 13.0717 14.844 13.0564 14.8748 13.0326C14.8748 13.0326 15.9705 13.0326 16.43 13.0326C16.5259 13.0346 16.6196 13.0034 16.6951 12.9442H16.483C16.1561 12.9442 15.7231 12.9442 15.4139 12.9442C15.3996 12.9497 15.3839 12.9497 15.3697 12.9442C15.3658 12.9359 15.3637 12.9269 15.3637 12.9177C15.3637 12.9086 15.3658 12.8995 15.3697 12.8912C15.4288 12.8047 15.4969 12.7248 15.5729 12.6526H15.4315C15.3908 12.678 15.346 12.6959 15.299 12.7057C15.299 12.7057 15.2371 12.7057 15.2283 12.7057C15.5278 12.5177 15.8409 12.3523 16.165 12.2108C16.3285 12.1494 16.497 12.1021 16.6686 12.0694C16.9068 12.0141 17.1491 11.9787 17.3932 11.9634H17.5257C17.7898 11.651 18.1402 11.4235 18.5331 11.3095L18.7186 11.2477C18.8609 11.115 18.9803 10.9598 19.0721 10.7882C19.1627 10.6326 19.2662 10.4848 19.3813 10.3464C19.6818 10.0018 19.8497 9.96641 19.8585 9.96641L19.9115 10.0459C19.9115 10.0459 19.9734 9.9841 20.0176 9.9841C20.0223 9.99845 20.0223 10.0139 20.0176 10.0283C20.009 10.1087 19.985 10.1867 19.9469 10.258C19.9156 10.312 19.8974 10.3725 19.8939 10.4347C19.9255 10.4443 19.9594 10.4443 19.991 10.4347H20.0529C20.0189 10.5492 19.9473 10.6488 19.8497 10.7175L19.779 10.7882H19.8497C19.8528 10.7951 19.8545 10.8027 19.8545 10.8103C19.8545 10.8179 19.8528 10.8254 19.8497 10.8324C19.7678 10.9319 19.6611 11.0081 19.5404 11.0533L19.4167 11.1151C19.4167 11.1151 19.4874 11.1681 19.4786 11.2035C19.4697 11.2388 19.4167 11.2653 19.3107 11.3184L19.1869 11.3891C19.1359 11.4499 19.0628 11.488 18.9837 11.4951H18.8777C18.8777 11.5569 18.8777 11.6011 18.8777 11.6453C18.8677 11.6646 18.8524 11.6806 18.8336 11.6916C18.8149 11.7025 18.7933 11.7079 18.7716 11.7072C18.7716 11.7072 18.7716 11.7072 18.7716 11.769C18.7716 11.8309 18.7716 11.8309 18.7716 11.8485C18.7716 11.8662 18.7716 11.8485 18.7275 11.8485C18.6007 11.8788 18.4808 11.9328 18.374 12.0076L18.1266 12.0783H18.0029H17.8527C17.7454 12.0918 17.6391 12.1125 17.5346 12.1401C17.8139 12.1562 18.094 12.1294 18.3652 12.0606C18.6289 12.0155 18.8888 11.9505 19.1428 11.8662C19.3018 11.8132 19.3018 11.7867 19.3018 11.7867C19.3018 11.7867 19.2223 11.7867 19.1958 11.7425C19.1693 11.6983 19.0986 11.7425 19.0986 11.6895C19.1924 11.6651 19.2908 11.6644 19.3849 11.6875C19.479 11.7107 19.5658 11.7569 19.6376 11.822C19.7348 11.822 19.8762 11.822 19.8762 11.7602C19.8762 11.6983 19.8762 11.716 19.7613 11.6983C19.6464 11.6806 19.6641 11.6983 19.6641 11.6365C19.6641 11.5746 19.7171 11.6365 19.8497 11.5746C19.9822 11.5128 20.1501 11.5304 20.1678 11.4686C20.1855 11.4067 20.1059 11.4686 20.0794 11.4686C20.0529 11.4686 19.9734 11.4686 19.9645 11.4686C20.0187 11.4269 20.0825 11.3995 20.1501 11.3891C20.265 11.3891 20.4063 11.3095 20.4063 11.2212C20.4063 11.1328 20.3357 11.2212 20.265 11.2212C20.1943 11.2212 20.1589 11.2212 20.1413 11.2212C20.1236 11.2212 20.1413 11.1505 20.2385 11.124L20.4152 11.0268C20.8482 10.7263 20.9012 10.5938 20.8924 10.5408C20.8835 10.4877 20.6979 10.5938 20.6007 10.6556C20.5226 10.7104 20.436 10.7522 20.3445 10.7794C20.3404 10.7696 20.3382 10.7591 20.3382 10.7484C20.3382 10.7378 20.3404 10.7273 20.3445 10.7175C20.3445 10.7175 20.4064 10.6468 20.5566 10.4966C20.7068 10.3464 21.2988 9.80735 21.1928 9.68365C21.0868 9.55994 20.9012 9.85154 20.7421 9.99292C20.5831 10.1343 20.4505 10.258 20.3887 10.258C20.3887 10.258 20.3887 10.205 20.5477 10.0371C20.8393 9.65716 21.4314 8.85305 21.2988 8.57029C21.1693 8.74203 21.0513 8.92208 20.9454 9.10929C20.6361 9.61296 20.424 9.94875 20.3268 9.94875C20.2296 9.94875 20.3268 9.87805 20.4682 9.47158C20.6752 9.07222 20.8184 8.64286 20.8924 8.19916C20.8393 8.19916 20.7068 8.46426 20.6184 8.65866V8.75585C20.5035 9.02094 20.3887 9.26835 20.3622 9.30369C20.3357 9.33904 20.3622 9.2595 20.3622 9.02093C20.373 8.84731 20.373 8.6732 20.3622 8.49959C20.3622 8.49959 20.3622 8.49959 20.318 8.49959L20.1589 8.21685Z" fill="#F5C832"/>
<path d="M15.1681 12.8293C15.1681 12.8293 15.1144 12.8293 15.0786 12.8293C15.0428 12.8293 15.016 12.8293 15.016 12.874C15.016 12.9188 15.0697 12.874 15.1055 12.874C15.1413 12.874 15.1681 12.874 15.1681 12.8203V12.8293Z" fill="#4EAEC4"/>
<path d="M15.0314 12.9102C15.0314 12.9102 15.0314 12.8476 15.103 12.8386H15.1925C15.1925 12.8386 15.1925 12.9013 15.1209 12.9102H15.0314Z" fill="#4EAEC4"/>
<path d="M16.5493 4.97418C16.5726 4.98073 16.5971 4.98215 16.621 4.97836C16.6449 4.97458 16.6677 4.96566 16.6878 4.95223C16.708 4.9388 16.725 4.92118 16.7377 4.90057C16.7504 4.87995 16.7584 4.85683 16.7614 4.8328C16.7777 4.57091 16.7777 4.30828 16.7614 4.04639C16.638 4.27813 16.5288 4.51715 16.4344 4.76212C16.4263 4.78598 16.4237 4.81133 16.4268 4.83633C16.4298 4.86134 16.4384 4.88534 16.452 4.90655C16.4656 4.92777 16.4838 4.94566 16.5052 4.95889C16.5266 4.97213 16.5508 4.98039 16.5758 4.98303L16.5493 4.97418Z" fill="#F5C832"/>
<path d="M16.9878 5.1155C17.0095 5.12702 17.0335 5.13363 17.058 5.13487C17.0825 5.1361 17.107 5.13192 17.1298 5.12265C17.1525 5.11338 17.173 5.09924 17.1897 5.0812C17.2064 5.06317 17.2189 5.04169 17.2264 5.01829C17.2828 4.76174 17.3241 4.50212 17.3501 4.24072C17.1813 4.4432 17.025 4.65566 16.8818 4.87693C16.8702 4.89864 16.8636 4.92259 16.8624 4.94713C16.8612 4.97166 16.8653 4.99619 16.8746 5.01894C16.8839 5.04169 16.898 5.06212 16.916 5.0788C16.9341 5.09549 16.9555 5.10802 16.9789 5.1155H16.9878Z" fill="#F5C832"/>
<path d="M17.4618 5.35477C17.4812 5.37075 17.5039 5.38218 17.5283 5.38821C17.5526 5.39425 17.5781 5.39475 17.6026 5.38967C17.6272 5.38458 17.6504 5.37403 17.6703 5.35882C17.6903 5.34361 17.7066 5.32411 17.7181 5.30176C17.8232 5.0627 17.9147 4.81784 17.992 4.56836C17.7904 4.73695 17.5987 4.9169 17.4176 5.10736C17.4017 5.12673 17.3902 5.14943 17.3842 5.1738C17.3782 5.19818 17.3777 5.22362 17.3828 5.2482C17.3878 5.27279 17.3984 5.29591 17.4136 5.31589C17.4288 5.33586 17.4483 5.35218 17.4706 5.36362L17.4618 5.35477Z" fill="#F5C832"/>
<path d="M17.8714 5.63757C17.8862 5.65767 17.9055 5.67399 17.9278 5.68525C17.95 5.69651 17.9746 5.70237 17.9995 5.70237C18.0245 5.70237 18.0491 5.69651 18.0713 5.68525C18.0936 5.67399 18.1129 5.65767 18.1277 5.63757C18.2803 5.42588 18.419 5.20451 18.543 4.97485C18.3113 5.09688 18.087 5.2326 17.8714 5.38131C17.8528 5.39707 17.8379 5.41671 17.8276 5.43883C17.8173 5.46096 17.812 5.48507 17.812 5.50946C17.812 5.53385 17.8173 5.55793 17.8276 5.58005C17.8379 5.60218 17.8528 5.62181 17.8714 5.63757Z" fill="#F5C832"/>
<path d="M18.1709 6.05118C18.1831 6.07285 18.2 6.09153 18.2204 6.10586C18.2407 6.1202 18.264 6.12982 18.2885 6.13404C18.3131 6.13827 18.3382 6.13699 18.3622 6.1303C18.3862 6.12361 18.4083 6.11167 18.4271 6.09535C18.618 5.91474 18.798 5.72295 18.9661 5.521C18.7166 5.59824 18.4718 5.6897 18.2327 5.79492C18.2104 5.80636 18.1909 5.82267 18.1757 5.84265C18.1605 5.86262 18.1499 5.88577 18.1448 5.91036C18.1397 5.93495 18.1403 5.96036 18.1463 5.98473C18.1523 6.0091 18.1638 6.03181 18.1797 6.05118H18.1709Z" fill="#F5C832"/>
<path d="M18.4023 6.52049C18.4097 6.54389 18.4223 6.56537 18.439 6.58341C18.4557 6.60144 18.4761 6.61558 18.4988 6.62485C18.5216 6.63412 18.5461 6.63828 18.5706 6.63704C18.5952 6.6358 18.6191 6.62919 18.6408 6.61768C18.8615 6.47685 19.074 6.32345 19.277 6.1582C19.0158 6.18533 18.7562 6.22664 18.4995 6.28192C18.476 6.2894 18.4546 6.30191 18.4365 6.3186C18.4185 6.33528 18.4044 6.35574 18.3951 6.37849C18.3858 6.40124 18.3817 6.42574 18.3829 6.45027C18.3841 6.47481 18.3908 6.49879 18.4023 6.52049Z" fill="#F5C832"/>
<path d="M18.5496 6.97111C18.5525 6.99514 18.5606 7.01826 18.5733 7.03887C18.586 7.05949 18.603 7.07711 18.6231 7.09054C18.6433 7.10397 18.6661 7.11288 18.69 7.11667C18.7139 7.12046 18.7384 7.11904 18.7617 7.11249C19.0063 7.01718 19.2452 6.908 19.4774 6.78553C19.2155 6.77071 18.9529 6.77071 18.691 6.78553C18.6652 6.78691 18.64 6.79426 18.6175 6.80696C18.595 6.81967 18.5757 6.83738 18.5612 6.85877C18.5466 6.88015 18.5372 6.90461 18.5337 6.93023C18.5301 6.95584 18.5326 6.98191 18.5408 7.00643L18.5496 6.97111Z" fill="#F5C832"/>
<path d="M18.5982 7.46568C18.5954 7.49073 18.5983 7.5161 18.6066 7.53989C18.6149 7.56368 18.6285 7.58527 18.6463 7.6031C18.6641 7.62092 18.6858 7.63451 18.7096 7.64284C18.7334 7.65118 18.7587 7.65404 18.7838 7.65123C19.0436 7.60509 19.3003 7.54313 19.5525 7.46568C19.3003 7.38822 19.0436 7.32623 18.7838 7.2801C18.7587 7.27728 18.7334 7.28018 18.7096 7.28851C18.6858 7.29684 18.6641 7.3104 18.6463 7.32823C18.6285 7.34606 18.6149 7.36767 18.6066 7.39147C18.5983 7.41526 18.5954 7.44063 18.5982 7.46568Z" fill="#F5C832"/>
<path d="M18.5496 7.96097C18.543 7.98494 18.5418 8.01009 18.5461 8.03459C18.5504 8.05908 18.5601 8.0823 18.5745 8.1026C18.5888 8.12289 18.6075 8.13973 18.6292 8.15192C18.6509 8.1641 18.675 8.17131 18.6998 8.17303C18.9617 8.18936 19.2243 8.18936 19.4862 8.17303C19.2542 8.05035 19.0152 7.94119 18.7705 7.84609C18.7472 7.83955 18.7228 7.83813 18.6989 7.84191C18.6749 7.8457 18.6521 7.85461 18.632 7.86804C18.6118 7.88147 18.5948 7.89909 18.5821 7.91971C18.5694 7.94033 18.5614 7.96344 18.5584 7.98748L18.5496 7.96097Z" fill="#F5C832"/>
<path d="M18.4023 8.43759C18.3908 8.45929 18.3841 8.48324 18.3829 8.50778C18.3817 8.53232 18.3858 8.55684 18.3951 8.57959C18.4044 8.60234 18.4185 8.62277 18.4365 8.63946C18.4546 8.65614 18.476 8.66868 18.4995 8.67616C18.7556 8.73484 19.0154 8.77615 19.277 8.79985C19.074 8.63461 18.8615 8.4812 18.6408 8.34037C18.6191 8.32886 18.5952 8.32225 18.5706 8.32101C18.5461 8.31978 18.5216 8.32396 18.4988 8.33323C18.4761 8.3425 18.4557 8.35664 18.439 8.37468C18.4223 8.39271 18.4097 8.41419 18.4023 8.43759Z" fill="#F5C832"/>
<path d="M18.1721 8.87947C18.1562 8.89884 18.1447 8.92154 18.1387 8.94592C18.1327 8.97029 18.1322 8.9957 18.1373 9.02029C18.1424 9.04488 18.1529 9.068 18.1681 9.08797C18.1833 9.10795 18.2028 9.12426 18.2252 9.1357C18.4648 9.23945 18.7096 9.33088 18.9586 9.40963C18.7908 9.20457 18.6108 9.00982 18.4196 8.82643C18.4002 8.81045 18.3775 8.79905 18.3531 8.79302C18.3287 8.78698 18.3033 8.78647 18.2787 8.79156C18.2542 8.79665 18.231 8.8072 18.211 8.82241C18.1911 8.83762 18.1747 8.85712 18.1633 8.87947H18.1721Z" fill="#F5C832"/>
<path d="M17.8692 9.26788C17.849 9.28357 17.8327 9.30369 17.8214 9.32666C17.8102 9.34963 17.8043 9.37487 17.8043 9.40044C17.8043 9.42601 17.8102 9.45125 17.8214 9.47422C17.8327 9.49719 17.849 9.51728 17.8692 9.53298C18.0856 9.68043 18.3097 9.81611 18.5407 9.93944C18.4171 9.70675 18.2784 9.48241 18.1254 9.26788C18.1097 9.24926 18.09 9.23431 18.0679 9.22406C18.0458 9.2138 18.0217 9.2085 17.9973 9.2085C17.9729 9.2085 17.9488 9.2138 17.9267 9.22406C17.9046 9.23431 17.8849 9.24926 17.8692 9.26788Z" fill="#F5C832"/>
<path d="M17.463 9.57761C17.4406 9.58905 17.4211 9.60536 17.4059 9.62534C17.3907 9.64531 17.3801 9.66846 17.3751 9.69305C17.37 9.71763 17.3705 9.74305 17.3765 9.76742C17.3825 9.79179 17.394 9.81449 17.41 9.83386C17.5901 10.0252 17.7819 10.2052 17.9843 10.3729C17.9065 10.1236 17.815 9.87875 17.7104 9.63947C17.6989 9.61712 17.6826 9.59762 17.6627 9.58241C17.6427 9.56719 17.6195 9.55667 17.5949 9.55158C17.5704 9.5465 17.5449 9.54698 17.5206 9.55301C17.4962 9.55905 17.4735 9.57048 17.4541 9.58645L17.463 9.57761Z" fill="#F5C832"/>
<path d="M16.9827 9.81596C16.9593 9.82344 16.9378 9.83595 16.9198 9.85264C16.9018 9.86932 16.8876 9.88978 16.8784 9.91253C16.8691 9.93528 16.8649 9.95977 16.8662 9.98431C16.8674 10.0088 16.874 10.0328 16.8855 10.0545C17.0287 10.2758 17.1851 10.4883 17.3539 10.6907C17.3276 10.4294 17.2863 10.1698 17.2301 9.91315C17.2227 9.88975 17.2101 9.86827 17.1934 9.85024C17.1768 9.8322 17.1563 9.81806 17.1336 9.80879C17.1108 9.79952 17.0863 9.79536 17.0618 9.7966C17.0372 9.79784 17.0133 9.80445 16.9916 9.81596H16.9827Z" fill="#F5C832"/>
<path d="M14.6499 9.57815C14.6306 9.56218 14.6079 9.55075 14.5835 9.54471C14.5591 9.53868 14.5337 9.5382 14.5091 9.54328C14.4845 9.54837 14.4614 9.55889 14.4414 9.5741C14.4214 9.58932 14.4051 9.60882 14.3937 9.63116C14.2878 9.86996 14.1964 10.1149 14.1198 10.3646C14.3225 10.1973 14.5143 10.0173 14.6941 9.82556C14.7104 9.80677 14.7224 9.7846 14.7291 9.76063C14.7357 9.73666 14.737 9.71148 14.7328 9.68696C14.7286 9.66243 14.7189 9.63916 14.7046 9.61881C14.6903 9.59847 14.6716 9.58157 14.6499 9.56933V9.57815Z" fill="#F5C832"/>
<path d="M14.2551 9.26788C14.2393 9.24926 14.2197 9.23431 14.1975 9.22406C14.1754 9.2138 14.1513 9.2085 14.1269 9.2085C14.1026 9.2085 14.0784 9.2138 14.0563 9.22406C14.0342 9.23431 14.0146 9.24926 13.9988 9.26788C13.8453 9.48207 13.7066 9.70645 13.5835 9.93944C13.8145 9.81608 14.0387 9.6804 14.2551 9.53298C14.2752 9.51728 14.2916 9.49719 14.3028 9.47422C14.3141 9.45125 14.3199 9.42601 14.3199 9.40044C14.3199 9.37487 14.3141 9.34963 14.3028 9.32666C14.2916 9.30369 14.2752 9.28357 14.2551 9.26788Z" fill="#F5C832"/>
<path d="M13.9383 8.87947C13.9269 8.85712 13.9106 8.83762 13.8906 8.82241C13.8706 8.8072 13.8475 8.79665 13.8229 8.79156C13.7983 8.78647 13.7729 8.78698 13.7485 8.79302C13.7242 8.79905 13.7015 8.81045 13.6821 8.82643C13.491 9.00992 13.311 9.20467 13.1431 9.40963C13.395 9.33115 13.6428 9.23972 13.8853 9.1357C13.9077 9.12426 13.9272 9.10795 13.9424 9.08797C13.9576 9.068 13.9681 9.04488 13.9732 9.02029C13.9783 8.9957 13.9778 8.97029 13.9718 8.94592C13.9657 8.92154 13.9543 8.89884 13.9383 8.87947Z" fill="#F5C832"/>
<path d="M13.7115 8.43759C13.704 8.41419 13.6915 8.39271 13.6748 8.37468C13.6581 8.35664 13.6376 8.3425 13.6149 8.33323C13.5921 8.32396 13.5676 8.31978 13.5431 8.32101C13.5186 8.32225 13.4946 8.32886 13.4729 8.34037C13.2522 8.48118 13.0397 8.63459 12.8367 8.79985C13.0983 8.7761 13.3581 8.73478 13.6143 8.67616C13.6377 8.66868 13.6591 8.65614 13.6772 8.63946C13.6952 8.62277 13.7094 8.60234 13.7186 8.57959C13.7279 8.55684 13.7321 8.53232 13.7308 8.50778C13.7296 8.48324 13.723 8.45929 13.7115 8.43759Z" fill="#F5C832"/>
<path d="M13.5549 7.96084C13.5523 7.93579 13.5441 7.91165 13.5308 7.89022C13.5176 7.86879 13.4997 7.85062 13.4785 7.83704C13.4573 7.82346 13.4333 7.81482 13.4083 7.81177C13.3833 7.80873 13.3579 7.81137 13.334 7.81946C13.0895 7.91824 12.8506 8.03034 12.6183 8.15524C12.8802 8.17157 13.1428 8.17157 13.4047 8.15524C13.4288 8.15232 13.4519 8.14423 13.4725 8.13154C13.4931 8.11885 13.5107 8.10185 13.5242 8.08171C13.5376 8.06156 13.5465 8.03874 13.5503 8.01483C13.5541 7.99092 13.5526 7.96646 13.5461 7.94315L13.5549 7.96084Z" fill="#F5C832"/>
<path d="M13.5152 7.46568C13.5181 7.44063 13.5152 7.41526 13.5069 7.39147C13.4985 7.36767 13.4849 7.34606 13.4671 7.32823C13.4493 7.3104 13.4277 7.29684 13.4039 7.28851C13.3801 7.28018 13.3547 7.27728 13.3297 7.2801C13.0699 7.32653 12.8132 7.38851 12.5609 7.46568C12.8132 7.54284 13.0699 7.6048 13.3297 7.65123C13.3547 7.65404 13.3801 7.65118 13.4039 7.64284C13.4277 7.63451 13.4493 7.62092 13.4671 7.6031C13.4849 7.58527 13.4985 7.56368 13.5069 7.53989C13.5152 7.5161 13.5181 7.49073 13.5152 7.46568Z" fill="#F5C832"/>
<path d="M13.5577 6.97153C13.5658 6.94768 13.5684 6.9223 13.5654 6.8973C13.5623 6.87229 13.5537 6.84829 13.5401 6.82708C13.5265 6.80586 13.5084 6.78797 13.4869 6.77474C13.4655 6.7615 13.4413 6.75327 13.4163 6.75063C13.1544 6.73579 12.8918 6.73579 12.6299 6.75063C12.8625 6.87229 13.1014 6.98142 13.3456 7.07757C13.3695 7.08566 13.3948 7.08827 13.4198 7.08522C13.4448 7.08218 13.4688 7.07356 13.49 7.05998C13.5113 7.04641 13.5292 7.02824 13.5424 7.00681C13.5556 6.98538 13.5639 6.96123 13.5665 6.93618L13.5577 6.97153Z" fill="#F5C832"/>
<path d="M13.7115 6.52049C13.723 6.49879 13.7296 6.47481 13.7308 6.45027C13.7321 6.42574 13.7279 6.40124 13.7186 6.37849C13.7094 6.35574 13.6952 6.33528 13.6772 6.3186C13.6591 6.30191 13.6377 6.2894 13.6143 6.28192C13.3575 6.22668 13.0979 6.18537 12.8367 6.1582C13.0397 6.32346 13.2522 6.47687 13.4729 6.61768C13.4946 6.62919 13.5186 6.6358 13.5431 6.63704C13.5676 6.63828 13.5921 6.63412 13.6149 6.62485C13.6376 6.61558 13.6581 6.60144 13.6748 6.58341C13.6915 6.56537 13.704 6.54389 13.7115 6.52049Z" fill="#F5C832"/>
<path d="M13.9383 6.05118C13.9543 6.03181 13.9657 6.0091 13.9718 5.98473C13.9778 5.96036 13.9783 5.93495 13.9732 5.91036C13.9681 5.88577 13.9576 5.86262 13.9424 5.84265C13.9272 5.82267 13.9077 5.80636 13.8853 5.79492C13.6434 5.6894 13.3955 5.59794 13.1431 5.521C13.3113 5.72286 13.4913 5.91464 13.6821 6.09535C13.7001 6.11339 13.7222 6.12684 13.7465 6.13456C13.7708 6.14228 13.7966 6.14407 13.8217 6.13973C13.8468 6.1354 13.8705 6.12508 13.8908 6.10967C13.9111 6.09426 13.9274 6.07421 13.9383 6.05118Z" fill="#F5C832"/>
<path d="M14.2551 5.63757C14.2737 5.62181 14.2886 5.60218 14.2989 5.58005C14.3091 5.55793 14.3145 5.53385 14.3145 5.50946C14.3145 5.48507 14.3091 5.46096 14.2989 5.43883C14.2886 5.41671 14.2737 5.39707 14.2551 5.38131C14.0395 5.23262 13.8152 5.0969 13.5835 4.97485C13.7069 5.2048 13.8457 5.42621 13.9988 5.63757C14.0136 5.65767 14.0329 5.67399 14.0551 5.68525C14.0774 5.69651 14.102 5.70237 14.1269 5.70237C14.1519 5.70237 14.1765 5.69651 14.1987 5.68525C14.221 5.67399 14.2403 5.65767 14.2551 5.63757Z" fill="#F5C832"/>
<path d="M16.0463 5.23049C16.4881 5.23223 16.9194 5.36481 17.2859 5.61152C17.6524 5.85823 17.9375 6.20801 18.1054 6.61665C18.2732 7.0253 18.3162 7.4745 18.229 7.90758C18.1417 8.34065 17.9281 8.73818 17.6151 9.04994C17.3021 9.36171 16.9038 9.57375 16.4704 9.6593C16.037 9.74484 15.5879 9.70005 15.1799 9.53059C14.7719 9.36113 14.4233 9.07459 14.178 8.70715C13.9328 8.33971 13.8019 7.90784 13.8019 7.46606C13.8019 7.17174 13.86 6.88029 13.9729 6.60848C14.0858 6.33667 14.2513 6.08983 14.4598 5.88212C14.6683 5.67441 14.9158 5.50993 15.1881 5.39811C15.4603 5.28628 15.752 5.22932 16.0463 5.23049Z" fill="#F5C832"/>
<path d="M16.0478 4.92943C16.0729 4.93224 16.0982 4.92937 16.122 4.92104C16.1458 4.91271 16.1674 4.89912 16.1852 4.88129C16.2031 4.86347 16.2167 4.84185 16.225 4.81806C16.2333 4.79427 16.2362 4.7689 16.2334 4.74385C16.1868 4.48414 16.1249 4.22744 16.0478 3.9751C15.9741 4.22772 15.9151 4.48439 15.8711 4.74385C15.8685 4.7681 15.8712 4.79264 15.879 4.81574C15.8868 4.83884 15.8996 4.85994 15.9164 4.8776C15.9333 4.89526 15.9537 4.90905 15.9764 4.918C15.9991 4.92694 16.0235 4.93085 16.0478 4.92943Z" fill="#F5C832"/>
<path d="M16.5413 9.95769C16.5162 9.96033 16.4921 9.96856 16.4706 9.9818C16.4492 9.99504 16.431 10.0129 16.4175 10.0341C16.4039 10.0554 16.3953 10.0794 16.3922 10.1044C16.3892 10.1294 16.3918 10.1547 16.3999 10.1786C16.4943 10.4236 16.6034 10.6626 16.7268 10.8943C16.7432 10.6324 16.7432 10.3698 16.7268 10.1079C16.7251 10.0831 16.7179 10.059 16.7057 10.0373C16.6935 10.0156 16.6767 9.9969 16.6564 9.98253C16.6361 9.96815 16.6129 9.95849 16.5884 9.95419C16.5639 9.94989 16.5387 9.95109 16.5148 9.95769H16.5413Z" fill="#F5C832"/>
<path d="M16.0478 10.0111C16.0235 10.0096 15.9991 10.0135 15.9764 10.0225C15.9537 10.0314 15.9333 10.0452 15.9164 10.0629C15.8996 10.0805 15.8868 10.1016 15.879 10.1247C15.8712 10.1478 15.8685 10.1724 15.8711 10.1966C15.9147 10.4561 15.9737 10.7128 16.0478 10.9654C16.1253 10.7131 16.1873 10.4564 16.2334 10.1966C16.2362 10.1716 16.2333 10.1462 16.225 10.1224C16.2167 10.0986 16.2031 10.077 16.1852 10.0592C16.1674 10.0413 16.1458 10.0278 16.122 10.0194C16.0982 10.0111 16.0729 10.0082 16.0478 10.0111Z" fill="#F5C832"/>
<path d="M15.5538 9.95769C15.5298 9.95109 15.5046 9.94989 15.4802 9.95419C15.4557 9.95849 15.4324 9.96815 15.4121 9.98253C15.3919 9.9969 15.375 10.0156 15.3628 10.0373C15.3506 10.059 15.3434 10.0831 15.3417 10.1079C15.3262 10.3698 15.3262 10.6324 15.3417 10.8943C15.4636 10.6619 15.5728 10.423 15.6686 10.1786C15.6767 10.1547 15.6793 10.1294 15.6763 10.1044C15.6733 10.0794 15.6646 10.0554 15.6511 10.0341C15.6375 10.0129 15.6193 9.99504 15.5979 9.9818C15.5764 9.96856 15.5523 9.96033 15.5273 9.95769H15.5538Z" fill="#F5C832"/>
<path d="M15.0796 9.81596C15.0579 9.80445 15.0339 9.79784 15.0094 9.7966C14.9848 9.79536 14.9603 9.79952 14.9376 9.80879C14.9148 9.81806 14.8944 9.8322 14.8777 9.85024C14.861 9.86827 14.8485 9.88975 14.841 9.91315C14.784 10.1696 14.7426 10.4293 14.7173 10.6907C14.8981 10.4893 15.0663 10.2768 15.221 10.0545C15.2325 10.0328 15.2391 10.0088 15.2403 9.98431C15.2416 9.95977 15.2374 9.93528 15.2281 9.91253C15.2189 9.88978 15.2047 9.86932 15.1867 9.85264C15.1686 9.83595 15.1472 9.82344 15.1238 9.81596H15.0796Z" fill="#F5C832"/>
<path d="M14.6499 5.35458C14.6716 5.34234 14.6903 5.32545 14.7046 5.3051C14.7189 5.28475 14.7286 5.26146 14.7328 5.23693C14.737 5.21241 14.7357 5.18726 14.7291 5.16329C14.7224 5.13932 14.7104 5.11714 14.6941 5.09835C14.5135 4.90748 14.3217 4.72748 14.1198 4.55933C14.1958 4.80922 14.2873 5.05415 14.3937 5.29272C14.4051 5.31507 14.4214 5.33457 14.4414 5.34978C14.4614 5.365 14.4845 5.37555 14.5091 5.38063C14.5337 5.38572 14.5591 5.38521 14.5835 5.37918C14.6079 5.37314 14.6306 5.36174 14.6499 5.34577V5.35458Z" fill="#F5C832"/>
<path d="M15.0769 5.1155C15.1003 5.10802 15.1218 5.09549 15.1398 5.0788C15.1579 5.06212 15.172 5.04169 15.1813 5.01894C15.1905 4.99619 15.1947 4.97166 15.1935 4.94713C15.1922 4.92259 15.1856 4.89864 15.1741 4.87693C15.0309 4.65566 14.8745 4.4432 14.7058 4.24072C14.7309 4.50223 14.7722 4.76191 14.8295 5.01829C14.837 5.04169 14.8495 5.06317 14.8662 5.0812C14.8829 5.09924 14.9033 5.11338 14.9261 5.12265C14.9488 5.13192 14.9733 5.1361 14.9979 5.13487C15.0224 5.13363 15.0464 5.12702 15.0681 5.1155H15.0769Z" fill="#F5C832"/>
<path d="M15.5578 4.974C15.5829 4.97135 15.607 4.9631 15.6284 4.94986C15.6499 4.93662 15.6681 4.91876 15.6816 4.89755C15.6952 4.87633 15.7038 4.85233 15.7069 4.82733C15.7099 4.80232 15.7073 4.77694 15.6992 4.75309C15.6033 4.50874 15.4942 4.26981 15.3723 4.03735C15.3569 4.29927 15.3569 4.56185 15.3723 4.82377C15.3736 4.84848 15.3807 4.87254 15.3929 4.89404C15.4052 4.91554 15.4223 4.9339 15.4429 4.94762C15.4635 4.96135 15.487 4.97009 15.5115 4.97313C15.5361 4.97618 15.561 4.97344 15.5843 4.96515L15.5578 4.974Z" fill="#F5C832"/>
</svg>
