<svg width="31" height="18" viewBox="0 0 31 18" fill="none" xmlns="http://www.w3.org/2000/svg">
<path d="M30.3029 0.118652H0.648438V17.4201H30.3029V0.118652Z" fill="#D50037"/>
<path d="M20.6881 8.78636C20.0165 8.95425 19.2919 8.41526 18.6734 8.53013C19.2743 8.24737 20.2639 8.53012 20.6262 7.99111C19.99 8.26503 19.1947 7.84973 18.6027 8.05297C19.1506 7.69068 20.1756 7.84089 20.4407 7.22235C19.8575 7.58464 19.0092 7.31071 18.4525 7.60231C18.9385 7.15166 19.9635 7.14282 20.1314 6.49777C19.6189 6.94842 18.7441 6.80706 18.2316 7.17818C18.6381 6.66568 19.6542 6.49777 19.7161 5.83505C19.2831 6.35639 18.3995 6.35639 17.9488 6.7982C18.2758 6.23268 19.2478 5.91459 19.2036 5.23419C18.8501 5.81739 17.9842 5.95878 17.613 6.46245C17.8516 5.85275 18.7441 5.37559 18.6116 4.6952C18.3553 5.32257 17.5247 5.57881 17.2331 6.14433C17.3745 5.50812 18.1874 4.89841 17.94 4.28871C17.7898 4.94259 17.0122 5.34907 16.8089 5.93227C16.8531 5.28722 17.5512 4.56263 17.2154 3.98828C17.1712 4.66867 16.4643 5.18117 16.3318 5.75553C16.2788 5.11048 16.8531 4.27988 16.4378 3.77622C16.4997 4.44777 15.8811 5.06631 15.8723 5.68485C15.7133 5.04864 16.1551 4.15617 15.6602 3.71436C15.8193 4.36824 15.3156 5.08397 15.3952 5.69367C15.1389 5.0928 15.3951 4.12967 14.8826 3.77622C15.1477 4.39475 14.7501 5.18118 14.9357 5.76438C14.591 5.20769 14.7324 4.21804 14.1227 3.95295C14.485 4.52731 14.2111 5.35789 14.485 5.91458C14.052 5.41975 14.0344 4.41243 13.3981 4.24454C13.84 4.7482 13.7074 5.623 14.0697 6.12667C13.566 5.71136 13.3893 4.71285 12.7354 4.651C13.2568 5.09281 13.2568 5.9676 13.6986 6.41825C13.1331 6.09131 12.815 5.11933 12.1434 5.15467C12.7266 5.50812 12.868 6.38291 13.3716 6.75403C12.7531 6.51545 12.2848 5.61415 11.6044 5.75553C12.2406 6.01178 12.488 6.86007 13.0712 7.14283C12.4262 7.01912 11.8165 6.18852 11.1891 6.4271C11.8606 6.58615 12.2583 7.38142 12.8591 7.56698C12.2052 7.56698 11.463 6.8159 10.8886 7.15168C11.5779 7.19586 12.0992 7.9381 12.7266 8.0353C12.0727 8.12366 11.2244 7.51395 10.7031 7.93809C11.3923 7.87624 12.0285 8.53013 12.6647 8.50362C12.0285 8.69802 11.0919 8.22086 10.6412 8.72453C11.3128 8.55664 12.0462 9.09563 12.6736 8.98076C12.0815 9.2812 11.0742 8.98078 10.7031 9.51979C11.3481 9.24586 12.1611 9.67001 12.7531 9.44027C12.2141 9.8379 11.1626 9.66117 10.8886 10.3239C11.4807 9.95277 12.3555 10.2444 12.9121 9.92625C12.4438 10.4034 11.3658 10.4034 11.1979 11.0661C11.7281 10.5978 12.6382 10.7657 13.1419 10.3504C12.7619 10.8982 11.6839 11.0661 11.6221 11.7465C12.0727 11.2075 13.0005 11.2252 13.3893 10.7392C13.0977 11.3489 12.0639 11.6758 12.1081 12.3562C12.4703 11.7465 13.3982 11.6228 13.7339 11.075C13.5484 11.72 12.5675 12.2149 12.7177 12.8422C12.9828 12.1795 13.8841 11.9144 14.1316 11.3135C14.052 11.9851 13.1507 12.6213 13.407 13.2575C13.566 12.5683 14.4143 12.1618 14.5645 11.4903C14.5645 12.1707 13.8046 12.9306 14.1492 13.5226C14.2023 12.8157 14.971 12.2767 15.0329 11.6316C15.1654 12.2944 14.5115 13.178 14.9445 13.717C14.8826 13.0101 15.563 12.3562 15.51 11.7112C15.7486 12.3386 15.2361 13.3194 15.7486 13.7789C15.5719 13.0896 16.1462 12.3474 15.9872 11.7112C16.323 12.3032 15.9872 13.3371 16.5439 13.717C16.2699 13.0543 16.7117 12.2325 16.4643 11.6316C16.8796 12.1707 16.6941 13.2487 17.348 13.5226C16.9768 12.9218 17.2773 12.0381 16.9415 11.4903C17.4363 11.9498 17.4186 13.0455 18.0902 13.2575C17.6219 12.7185 17.7898 11.8084 17.3745 11.3047C17.9312 11.6847 18.0902 12.7627 18.7794 12.8334C18.2404 12.3827 18.2581 11.4461 17.7721 11.022C18.3818 11.3136 18.7087 12.3474 19.3891 12.3121C18.7883 11.9498 18.6557 11.0308 18.1167 10.6862C18.7618 10.8806 19.2389 11.8437 19.884 11.7023C19.2301 11.4373 19.0003 10.5536 18.373 10.2974C19.0357 10.3946 19.6631 11.2694 20.2993 11.022C19.6189 10.8629 19.2124 10.0411 18.5939 9.87323C19.2654 9.87323 20.0165 10.6332 20.5997 10.2885C19.9016 10.2444 19.3803 9.50211 18.7441 9.40491C19.4068 9.30771 20.2551 9.92627 20.7853 9.50213C20.096 9.56398 19.4598 8.91892 18.8236 8.93659C19.4598 8.74219 20.3965 9.21935 20.8471 8.71569L20.6881 8.78636ZM18.4702 9.04262C18.4529 9.17975 18.4263 9.31555 18.3906 9.44908H18.4437H18.3818C18.3459 9.58248 18.2985 9.71255 18.2404 9.83788H18.2934H18.2316C18.1734 9.96377 18.1055 10.0849 18.0284 10.2002H18.0814H18.0107C17.9359 10.3171 17.8501 10.4266 17.7544 10.5271H17.7986H17.7368C17.6433 10.6282 17.5429 10.7227 17.4363 10.8099V10.8541H17.3745C17.2649 10.9383 17.1497 11.015 17.0299 11.0838V11.128H16.9768C16.8555 11.1977 16.7284 11.2568 16.5969 11.3047V11.3489H16.5439C16.4111 11.3964 16.2753 11.4348 16.1374 11.4638V11.5168V11.4726C16.0003 11.4978 15.8614 11.5126 15.7221 11.5168C15.7197 11.5373 15.7197 11.5581 15.7221 11.5786V11.5256H15.6072H15.3068C15.3052 11.5432 15.3052 11.561 15.3068 11.5786V11.5168C15.1668 11.4994 15.028 11.4728 14.8915 11.4372C14.8898 11.4549 14.8898 11.4727 14.8915 11.4903V11.4284C14.7552 11.3925 14.6222 11.3452 14.4938 11.287V11.3401C14.4938 11.3401 14.4938 11.3401 14.4938 11.2782C14.3668 11.2168 14.2429 11.149 14.1227 11.075V11.1192V11.0573C14.0076 10.9801 13.8983 10.8944 13.7958 10.8011V10.8452V10.7834C13.6957 10.6858 13.6013 10.5825 13.513 10.4741V10.4123C13.4284 10.3029 13.3517 10.1878 13.2833 10.0676H13.2391V10.0146C13.1715 9.89219 13.1124 9.76524 13.0624 9.63466H13.0093V9.58165C12.9603 9.44943 12.9219 9.31349 12.8945 9.17516H12.8415L12.8945 9.13099C12.8673 8.99692 12.8495 8.8611 12.8415 8.72453H12.7796H12.8326C12.8326 8.72453 12.8326 8.645 12.8326 8.60965C12.8267 8.5096 12.8267 8.40928 12.8326 8.30922H12.7708H12.8326C12.8476 8.16882 12.8742 8.02991 12.9121 7.89392H12.8591H12.921C12.959 7.75829 13.0062 7.62543 13.0624 7.49628H13.0093H13.08C13.1382 7.37038 13.2062 7.24925 13.2833 7.13399H13.2303H13.1242C13.2029 7.01991 13.2885 6.91074 13.3805 6.80705H13.3363H13.3981C13.4899 6.70427 13.5904 6.60965 13.6986 6.52428H13.7604C13.8691 6.43615 13.9843 6.35641 14.1051 6.28571V6.24154H14.1581C14.2797 6.17239 14.4068 6.11328 14.538 6.06481V6.01179L14.591 6.05596C14.7232 6.00666 14.8591 5.96827 14.9975 5.94111V5.88807V5.94111C15.1341 5.91121 15.2731 5.89345 15.4128 5.88807C15.4139 5.86747 15.4139 5.84684 15.4128 5.82624V5.87925H15.5277H15.8281C15.8299 5.85867 15.8299 5.83797 15.8281 5.81739V5.87925C15.9681 5.89662 16.1069 5.92318 16.2434 5.95877C16.2451 5.94114 16.2451 5.92339 16.2434 5.90576V5.96762L16.6322 6.10898V6.05596C16.6307 6.07655 16.6307 6.09723 16.6322 6.11782C16.7572 6.17773 16.8782 6.24563 16.9945 6.32106V6.27687C16.993 6.29746 16.993 6.31814 16.9945 6.33873C17.1083 6.41777 17.2175 6.50334 17.3215 6.59499V6.55079C17.3194 6.57431 17.3194 6.59798 17.3215 6.62149C17.4231 6.71439 17.5177 6.81481 17.6042 6.92192V6.87775V6.93959C17.6927 7.04798 17.7725 7.16323 17.8428 7.28421H17.887V7.33723C17.9576 7.45809 18.0168 7.5853 18.0637 7.71718H18.1167V7.76138C18.1651 7.8938 18.2035 8.02966 18.2316 8.16784H18.2846L18.2316 8.21201C18.2593 8.34898 18.277 8.48778 18.2846 8.62732H18.426H18.373C18.373 8.62732 18.373 8.70685 18.373 8.74219C18.3786 8.84226 18.3786 8.94256 18.373 9.04262H18.4348H18.373" fill="#F9F02A"/>
<path d="M15.2299 7.16018C14.8262 6.99015 14.3952 6.89438 13.9575 6.87744L13.8514 6.97463C14.2674 6.99101 14.6772 7.08074 15.062 7.2397L15.2299 7.15136" fill="#F9F02A"/>
<path d="M16.8465 6.72734C16.4548 6.43883 15.981 6.2832 15.4945 6.2832C15.008 6.2832 14.5343 6.43883 14.1426 6.72734C14.6077 6.74519 15.0657 6.84697 15.4945 7.02777C15.9233 6.84659 16.3814 6.7448 16.8465 6.72734Z" fill="#F9F02A"/>
<path d="M14.8338 7.3642C14.4772 7.2136 14.0978 7.124 13.7116 7.09912L13.6409 7.19631C14.0063 7.22679 14.3644 7.3163 14.7012 7.46138L14.8338 7.3642Z" fill="#F9F02A"/>
<path d="M15.8225 8.02686L15.6899 8.14173C16.023 8.45595 16.29 8.83353 16.4751 9.25233C16.6602 9.67114 16.7598 10.1227 16.768 10.5805L16.9712 10.4303C16.9142 9.51313 16.5021 8.65423 15.8225 8.0357" fill="#F9F02A"/>
<path d="M15.9345 7.25731C16.3192 7.09834 16.7291 7.00859 17.1451 6.99221L17.039 6.89502C16.6012 6.91138 16.1701 7.00719 15.7666 7.17779L15.9256 7.26615" fill="#F9F02A"/>
<path d="M16.2129 7.76172L16.0538 7.86775C16.7219 8.44588 17.1582 9.24623 17.2821 10.121C17.3475 10.0433 17.4066 9.96061 17.4588 9.87357C17.2877 9.05397 16.8495 8.31431 16.2129 7.77054" fill="#F9F02A"/>
<path d="M14.5254 7.62885C14.2169 7.49119 13.8891 7.4018 13.5534 7.36377C13.363 7.66601 13.2434 8.00742 13.2036 8.36243C13.1638 8.71745 13.2048 9.07689 13.3236 9.41379C13.5538 8.72526 13.9697 8.11369 14.5254 7.64654" fill="#F9F02A"/>
<path d="M16.286 7.48778C16.6228 7.34284 16.9809 7.25331 17.3463 7.22267L17.2757 7.12549C16.8894 7.15036 16.51 7.23996 16.1534 7.39057L16.286 7.48778Z" fill="#F9F02A"/>
<path d="M14.5332 10.6426C14.5332 10.6426 14.5332 10.7133 14.5332 10.7486C14.8329 10.8848 15.1583 10.9553 15.4875 10.9553C15.8167 10.9553 16.1421 10.8848 16.4418 10.7486C16.4418 10.7486 16.4418 10.6779 16.4418 10.6426C16.4415 9.77001 16.0989 8.93241 15.4875 8.30981C14.8746 8.93135 14.5316 9.76964 14.5332 10.6426Z" fill="#F9F02A"/>
<path d="M15.4981 7.29248L15.33 7.38096L15.4981 7.46947L15.6663 7.38096L15.4981 7.29248Z" fill="#F9F02A"/>
<path d="M16.479 7.62844C17.0347 8.0956 17.4506 8.70717 17.6807 9.3957C17.7995 9.05879 17.8406 8.69938 17.8008 8.34437C17.761 7.98935 17.6414 7.64795 17.451 7.3457C17.1153 7.38373 16.7875 7.47313 16.479 7.61078" fill="#F9F02A"/>
<path d="M15.3127 8.13289L15.1802 8.02686C14.5006 8.64538 14.0885 9.50429 14.0315 10.4215L14.2347 10.5717C14.2429 10.1139 14.3425 9.66232 14.5276 9.24351C14.7127 8.82471 14.9797 8.4471 15.3127 8.13289Z" fill="#F9F02A"/>
<path d="M15.3644 7.86872L15.4981 7.97573L15.6319 7.86872L15.4981 7.76172L15.3644 7.86872Z" fill="#F9F02A"/>
<path d="M14.9577 7.86775L14.7987 7.76172C14.1625 8.30592 13.7244 9.04537 13.5527 9.86473C13.6055 9.95142 13.6646 10.0341 13.7295 10.1121C13.8534 9.23739 14.2896 8.43703 14.9577 7.8589" fill="#F9F02A"/>
<path d="M15.7245 7.61958L15.8572 7.71692L16.0254 7.61958L15.8926 7.52222L15.7245 7.61958Z" fill="#F9F02A"/>
<path d="M14.9787 7.61958L15.138 7.71692L15.2708 7.61958L15.1026 7.52222L14.9698 7.61958" fill="#F9F02A"/>
</svg>
