<svg width="31" height="18" viewBox="0 0 31 18" fill="none" xmlns="http://www.w3.org/2000/svg">
<path d="M30.0561 0.181641H0.40155V17.4831H30.0561V0.181641Z" fill="#EFD928"/>
<path d="M10.2893 0.181641H0.40155V17.4831H10.2893V0.181641Z" fill="#1F00AF"/>
<path d="M30.056 0.181641H20.1682V17.4831H30.056V0.181641Z" fill="#D00524"/>
<path d="M14.2238 4.06168C14.1778 4.04682 14.1283 4.04682 14.0824 4.06168C14.1064 4.06942 14.1273 4.08487 14.1416 4.10564C14.156 4.1264 14.1631 4.15133 14.1619 4.17656V4.38862H14.0205C13.9945 4.38784 13.9694 4.37889 13.9488 4.36303C13.9282 4.34717 13.9131 4.32519 13.9057 4.30025C13.8907 4.3492 13.8907 4.40153 13.9057 4.45048C13.8901 4.49934 13.8901 4.55182 13.9057 4.60068C13.9131 4.57574 13.9282 4.5538 13.9488 4.53793C13.9694 4.52207 13.9945 4.51312 14.0205 4.51234H14.1619V5.18388C14.1631 5.20911 14.156 5.23403 14.1416 5.2548C14.1273 5.27557 14.1064 5.29101 14.0824 5.29875C14.1442 5.29875 14.2061 5.39597 14.2238 5.44898C14.2414 5.502 14.2945 5.30759 14.3652 5.29875C14.3419 5.28985 14.3218 5.27411 14.3076 5.25361C14.2934 5.23311 14.2858 5.20881 14.2856 5.18388V4.51234H14.427C14.452 4.51248 14.4763 4.52013 14.4968 4.53432C14.5173 4.54851 14.533 4.56858 14.5419 4.59186C14.5551 4.54567 14.5551 4.49668 14.5419 4.45048C14.5564 4.40146 14.5564 4.34928 14.5419 4.30025C14.5344 4.32519 14.5194 4.34717 14.4988 4.36303C14.4781 4.37889 14.453 4.38784 14.427 4.38862H14.2856V4.24724C14.2849 4.22085 14.2933 4.19503 14.3094 4.1741C14.3255 4.15318 14.3483 4.13844 14.374 4.13236C14.325 4.11736 14.2727 4.11736 14.2238 4.13236" fill="black"/>
<path d="M14.2226 4.08789H14.143C14.1597 4.10203 14.1731 4.11964 14.1822 4.13948C14.1914 4.15932 14.1961 4.18092 14.196 4.20277V4.38832H14.0282C14.0062 4.38901 13.9844 4.38458 13.9645 4.37538C13.9445 4.36617 13.927 4.35246 13.9133 4.3353C13.908 4.36452 13.908 4.39446 13.9133 4.42367C13.9082 4.45291 13.9082 4.48281 13.9133 4.51204C13.927 4.49489 13.9445 4.48115 13.9645 4.47194C13.9844 4.46274 14.0062 4.45831 14.0282 4.459H14.196V5.13056C14.196 5.15114 14.1913 5.17143 14.1821 5.18984C14.1728 5.20824 14.1595 5.22425 14.143 5.23659L14.196 5.28961V5.34263C14.1937 5.32503 14.1937 5.30721 14.196 5.28961L14.2491 5.24544C14.2326 5.23309 14.2192 5.21708 14.21 5.19868C14.2008 5.18028 14.196 5.15999 14.196 5.13941V4.52086V4.44134H14.3639C14.3857 4.44184 14.4071 4.44681 14.4269 4.45592C14.4466 4.46504 14.4643 4.47813 14.4788 4.49435C14.4927 4.43924 14.4927 4.38157 14.4788 4.32646C14.4647 4.34312 14.4471 4.35651 14.4272 4.36567C14.4074 4.37483 14.3858 4.37952 14.3639 4.37948H14.196V4.23809C14.1949 4.21691 14.1982 4.19573 14.2058 4.17594C14.2134 4.15614 14.2252 4.13819 14.2402 4.12324H14.1518" fill="#F9F92B"/>
<path d="M14.3462 6.54522L14.1076 6.49221L13.6216 6.23595L13.3123 6.21828L13.2946 5.62624L12.7026 5.14908L12.0929 5.79413L12.0134 5.98853L12.0399 11.9088L12.4287 11.4405L12.5082 11.4582L12.9147 11.0252L13.2504 10.1593L13.3565 9.80581L13.816 10.3537L13.6392 10.6717L13.7983 10.6629L13.816 10.7955L13.9662 10.7336L14.0015 10.9192L14.3196 10.5922L14.7703 10.8131L13.922 12.3241L13.6216 12.5451L14.1606 12.7571L14.7261 12.1032L14.6466 12.5274L14.4698 12.9427L15.1591 13.3403L15.9013 12.8985L15.5302 12.1386L15.6539 12.0856L16.1311 12.7748L16.6524 12.5185L15.972 11.7233L15.5214 10.7778L15.9985 10.6187L16.3166 10.928L16.3608 10.7248L16.5375 10.8043L16.511 10.6364L16.6878 10.6806L16.4757 10.3448L17.0059 9.90299L17.3328 10.9457L17.8276 11.5112L17.9337 11.4935L18.2871 11.9353V5.82949L17.6244 5.14026L16.9793 5.6616L17.0147 6.21828L16.7231 6.2271L16.299 6.44801L16.0604 6.52756L15.9455 6.55407L15.7953 6.39499L15.6009 5.99738L15.5832 5.60858L15.7069 5.36117L15.6893 5.11375L15.7953 5.12257L15.7246 4.96352L15.8218 4.91935L15.6804 4.79563L15.7246 4.7338L15.1856 4.50405L14.7703 4.47754L14.6554 4.52171L14.6024 4.61892L14.7173 4.93702L14.5936 5.05189L14.7173 5.28164V5.77647L14.6289 6.19178L14.4345 6.50987L14.3462 6.54522Z" fill="#7F6332"/>
<path d="M13.7128 10.6798L13.2975 11.3072L13.1031 11.2984L12.891 11.3956L12.8292 11.6165L12.8645 11.7225L13.0854 11.9611L13.2622 11.8639L13.4035 11.7048L13.4389 11.5635L13.9602 10.8919L13.9337 10.724L13.8277 10.7947L13.7835 10.6533L13.7128 10.6798Z" fill="#C11B2C"/>
<path d="M16.33 10.8654L16.8778 11.6077L16.9308 11.749L17.1694 11.9699L17.2401 11.9523L17.5052 11.643L17.4522 11.4309L17.1959 11.2807L17.0103 11.2984L16.6039 10.6798L16.5244 10.6533L16.4978 10.7682L16.3741 10.7328L16.33 10.8654Z" fill="#C11B2C"/>
<path d="M14.6613 4.44225C14.7366 4.42241 14.8157 4.42241 14.891 4.44225L14.8292 4.59248C14.998 4.59119 15.1647 4.63057 15.3152 4.70733C15.4326 4.76515 15.5536 4.81534 15.6774 4.85756H15.6951C15.7582 4.89582 15.8124 4.94703 15.8542 5.00779C15.7305 5.00779 15.6598 4.97244 15.7305 5.00779C15.8011 5.04313 15.8012 5.2552 15.8012 5.2552L15.7471 5.21779C15.7531 5.23239 15.7565 5.24804 15.757 5.26402H15.6903C15.6905 5.29939 15.6892 5.33477 15.6863 5.37005C15.6863 5.40985 15.663 5.45323 15.6374 5.49858C15.6363 5.51762 15.635 5.53664 15.6333 5.55563C15.6333 5.59753 15.6014 5.64187 15.5712 5.69383C15.5715 5.92166 15.6325 6.14544 15.7481 6.34205C15.8011 6.42557 15.8702 6.49769 15.9514 6.55414C16.0707 6.51869 16.1862 6.47132 16.296 6.41275C16.4695 6.27466 16.6771 6.18611 16.8969 6.15649V5.97976C16.8969 5.87372 16.7908 5.69702 16.8969 5.67051C17.0029 5.644 17.321 5.26402 17.6037 5.09613C17.9504 5.29064 18.2142 5.60477 18.346 5.97976V11.9266C18.352 11.9997 18.3699 12.0713 18.399 12.1386C18.1897 11.9831 18.0201 11.7802 17.9042 11.5466V11.6173C17.6961 11.4957 17.5298 11.3139 17.427 11.096V11.1667C17.2088 10.7743 17.0509 10.3513 16.9587 9.91191V9.691C17.0252 10.0617 17.1569 10.4177 17.3475 10.7425V6.97826L17.1884 7.12849L16.941 6.89874V6.72203L17.1619 6.92524V6.75826L17.1531 6.7662V6.38073L17.0912 6.28021C17.0128 6.41759 16.9146 6.54263 16.7996 6.65132C16.782 6.56296 16.6318 6.47459 16.6318 6.47459C16.6318 6.47459 16.5787 6.65132 16.4992 6.65132C16.4417 6.59224 16.3778 6.53974 16.3087 6.49478L16.296 6.50112C16.1942 6.53956 16.0866 6.56045 15.9779 6.56295L16.1546 6.66898C16.006 6.66739 15.859 6.63742 15.7216 6.58064C15.7154 6.57676 15.7091 6.57284 15.7029 6.56888C15.7298 6.61798 15.7628 6.66349 15.8012 6.70434C15.7195 6.6601 15.6457 6.61193 15.5858 6.56185C15.6068 6.59982 15.6316 6.63571 15.6598 6.66898C15.5758 6.66606 15.4936 6.64478 15.4188 6.60661C15.3439 6.56844 15.2784 6.51431 15.2268 6.44808C15.2049 6.51488 15.172 6.5776 15.1296 6.63366C15.09 6.57588 15.0573 6.51357 15.0324 6.44808C14.9821 6.51365 14.9181 6.56742 14.8448 6.60559C14.7716 6.64375 14.6908 6.66538 14.6083 6.66898C14.6641 6.60452 14.7062 6.52935 14.732 6.44808C14.6739 6.49741 14.6119 6.54177 14.5464 6.58064C14.409 6.63742 14.2621 6.66739 14.1134 6.66898L14.2901 6.56295C14.1814 6.56012 14.0739 6.53923 13.972 6.50112L13.9544 6.49227C13.8838 6.53779 13.8186 6.59114 13.76 6.65132C13.6805 6.61598 13.6274 6.47459 13.6274 6.47459C13.6274 6.47459 13.4595 6.56296 13.4595 6.65132C13.3486 6.54123 13.2535 6.41635 13.1768 6.28021L13.1061 6.39506V6.92524L13.327 6.72203V6.89874L13.0796 7.12849L12.9117 6.97826V10.7425C13.1039 10.4185 13.2356 10.0622 13.3005 9.691V9.74401C13.2083 10.1834 13.0504 10.6064 12.8322 10.9988V10.9281C12.7294 11.1461 12.5631 11.3278 12.355 11.4494V11.3787C12.2394 11.6125 12.0698 11.8155 11.8602 11.9707C11.8893 11.9034 11.9072 11.8318 11.9132 11.7587V5.81187C12.045 5.43688 12.3088 5.12275 12.6555 4.92824C12.9471 5.09613 13.3623 5.39658 13.3623 5.50262V5.81187V6.01511C13.582 6.04515 13.7895 6.13366 13.9632 6.27137C14.0731 6.32972 14.1886 6.37708 14.3078 6.41275C14.3882 6.35529 14.4571 6.28336 14.511 6.20066C14.5858 6.06072 14.6378 5.91062 14.6659 5.75595C14.6683 5.69526 14.6668 5.63425 14.6613 5.5733C14.6673 5.43342 14.6401 5.29411 14.5818 5.16683C14.5818 5.16683 14.5818 5.07982 14.6409 5.06344C14.6303 5.04174 14.6183 5.02065 14.6049 5.00032C14.5276 4.88367 14.4087 4.80097 14.2725 4.76919C14.3697 4.77803 14.6613 4.8399 14.6613 4.8399C14.6613 4.83825 14.661 4.83647 14.6604 4.83457C14.642 4.82083 14.6267 4.80522 14.6176 4.78775C14.5645 4.74904 14.4678 4.70733 14.352 4.70733C14.3193 4.70926 14.2875 4.71814 14.2585 4.73338C14.2296 4.74862 14.2042 4.76987 14.1841 4.7957C14.1841 4.7957 14.1929 4.53947 14.4315 4.53947C14.4832 4.55634 14.5389 4.55634 14.5906 4.53947C14.6171 4.52179 14.6083 4.44225 14.6613 4.44225Z" fill="black"/>
<path d="M13.5302 10.5658C13.6135 10.445 13.6873 10.3179 13.7511 10.1858V10.2123H13.813C13.813 10.2123 13.7246 10.4774 13.6451 10.4774C13.6913 10.4907 13.7403 10.4907 13.7865 10.4774V10.61C13.8287 10.5978 13.8679 10.5767 13.9013 10.5481C13.9188 10.6003 13.9335 10.6534 13.9455 10.7072C14.0403 10.6191 14.1288 10.5246 14.2106 10.4244L14.3078 10.4863C14.1543 10.6058 14.0176 10.7455 13.9013 10.9016C13.9033 10.878 13.9033 10.8544 13.9013 10.8309L13.433 11.4583C13.3535 11.5113 13.3535 11.5731 13.3535 11.6261V11.6261C13.2912 11.7103 13.2167 11.7847 13.1326 11.847C13.1108 11.8587 13.0866 11.8647 13.0619 11.8647C13.0373 11.8647 13.013 11.8587 12.9912 11.847L12.7968 11.6085C12.7652 11.567 12.744 11.5185 12.735 11.4671C12.7379 11.4047 12.7561 11.344 12.788 11.2904C12.8666 11.1989 12.9715 11.1341 13.0884 11.1048C13.1856 11.1048 13.2298 11.1667 13.3005 11.0429C13.3712 10.9192 13.6186 10.5658 13.6186 10.5658H13.5302Z" fill="black"/>
<path d="M13.3519 11.8018L13.6617 11.9699L13.582 12.3151L13.2811 12.1469L13.3519 11.8018Z" fill="black"/>
<path d="M11.9214 8.52319L11.8065 8.57621L13.0524 11.3155H13.2026L11.9214 8.52319ZM13.397 11.7484L13.3087 11.8456L13.3617 11.9693L13.4766 11.9163L13.397 11.7484Z" fill="black"/>
<path d="M13.3982 11.8999L13.584 12.0061L13.5398 12.2185L13.3539 12.1123L13.3982 11.8999Z" fill="#F9F92B"/>
<path d="M12.3121 10.6798C12.3121 10.6798 12.4182 10.9007 12.4977 10.9272C12.4392 10.9175 12.3795 10.9175 12.321 10.9272C12.4451 11.0419 12.5976 11.1213 12.7628 11.157C12.8067 11.1626 12.8512 11.1592 12.8937 11.147C12.9363 11.1349 12.9759 11.1142 13.0102 11.0863V10.9096C12.9346 10.8272 12.8408 10.7636 12.7363 10.724C12.6067 10.6861 12.4734 10.6623 12.3386 10.6533" fill="black"/>
<path d="M13.106 10.2913C13.0226 10.3624 12.9587 10.4537 12.9204 10.5564C12.8907 10.6573 12.8907 10.7647 12.9204 10.8656L13.0441 11.0954C13.1406 11.0424 13.2225 10.9665 13.2827 10.8745C13.3274 10.7748 13.3427 10.6644 13.3269 10.5564C13.2743 10.574 13.2238 10.5977 13.1767 10.627C13.1812 10.5076 13.1471 10.3898 13.0795 10.2913" fill="black"/>
<path d="M12.6345 10.2383C12.5289 10.2719 12.4183 10.2868 12.3076 10.2825C12.2002 10.2682 12.1007 10.2184 12.0248 10.1411C12.0248 10.1411 12.1485 10.0527 12.2104 10.0704C12.1397 10.0704 12.0425 9.87598 12.0425 9.87598C12.1289 9.84993 12.2211 9.84993 12.3076 9.87598C12.4009 9.91777 12.4827 9.98144 12.5462 10.0616L12.6345 10.2383Z" fill="black"/>
<path d="M12.6871 9.42554C12.6871 9.42554 12.7755 9.59341 12.749 9.65526C12.7858 9.61758 12.8274 9.58491 12.8727 9.55808C12.9027 9.70382 12.9027 9.85415 12.8727 9.99989C12.8524 10.053 12.8215 10.1015 12.7821 10.1425C12.7426 10.1835 12.6953 10.2161 12.6429 10.2385L12.4574 9.87617C12.4323 9.79561 12.4323 9.70931 12.4574 9.62875C12.5093 9.54976 12.5752 9.4809 12.6518 9.42554H12.6871Z" fill="black"/>
<path d="M11.6185 8.9746C11.7324 8.96477 11.8469 8.97983 11.9543 9.01877C12.0307 9.04846 12.0935 9.10505 12.1311 9.17784L12.2017 9.35455C12.0895 9.38927 11.9694 9.38927 11.8571 9.35455C11.7481 9.30152 11.6562 9.21884 11.592 9.11598C11.6414 9.10433 11.6929 9.10433 11.7423 9.11598C11.6804 9.11598 11.6185 8.9746 11.6185 8.9746Z" fill="black"/>
<path d="M12.1776 8.6394C12.2263 8.70379 12.2568 8.78009 12.2659 8.86031C12.2921 8.80696 12.3317 8.76131 12.3808 8.72777C12.4364 8.85902 12.4635 9.00058 12.4603 9.14308C12.4407 9.25222 12.3808 9.35 12.2924 9.417L12.1069 9.07237C12.0895 8.99082 12.0895 8.90651 12.1069 8.82496C12.1252 8.75277 12.1653 8.68798 12.2218 8.6394" fill="black"/>
<path d="M11.5558 7.98462C11.5311 8.08025 11.5311 8.18057 11.5558 8.2762C11.5761 8.31847 11.6029 8.35725 11.6353 8.39108C11.5625 8.34892 11.4807 8.3247 11.3967 8.3204C11.4272 8.43224 11.4884 8.53326 11.5735 8.61199C11.6657 8.66948 11.7746 8.69436 11.8827 8.68266C11.953 8.58436 11.9929 8.46765 11.9976 8.34691C11.9786 8.2155 11.9269 8.09095 11.8474 7.98462C11.819 8.04911 11.8011 8.1177 11.7944 8.18784C11.7767 8.09947 11.5558 7.98462 11.5558 7.98462Z" fill="black"/>
<path d="M11.6142 8.09985C11.5999 8.16993 11.5999 8.24217 11.6142 8.31225C11.6521 8.36251 11.7047 8.39964 11.7647 8.41845C11.7816 8.34866 11.7816 8.27585 11.7647 8.20605C11.731 8.1555 11.6811 8.11802 11.6231 8.09985" fill="#285F37"/>
<path d="M11.5193 8.4093C11.5855 8.41378 11.6495 8.43511 11.7051 8.47126C11.7516 8.51441 11.7853 8.56952 11.8025 8.63056C11.7489 8.63249 11.6961 8.61697 11.652 8.58632C11.5979 8.53539 11.553 8.4755 11.5193 8.4093Z" fill="#285F37"/>
<path d="M11.893 8.12653C11.8798 8.18779 11.8798 8.25113 11.893 8.31238C11.9006 8.38354 11.9216 8.45262 11.9549 8.51595C11.983 8.4486 11.9981 8.37649 11.9992 8.30352C11.9929 8.23629 11.9684 8.17205 11.9284 8.11768" fill="#285F37"/>
<path d="M11.6878 9.0105C11.7279 9.06268 11.7793 9.10504 11.8382 9.13439C11.9086 9.16275 11.9836 9.17778 12.0595 9.17866C12.0162 9.12385 11.9619 9.07862 11.9002 9.04588C11.8301 9.03205 11.7579 9.03205 11.6878 9.04588" fill="#285F37"/>
<path d="M11.7184 9.19531C11.7474 9.24738 11.7903 9.29029 11.8423 9.3192C11.9215 9.33164 12.0021 9.33164 12.0813 9.3192C12.0428 9.27124 11.9945 9.23205 11.9397 9.20417C11.8664 9.19258 11.7917 9.19258 11.7184 9.20417" fill="#285F37"/>
<path d="M12.1693 8.75439C12.1555 8.80959 12.1555 8.86736 12.1693 8.92255C12.1768 8.98537 12.198 9.04577 12.2313 9.09954C12.2413 9.03502 12.2413 8.96935 12.2313 8.90483C12.2279 8.85073 12.2095 8.79865 12.1782 8.75439" fill="#285F37"/>
<path d="M12.3144 8.85962C12.2664 8.92551 12.2332 9.00098 12.2171 9.08088C12.2128 9.16004 12.228 9.23904 12.2613 9.31099C12.3162 9.25173 12.353 9.17803 12.3675 9.09857C12.3695 9.01471 12.348 8.93197 12.3055 8.85962" fill="#285F37"/>
<path d="M12.1254 9.89392C12.1207 9.92027 12.1207 9.94722 12.1254 9.97357C12.1547 10.0063 12.1874 10.036 12.2227 10.0621C12.2635 10.0526 12.3059 10.0526 12.3466 10.0621C12.4065 10.0796 12.4633 10.1065 12.5148 10.1417C12.4599 10.0621 12.3909 9.99309 12.3112 9.93816C12.2393 9.91513 12.1619 9.91513 12.09 9.93816" fill="#285F37"/>
<path d="M12.1091 10.1496C12.1878 10.1318 12.2695 10.1318 12.3481 10.1496C12.423 10.1647 12.4929 10.1981 12.5516 10.247C12.4699 10.2637 12.3856 10.2637 12.3038 10.247C12.2348 10.2356 12.1704 10.2049 12.118 10.1585" fill="#285F37"/>
<path d="M12.6544 9.54907C12.5946 9.61083 12.5519 9.68708 12.5305 9.77033C12.5329 9.84698 12.5646 9.9198 12.619 9.9739C12.6122 9.93585 12.6122 9.89689 12.619 9.85884C12.6324 9.82696 12.6502 9.79715 12.6721 9.77033C12.6785 9.7382 12.6785 9.70512 12.6721 9.67299C12.6634 9.62975 12.6485 9.58799 12.6278 9.54907" fill="#285F37"/>
<path d="M12.8179 9.68977C12.7574 9.75252 12.712 9.82817 12.6851 9.91103C12.6627 9.98911 12.6627 10.0719 12.6851 10.15C12.7456 10.0995 12.7889 10.0314 12.809 9.95527C12.8284 9.86484 12.8284 9.77134 12.809 9.68091" fill="#285F37"/>
<path d="M13.0913 10.3876C13.1187 10.447 13.1395 10.5094 13.1532 10.5734C13.1595 10.6115 13.1595 10.6504 13.1532 10.6885L13.0824 10.7681C13.0738 10.803 13.0738 10.8395 13.0824 10.8743C13.0287 10.7991 12.998 10.71 12.9939 10.6177C13.0186 10.5338 13.0643 10.4577 13.1267 10.3964" fill="#285F37"/>
<path d="M13.2977 10.627C13.2292 10.6757 13.1694 10.7355 13.1207 10.804C13.0997 10.8611 13.0997 10.9238 13.1207 10.981C13.15 10.976 13.1778 10.9648 13.2023 10.948C13.2268 10.9311 13.2473 10.9092 13.2623 10.8836C13.2957 10.8021 13.3137 10.715 13.3154 10.627" fill="#285F37"/>
<path d="M12.45 10.9811C12.55 10.9705 12.6509 10.9705 12.7509 10.9811C12.8128 10.9909 12.8692 11.0222 12.9102 11.0696C12.8323 11.093 12.7492 11.093 12.6713 11.0696C12.5891 11.0421 12.5158 10.9932 12.4589 10.928" fill="#285F37"/>
<path d="M12.4155 10.7687C12.4648 10.8429 12.5317 10.9037 12.6102 10.9457C12.7174 10.9751 12.8305 10.9751 12.9377 10.9457C12.8768 10.8745 12.8014 10.8171 12.7164 10.7776C12.6222 10.7465 12.5235 10.7316 12.4244 10.7333" fill="#285F37"/>
<path d="M13.0228 11.1134V11.1842C13.1379 11.1842 13.1556 11.1842 13.1821 11.1842C13.1988 11.1964 13.219 11.203 13.2397 11.203C13.2604 11.203 13.2805 11.1964 13.2972 11.1842C13.3134 11.1676 13.3225 11.1454 13.3225 11.1222C13.3225 11.099 13.3134 11.0768 13.2972 11.0603C13.2877 11.0414 13.2717 11.0266 13.2523 11.0185C13.2328 11.0104 13.211 11.0095 13.191 11.016C13.191 11.016 13.191 11.016 13.129 11.016C13.0793 11.0248 13.0283 11.0248 12.9786 11.016" fill="black"/>
<path d="M13.3009 11.1211C13.3074 11.1302 13.311 11.141 13.311 11.1522C13.311 11.1634 13.3074 11.1742 13.3009 11.1833C13.2912 11.192 13.2785 11.1969 13.2654 11.1969C13.2523 11.1969 13.2396 11.192 13.2299 11.1833C13.2233 11.1742 13.2198 11.1634 13.2198 11.1522C13.2198 11.141 13.2233 11.1302 13.2299 11.1211C13.2382 11.1129 13.2493 11.1084 13.261 11.1084C13.2726 11.1084 13.2838 11.1129 13.2921 11.1211H13.3009Z" fill="#F9F92B"/>
<path d="M13.0056 11.0596H13.0587C12.9968 11.1569 12.9879 11.1658 12.9968 11.21C13.0071 11.2258 13.0125 11.2443 13.0125 11.2631C13.0125 11.282 13.0071 11.3004 12.9968 11.3162C12.9802 11.3325 12.958 11.3415 12.9348 11.3415C12.9117 11.3415 12.8894 11.3325 12.8729 11.3162C12.8651 11.3088 12.8589 11.2999 12.8547 11.29C12.8505 11.2801 12.8483 11.2695 12.8483 11.2587C12.8483 11.248 12.8505 11.2373 12.8547 11.2274C12.8589 11.2175 12.8651 11.2086 12.8729 11.2012C12.8729 11.2012 12.9171 11.2012 12.9348 11.2012C12.9731 11.1681 13.0059 11.1293 13.0322 11.0861" fill="black"/>
<path d="M12.8683 11.3074C12.8781 11.3161 12.8907 11.321 12.9038 11.321C12.9169 11.321 12.9295 11.3161 12.9392 11.3074C12.9447 11.3033 12.9492 11.2979 12.9523 11.2918C12.9554 11.2856 12.957 11.2789 12.957 11.272C12.957 11.2651 12.9554 11.2583 12.9523 11.2522C12.9492 11.246 12.9447 11.2407 12.9392 11.2365C12.9309 11.2284 12.9198 11.2239 12.9082 11.2239C12.8966 11.2239 12.8855 11.2284 12.8772 11.2365C12.8685 11.2463 12.8636 11.2589 12.8636 11.272C12.8636 11.2851 12.8685 11.2977 12.8772 11.3074H12.8683Z" fill="#F9F92B"/>
<path d="M12.6312 10.2651V10.336C12.7463 10.336 12.7551 10.336 12.7905 10.336C12.8063 10.3462 12.8248 10.3517 12.8436 10.3517C12.8625 10.3517 12.8809 10.3462 12.8967 10.336C12.9082 10.3313 12.9186 10.3242 12.9271 10.3152C12.9357 10.3062 12.9423 10.2955 12.9465 10.2839C12.9506 10.2722 12.9523 10.2597 12.9513 10.2474C12.9504 10.235 12.9469 10.223 12.941 10.212C12.9371 10.202 12.9312 10.1929 12.9237 10.1852C12.9162 10.1775 12.9073 10.1714 12.8973 10.1673C12.8874 10.1631 12.8767 10.161 12.866 10.1611C12.8552 10.1612 12.8446 10.1635 12.8348 10.1678C12.8348 10.1678 12.8348 10.1678 12.7728 10.1678C12.723 10.1766 12.6721 10.1766 12.6224 10.1678" fill="black"/>
<path d="M12.9065 10.2737C12.9147 10.282 12.9192 10.2932 12.9192 10.3048C12.9192 10.3164 12.9147 10.3276 12.9065 10.3359C12.8967 10.3447 12.8841 10.3495 12.871 10.3495C12.8578 10.3495 12.8452 10.3447 12.8354 10.3359C12.8289 10.3268 12.8254 10.316 12.8254 10.3048C12.8254 10.2936 12.8289 10.2828 12.8354 10.2737C12.8437 10.2655 12.8549 10.261 12.8665 10.261C12.8781 10.261 12.8893 10.2655 12.8976 10.2737H12.9065Z" fill="#F9F92B"/>
<path d="M12.6482 10.2913L12.6925 10.3355C12.6216 10.424 12.5951 10.424 12.6128 10.4683C12.6142 10.489 12.609 10.5096 12.5978 10.5271C12.5867 10.5446 12.5702 10.5581 12.5508 10.5656C12.5297 10.5746 12.5058 10.5751 12.4843 10.5668C12.4629 10.5586 12.4455 10.5423 12.4358 10.5214C12.4227 10.5068 12.4155 10.4879 12.4155 10.4683C12.4155 10.4487 12.4227 10.4298 12.4358 10.4152C12.4592 10.4104 12.4832 10.4104 12.5066 10.4152C12.5512 10.3872 12.5902 10.3512 12.6217 10.309" fill="black"/>
<path d="M12.4869 10.5036C12.4952 10.5117 12.5064 10.5163 12.518 10.5163C12.5297 10.5163 12.5409 10.5117 12.5492 10.5036C12.5557 10.4945 12.5592 10.4836 12.5592 10.4724C12.5592 10.4613 12.5557 10.4504 12.5492 10.4413C12.5394 10.4326 12.5267 10.4277 12.5136 10.4277C12.5005 10.4277 12.4878 10.4326 12.478 10.4413C12.4699 10.4496 12.4653 10.4608 12.4653 10.4724C12.4653 10.4841 12.4699 10.4953 12.478 10.5036H12.4869Z" fill="#F9F92B"/>
<path d="M12.2585 9.46909V9.53988C12.3735 9.53988 12.3824 9.53988 12.4178 9.53988C12.4345 9.5521 12.4546 9.5587 12.4753 9.5587C12.496 9.5587 12.5162 9.5521 12.5328 9.53988C12.5551 9.53166 12.5733 9.51494 12.5832 9.49337C12.5932 9.47179 12.5942 9.44714 12.5859 9.42484C12.5777 9.40255 12.561 9.3844 12.5394 9.37445C12.5179 9.36449 12.4932 9.36353 12.4709 9.37174C12.4709 9.37174 12.4709 9.37174 12.409 9.37174C12.3592 9.38016 12.3083 9.38016 12.2585 9.37174" fill="black"/>
<path d="M12.5307 9.4877C12.539 9.4961 12.5436 9.5074 12.5436 9.51917C12.5436 9.53094 12.539 9.54225 12.5307 9.55065C12.5215 9.55724 12.5105 9.56078 12.4992 9.56078C12.488 9.56078 12.477 9.55724 12.4678 9.55065C12.4612 9.54148 12.4576 9.53047 12.4576 9.51917C12.4576 9.50788 12.4612 9.49687 12.4678 9.4877C12.4762 9.47946 12.4875 9.47485 12.4992 9.47485C12.511 9.47485 12.5223 9.47946 12.5307 9.4877Z" fill="#F9F92B"/>
<path d="M12.3201 9.46069L12.3643 9.50496C12.2935 9.59346 12.2758 9.59346 12.2847 9.63771C12.2868 9.65741 12.2828 9.67728 12.2734 9.69467C12.2639 9.71207 12.2493 9.72616 12.2316 9.73505C12.2207 9.74094 12.2086 9.74448 12.1962 9.74542C12.1839 9.74636 12.1715 9.74471 12.1598 9.74053C12.1481 9.73636 12.1374 9.72976 12.1284 9.7212C12.1195 9.71263 12.1124 9.70229 12.1077 9.69081C12.0962 9.67549 12.09 9.65686 12.09 9.63771C12.09 9.61856 12.0962 9.59993 12.1077 9.58461H12.1785C12.2227 9.55978 12.2617 9.52672 12.2935 9.48724" fill="black"/>
<path d="M12.11 9.69111C12.1198 9.69985 12.1324 9.70469 12.1455 9.70469C12.1586 9.70469 12.1713 9.69985 12.1811 9.69111V9.6289C12.1728 9.62076 12.1616 9.61621 12.15 9.61621C12.1383 9.61621 12.1272 9.62076 12.1189 9.6289C12.1101 9.63868 12.1053 9.65134 12.1053 9.66445C12.1053 9.67757 12.1101 9.69023 12.1189 9.7L12.11 9.69111Z" fill="#F9F92B"/>
<path d="M11.8525 8.63044V8.70126C11.9675 8.70126 11.9764 8.70126 12.0118 8.70126C12.0285 8.71349 12.0486 8.72006 12.0693 8.72006C12.09 8.72006 12.1101 8.71349 12.1268 8.70126C12.1383 8.69655 12.1487 8.68947 12.1572 8.68049C12.1658 8.67152 12.1724 8.66084 12.1765 8.64916C12.1807 8.63748 12.1824 8.62504 12.1814 8.61267C12.1805 8.6003 12.177 8.58826 12.1711 8.57734C12.1616 8.55852 12.1456 8.54373 12.1262 8.53562C12.1067 8.5275 12.0849 8.52661 12.0649 8.5331C12.0649 8.5331 12.0649 8.5331 12.0029 8.5331C11.9531 8.54136 11.9023 8.54136 11.8525 8.5331" fill="black"/>
<path d="M12.1271 8.64768C12.1353 8.65605 12.1399 8.6673 12.1399 8.67901C12.1399 8.69073 12.1353 8.70198 12.1271 8.71034C12.118 8.7169 12.107 8.72042 12.0958 8.72042C12.0845 8.72042 12.0736 8.7169 12.0644 8.71034C12.0591 8.70225 12.056 8.69284 12.0555 8.68314C12.0551 8.67344 12.0573 8.66381 12.0619 8.65525C12.0665 8.64669 12.0733 8.63956 12.0816 8.63457C12.09 8.62959 12.0995 8.62695 12.1092 8.62695C12.1189 8.62695 12.1284 8.62959 12.1368 8.63457C12.1451 8.63956 12.1519 8.64669 12.1565 8.65525C12.1611 8.66381 12.1633 8.67344 12.1628 8.68314C12.1624 8.69284 12.1593 8.70225 12.154 8.71034L12.1271 8.64768Z" fill="#F9F92B"/>
<path d="M11.8923 8.62134L11.9365 8.66558C11.8657 8.74523 11.8392 8.75408 11.848 8.79833C11.8501 8.81803 11.8462 8.83792 11.8367 8.85532C11.8272 8.87271 11.8126 8.8868 11.7949 8.8957C11.784 8.90159 11.772 8.90513 11.7596 8.90607C11.7472 8.90701 11.7348 8.90532 11.7231 8.90115C11.7114 8.89698 11.7008 8.89041 11.6918 8.88184C11.6828 8.87327 11.6757 8.8629 11.671 8.85143C11.6595 8.83611 11.6533 8.81748 11.6533 8.79833C11.6533 8.77918 11.6595 8.76055 11.671 8.74523H11.7418C11.7864 8.71726 11.8254 8.68125 11.8569 8.63903" fill="black"/>
<path d="M11.7132 8.80724C11.7216 8.81539 11.7327 8.81994 11.7444 8.81994C11.756 8.81994 11.7672 8.81539 11.7755 8.80724C11.782 8.79818 11.7855 8.78729 11.7855 8.77613C11.7855 8.76496 11.782 8.75408 11.7755 8.74501C11.7657 8.73626 11.753 8.73145 11.7399 8.73145C11.7268 8.73145 11.7141 8.73626 11.7043 8.74501C11.6962 8.75332 11.6917 8.76449 11.6917 8.77613C11.6917 8.78776 11.6962 8.79894 11.7043 8.80724" fill="#F9F92B"/>
<path d="M12.561 10.0626C12.561 10.0626 12.4636 9.90329 12.4194 9.81479C12.3751 9.72628 12.2866 9.56697 12.3132 9.55812C12.3397 9.54927 12.3751 9.62007 12.4282 9.72628C12.4813 9.83248 12.6052 10.0537 12.5698 10.0714" fill="#F9F92B"/>
<path d="M12.149 9.15219C12.149 9.15219 12.0605 9.05483 12.0251 8.95748C11.9897 8.86012 11.9366 8.78931 11.9631 8.78046C11.9897 8.77161 12.0339 8.85127 12.0693 8.93093C12.1047 9.01058 12.1844 9.13448 12.149 9.15219Z" fill="#F9F92B"/>
<path d="M13.1046 11.2283C12.9859 11.069 12.8906 10.8934 12.8218 10.707C12.7158 10.4684 12.6274 10.274 12.6539 10.2563C12.7494 10.3993 12.8266 10.5537 12.8837 10.7158C12.9741 10.8789 13.0481 11.0506 13.1046 11.2283Z" fill="#F9F92B"/>
<path d="M13.3424 8.47949L13.3513 9.95513L13.4573 10.1319L14.1377 10.5118L15.0213 10.9183L15.1362 11.0332L15.8961 10.6179L16.7885 10.1937L16.9564 9.93747V8.48834L13.3424 8.47949Z" fill="#2E59A0"/>
<path d="M13.2927 6.70386L13.3369 6.8364V8.53297L13.3987 8.60365L13.9201 8.66551L14.4856 8.58599L15.0423 8.67435H15.1483H15.2543L15.811 8.58599L16.3765 8.66551L16.8979 8.60365L16.9597 8.53297V6.8364L17.0039 6.70386H13.3015H13.2927Z" fill="#C11B2C"/>
<path d="M13.4803 8.59433L13.7631 8.4883L13.9575 8.32922L14.0901 8.47945L14.364 8.58548L14.1431 8.71802L13.9487 8.88591L13.7719 8.75337L13.4803 8.59433Z" fill="#F9F92B"/>
<path d="M16.3407 8.33838L16.217 8.47976L15.9431 8.58579L16.1994 8.74484L16.3584 8.89507L16.544 8.74484L16.8267 8.60346L16.5351 8.48861L16.3407 8.33838Z" fill="#F9F92B"/>
<path d="M15.1463 6.94263L15.0668 7.19886L14.8194 7.08398L14.9342 7.3314L14.6868 7.41977L14.9342 7.50813L14.8282 7.75555L15.058 7.63185L15.1463 7.88809L15.2435 7.63185L15.4733 7.73789L15.3672 7.50813L15.6147 7.41977L15.3761 7.32258L15.4821 7.07517L15.2435 7.19004L15.1463 6.94263Z" fill="#F9F92B"/>
<path d="M15.7943 6.89828L15.8739 7.1722L15.9976 7.52565L16.0153 7.85261L15.8739 8.09118L15.6265 8.19721L15.4939 8.24138L15.3349 8.15304L15.1493 8.25907L14.9549 8.14419L14.7958 8.25907L14.6898 8.18837L14.5131 8.16186L14.3099 7.9498L14.2657 7.56984L14.5131 6.88062L14.2038 7.13685L13.9476 7.49032V7.95864L14.1331 8.26792L14.4689 8.49764L14.5661 8.51533L14.407 8.81576L14.681 8.9041L14.8312 9.04548L14.9107 9.3371L14.8931 9.95562L14.8047 10.1058L14.6191 10.2295L14.6103 10.3533L14.8135 10.477L14.9902 10.6272H15.2553L15.4851 10.4681L15.6795 10.3621L15.6265 10.1854L15.4232 10.0263L15.3879 9.5315L15.4409 9.03667L15.7413 8.85109L15.8915 8.79807L15.7325 8.49764L15.9799 8.40927L16.2538 8.1707L16.3775 7.69354L16.3068 7.40195L16.1124 7.16338L15.7943 6.89828Z" fill="#F9F92B"/>
<path d="M14.6406 9.03638L14.7566 9.15231L14.6496 9.26821L14.5336 9.15231L14.6406 9.03638Z" fill="#F9F92B"/>
<path d="M15.6658 9.0188L15.541 9.14365L15.648 9.25958L15.7817 9.15258L15.6658 9.0188Z" fill="#F9F92B"/>
<path d="M15.7409 9.33704L15.5289 9.39005L15.4758 9.51375V9.84953L15.5642 10.0439L15.6791 10.0969L15.6614 9.64631L15.7409 9.33704Z" fill="#F9F92B"/>
<path d="M14.5527 9.33716L14.6323 9.71711V10.0882L14.7383 10.0087L14.809 9.84083L14.8178 9.55806L14.7648 9.38133L14.5527 9.33716Z" fill="#F9F92B"/>
<path d="M16.5004 9.63685L16.2529 9.52197L16.0144 9.57499L15.8907 9.71637L15.8818 9.95494L16.0585 10.1582L16.0939 10.167V9.94612L16.2795 9.68986L16.5004 9.63685Z" fill="#F9F92B"/>
<path d="M14.1537 9.56715L14.136 9.46111L13.9946 9.38159L13.8886 9.42579L13.8356 9.54064L13.8621 9.63785L13.7472 9.62901L13.65 9.71737L13.6412 9.84109L13.703 9.91177L13.7914 9.94713L13.8444 9.93828L13.8002 10.0443L13.8356 10.1503L13.9416 10.2122L14.0653 10.1857L14.1272 10.062L14.2244 10.1327L14.3569 10.1062L14.4276 9.98245L14.3746 9.8676L14.3127 9.82341L14.4011 9.77923L14.4364 9.63785L14.3216 9.50531L14.2067 9.52298L14.1537 9.56715Z" fill="#F9F92B"/>
<path d="M13.8791 7.68514C13.8791 7.18147 14.5242 6.92522 14.5242 6.80151H14.6037C14.6656 7.03126 14.3916 7.20798 14.3916 7.68514C14.3916 8.16228 14.6479 8.16228 14.7274 8.16228H14.7274C14.8069 8.16228 14.8069 8.21529 14.8688 8.21529C14.9307 8.21529 14.966 8.12695 15.0278 8.12695C15.0897 8.12695 15.125 8.22414 15.2134 8.22414C15.3018 8.22414 15.3371 8.12695 15.4078 8.12695C15.4785 8.12695 15.5492 8.21529 15.5757 8.21529C15.6022 8.21529 15.7171 8.16228 15.7171 8.16228C15.7171 8.16228 16.0529 8.05626 16.0529 7.68514C16.0529 7.31402 15.7789 7.01358 15.8408 6.80151C15.8584 6.90755 16.4858 7.1638 16.4858 7.68514C16.4826 7.87217 16.4202 8.05336 16.3074 8.20262C16.1947 8.35189 16.0375 8.46153 15.8585 8.51575V8.55992L16.0087 8.83384C15.8666 8.84124 15.7292 8.88704 15.611 8.96638C15.4608 9.10776 15.4608 9.39938 15.4608 9.62028C15.4434 9.76986 15.481 9.92065 15.5668 10.0444C15.6817 10.1416 15.7612 10.1593 15.7612 10.2653C15.7612 10.3714 15.7259 10.3713 15.5668 10.4509C15.4078 10.5304 15.4078 10.6453 15.178 10.6453C14.9483 10.6453 14.9218 10.5216 14.7981 10.4509C14.6744 10.3802 14.5949 10.3802 14.5949 10.2653C14.5949 10.1504 14.6832 10.1416 14.7981 10.0444C14.8046 10.035 14.8108 10.0255 14.8168 10.0158C14.8153 10.0175 14.8137 10.0192 14.8122 10.0208C14.7673 10.0688 14.7107 10.1043 14.6479 10.1239C14.6922 9.82726 14.6649 9.5243 14.5683 9.2403L14.8423 9.31101C14.8922 9.36808 14.9018 9.62099 14.9037 9.76746C14.9096 9.71894 14.9099 9.66955 14.9041 9.62028C14.9041 9.45993 14.9142 9.24906 14.8466 9.09462L14.7009 9.2403L14.5507 9.0901L14.7009 8.93987L14.8388 9.07779C14.8178 9.0349 14.7902 8.99693 14.7539 8.96638C14.6354 8.88783 14.4982 8.8421 14.3563 8.83384L14.4829 8.60302C14.3166 8.68212 14.1635 8.78678 14.0293 8.91337C13.8546 8.78694 13.6682 8.67747 13.4727 8.58643C13.6775 8.52719 13.8674 8.42475 14.0293 8.286C14.1641 8.41378 14.328 8.50621 14.5065 8.5555V8.51575C14.3275 8.46153 14.1703 8.35189 14.0575 8.20262C13.9448 8.05336 13.8823 7.87217 13.8791 7.68514Z" fill="black"/>
<path d="M16.424 8.91337C16.2701 8.76661 16.0904 8.64977 15.8938 8.56877C16.0923 8.52282 16.2752 8.42528 16.424 8.286C16.5855 8.42544 16.7755 8.52797 16.9807 8.58643C16.7845 8.6763 16.598 8.78584 16.424 8.91337Z" fill="black"/>
<path d="M15.1162 7.11076L15.2222 6.80151L15.3371 7.11076L15.6287 6.9694L15.4873 7.26983L15.7966 7.37587L15.4873 7.4819L15.6287 7.77348L15.3371 7.63212L15.2222 7.94137L15.1162 7.63212L14.8246 7.77348L14.966 7.4819L14.6567 7.37587L14.966 7.26983L14.8246 6.9694L15.1162 7.11076Z" fill="black"/>
<path d="M15.5668 9.0901L15.7171 8.93987L15.8673 9.0901L15.7171 9.2403L15.5668 9.0901Z" fill="black"/>
<path d="M15.5845 9.29332L15.8585 9.2403H15.8761C15.811 9.42477 15.7782 9.61907 15.7789 9.81468C15.7722 9.91177 15.7722 10.0092 15.7789 10.1063C15.7162 10.0867 15.6595 10.0511 15.6146 10.0031C15.5697 9.95511 15.538 9.89627 15.5227 9.83235C15.505 9.72631 15.4785 9.35517 15.5845 9.29332Z" fill="black"/>
<path d="M13.1318 6.65979C13.1318 6.65979 13.2997 6.7835 13.2997 6.9072V9.90268C13.2949 9.97028 13.3172 10.037 13.3615 10.0883C13.4203 10.1625 13.4922 10.2254 13.5736 10.2738C13.9071 10.4637 14.2524 10.6319 14.6074 10.7775C14.8163 10.8432 15.0029 10.9655 15.1464 11.1309C15.2914 10.9672 15.4775 10.8452 15.6855 10.7775C16.0405 10.632 16.3858 10.4637 16.7193 10.2738C16.7995 10.2237 16.8711 10.1611 16.9314 10.0883C16.9741 10.0361 16.9961 9.97004 16.9932 9.90268V6.9072C16.9932 6.7835 17.1611 6.65979 17.1611 6.65979H13.1406H13.1318ZM13.3439 6.75698H16.949C16.9147 6.7995 16.896 6.85254 16.896 6.9072V9.90268C16.896 9.97337 16.8342 10.1236 16.4366 10.318C15.9836 10.4874 15.5509 10.7067 15.1464 10.9719C14.7427 10.7055 14.3099 10.4861 13.8564 10.318C13.4676 10.1236 13.3969 9.97337 13.3969 9.90268V6.9072C13.3963 6.85266 13.3776 6.79983 13.3439 6.75698Z" fill="#F9F92B"/>
<path d="M15.0581 4.83089C15.056 4.84724 15.0505 4.86299 15.0422 4.87722C15.0339 4.89144 15.0228 4.90387 15.0096 4.91376C14.9965 4.92365 14.9814 4.93079 14.9654 4.9348C14.9494 4.93881 14.9328 4.93959 14.9165 4.93709C14.8369 4.93709 14.7749 4.89285 14.7749 4.83089C14.7749 4.76894 14.8369 4.7247 14.9165 4.7247C14.9328 4.7222 14.9494 4.72298 14.9654 4.72699C14.9814 4.731 14.9965 4.73814 15.0096 4.74803C15.0228 4.75792 15.0339 4.77035 15.0422 4.78457C15.0505 4.7988 15.056 4.81455 15.0581 4.83089Z" fill="black"/>
<path d="M14.2425 4.76894C14.26 4.74042 14.2848 4.71715 14.3144 4.70158C14.344 4.686 14.3773 4.67869 14.4107 4.68043H14.623C14.623 4.73353 14.7381 4.83088 14.7381 4.92824C14.6968 4.86901 14.6409 4.82158 14.5757 4.79054C14.5105 4.75951 14.4384 4.74596 14.3664 4.75125C14.3284 4.74362 14.2893 4.74362 14.2514 4.75125" fill="#C11B2C"/>
<path d="M14.6033 4.79541H14.5413C14.5413 4.79541 14.5413 4.79541 14.5944 4.79541C14.5999 4.81272 14.5999 4.83127 14.5944 4.84858" fill="black"/>
<path d="M14.6927 4.96352C14.6644 4.99266 14.6403 5.02571 14.6213 5.06162C14.5615 5.0288 14.5073 4.98664 14.4608 4.93677C14.5364 4.95958 14.6171 4.95958 14.6927 4.93677" fill="#C11B2C"/>
<path d="M19.0153 8.04688L18.8032 8.20592V8.25894C18.7814 8.26788 18.7629 8.28329 18.7502 8.30311C18.7438 8.31697 18.7405 8.33206 18.7405 8.3473C18.7405 8.36255 18.7438 8.37761 18.7502 8.39148C18.671 8.38069 18.5908 8.38069 18.5116 8.39148C18.5116 8.39148 18.5116 8.55053 18.5116 8.67424C18.5116 8.79795 18.4144 8.82445 18.4144 8.8598C18.4098 8.8861 18.4098 8.91301 18.4144 8.93932C18.3998 8.93622 18.3848 8.93622 18.3702 8.93932C18.3702 8.93932 18.3702 9.01001 18.3702 9.04535L18.061 9.64624C18.061 9.64624 18.0168 9.64622 17.9991 9.70807C17.9927 9.7312 17.9927 9.75565 17.9991 9.77878C17.9866 9.77317 17.9731 9.77025 17.9593 9.77025C17.9456 9.77025 17.9321 9.77317 17.9196 9.77878C17.91 9.81047 17.91 9.84427 17.9196 9.87596C17.9024 9.8699 17.8837 9.8699 17.8666 9.87596C17.8666 9.87596 17.8666 9.93783 17.8666 9.94667L17.522 10.6094C17.522 10.6712 17.3806 10.6801 17.3187 10.8038C17.297 10.8349 17.2854 10.8719 17.2854 10.9098C17.2854 10.9477 17.297 10.9847 17.3187 11.0158C17.3187 11.0158 17.2303 11.0158 17.2038 11.0689C17.1943 11.0972 17.1953 11.128 17.2066 11.1556C17.218 11.1832 17.239 11.2057 17.2657 11.2191C17.2871 11.2396 17.3156 11.2511 17.3452 11.2511C17.3749 11.2511 17.4034 11.2396 17.4247 11.2191C17.4247 11.1749 17.4247 11.0954 17.4247 11.0954C17.4628 11.099 17.5011 11.0907 17.5343 11.0717C17.5676 11.0528 17.5941 11.024 17.6103 10.9893C17.6722 10.8656 17.6103 10.7684 17.6103 10.7154L17.9549 10.0527C17.9549 10.0527 17.9549 10.0527 18.0168 10.0527C18.024 10.0423 18.0279 10.03 18.0279 10.0173C18.0279 10.0047 18.024 9.99236 18.0168 9.98199C18.0485 9.9691 18.076 9.94772 18.0963 9.92016C18.1027 9.9063 18.1059 9.89121 18.1059 9.87596C18.1059 9.86071 18.1027 9.84565 18.0963 9.83179C18.1208 9.82342 18.1423 9.80804 18.1581 9.78759C18.1581 9.78759 18.1581 9.72576 18.1581 9.69925L18.4674 9.09837C18.4674 9.09837 18.5381 9.09838 18.5469 9.02769C18.5558 8.957 18.5469 8.97467 18.5469 8.97467C18.5732 8.98015 18.6003 8.98015 18.6265 8.97467C18.6265 8.97467 18.6265 8.90399 18.7237 8.78912C18.8209 8.67425 18.9446 8.65657 18.9446 8.62123C18.9446 8.58588 18.812 8.42683 18.812 8.42683C18.8349 8.43491 18.8599 8.43491 18.8827 8.42683C18.8922 8.40116 18.8922 8.37297 18.8827 8.3473H18.9357L19.0153 8.04688ZM16.9918 11.8906C16.9835 11.8867 16.9744 11.8847 16.9653 11.8847C16.9561 11.8847 16.947 11.8867 16.9388 11.8906C16.9341 11.9003 16.9316 11.9108 16.9316 11.9216C16.9316 11.9323 16.9341 11.9429 16.9388 11.9525C16.9388 11.9525 16.8681 11.9525 16.8504 11.9525C16.8195 11.9678 16.7935 11.9915 16.7753 12.0208C16.7571 12.0501 16.7475 12.0839 16.7474 12.1184C16.7474 12.1529 16.757 12.1868 16.7751 12.2161C16.7932 12.2455 16.8191 12.2692 16.85 12.2846C16.8808 12.3001 16.9154 12.3066 16.9498 12.3035C16.9841 12.3003 17.0169 12.2877 17.0445 12.267C17.0721 12.2462 17.0933 12.2182 17.1059 12.1861C17.1184 12.154 17.1217 12.119 17.1155 12.085L17.0536 12.0143C17.068 12.0191 17.0835 12.0191 17.0978 12.0143C17.1033 11.9944 17.1009 11.9731 17.091 11.955C17.0811 11.9369 17.0645 11.9233 17.0448 11.9171H16.9829" fill="black"/>
<path d="M18.8609 8.21456L18.9846 8.12622V8.21456H18.9228H18.8609Z" fill="#F9F92B"/>
<path d="M18.8079 8.27642C18.8249 8.26954 18.8439 8.26954 18.8609 8.27642H18.9051C18.9154 8.28615 18.9225 8.29874 18.9255 8.31256C18.9286 8.32637 18.9274 8.34078 18.9222 8.35392C18.9169 8.36706 18.9079 8.37832 18.8962 8.38626C18.894 8.38774 18.8917 8.3891 18.8894 8.39032L18.8962 8.41781C18.8929 8.41735 18.8895 8.41693 18.8861 8.41654C18.9051 8.44286 18.9232 8.4698 18.9404 8.49733C18.8838 8.54444 18.8248 8.58867 18.7637 8.62987C18.7397 8.64644 18.7187 8.66678 18.7014 8.68996C18.6987 8.6994 18.6959 8.70883 18.693 8.71824L18.6644 8.76902C18.6615 8.79622 18.6622 8.82371 18.6665 8.85077H18.6185L18.6135 8.85962L18.6179 8.85077H18.6046L18.6379 8.77468L18.587 8.85962H18.5428L18.6135 8.79776C18.6467 8.75459 18.6652 8.70199 18.6665 8.64756V8.42665L18.7018 8.41781H18.7372H18.7637C18.8024 8.41258 18.8415 8.41195 18.8803 8.41591C18.8803 8.41347 18.8803 8.41102 18.8803 8.40858C18.8774 8.40464 18.8745 8.40071 18.8716 8.3968C18.8667 8.39789 18.8616 8.39844 18.8565 8.39844C18.8423 8.39844 18.8285 8.39419 18.8168 8.38626C18.8051 8.37832 18.796 8.36706 18.7908 8.35392C18.7856 8.34078 18.7844 8.32637 18.7874 8.31256C18.7905 8.29874 18.7976 8.28615 18.8079 8.27642Z" fill="#F9F92B"/>
<path d="M15.0132 4.83123C15.0132 4.85725 15.0029 4.8822 14.9845 4.9006C14.9661 4.91899 14.9411 4.92931 14.9151 4.92931C14.8891 4.92931 14.8641 4.91899 14.8458 4.9006C14.8274 4.8822 14.817 4.85725 14.817 4.83123C14.817 4.80522 14.8274 4.78026 14.8458 4.76186C14.8641 4.74347 14.8891 4.73315 14.9151 4.73315C14.9411 4.73315 14.9661 4.74347 14.9845 4.76186C15.0029 4.78026 15.0132 4.80522 15.0132 4.83123Z" fill="#F9F92B"/>
</svg>
