<svg width="31" height="19" viewBox="0 0 31 19" fill="none" xmlns="http://www.w3.org/2000/svg">
<path d="M30.0498 13.2815H0.395264V18.221H30.0498V13.2815Z" fill="#58B44D"/>
<path d="M30.0498 5.85913H0.395264V13.2816H30.0498V5.85913Z" fill="white"/>
<path d="M30.0498 0.919434H0.395264V5.8589H30.0498V0.919434Z" fill="#EA0042"/>
<path d="M15.2055 11.3379C15.3595 11.4633 15.5465 11.5417 15.7439 11.5636C15.9414 11.5855 16.141 11.5501 16.3188 11.4616C16.3787 11.5507 16.4562 11.6266 16.5466 11.6846C16.637 11.7427 16.7382 11.7816 16.8442 11.799C16.9502 11.8163 17.0586 11.8119 17.1628 11.7857C17.2669 11.7596 17.3646 11.7125 17.4499 11.6471C17.2221 11.63 17.0013 11.5615 16.8038 11.4467C16.6064 11.3319 16.4376 11.1738 16.31 10.9844C16.1701 11.0592 16.0108 11.09 15.8531 11.0727C15.6954 11.0553 15.5467 10.9907 15.4264 10.8872V9.48227L16.1421 8.77535C16.0584 8.60158 15.9273 8.45497 15.7639 8.35236C15.6006 8.24975 15.4116 8.19531 15.2187 8.19531C15.0258 8.19531 14.8368 8.24975 14.6735 8.35236C14.5101 8.45497 14.3791 8.60158 14.2953 8.77535L15.0111 9.48227V10.8872C14.8908 10.9907 14.742 11.0553 14.5843 11.0727C14.4266 11.09 14.2673 11.0592 14.1274 10.9844C13.9999 11.1738 13.831 11.3319 13.6336 11.4467C13.4362 11.5615 13.2153 11.63 12.9875 11.6471C13.0728 11.7125 13.1705 11.7596 13.2747 11.7857C13.3788 11.8119 13.4872 11.8163 13.5932 11.799C13.6992 11.7816 13.8005 11.7427 13.8908 11.6846C13.9812 11.6266 14.0587 11.5507 14.1186 11.4616C14.2964 11.5501 14.496 11.5855 14.6935 11.5636C14.8909 11.5417 15.0779 11.4633 15.232 11.3379H15.2055ZM15.2055 9.25252C15.0788 9.0544 14.8888 8.90492 14.6664 8.82837C14.7276 8.73868 14.8092 8.66474 14.9044 8.61253C14.9996 8.56032 15.1058 8.53132 15.2143 8.52794C15.323 8.53061 15.4294 8.55929 15.5247 8.61156C15.6201 8.66383 15.7015 8.73817 15.7621 8.82837C15.5368 8.9038 15.3437 9.05331 15.2143 9.25252" fill="#CFB428"/>
<path d="M15.1986 12.0532C14.962 12.0371 14.7248 12.0714 14.5024 12.1536C14.28 12.2358 14.0776 12.3642 13.9085 12.5303L13.7229 12.3271C13.8908 12.1239 14.1117 12.0532 14.1735 11.7969C14.1897 11.7423 14.1917 11.6844 14.1794 11.6287C14.167 11.5731 14.1407 11.5215 14.1029 11.4788C14.184 11.5675 14.2842 11.6367 14.3959 11.681C14.5077 11.7254 14.628 11.7439 14.7479 11.7351C14.8443 11.7225 14.9363 11.6871 15.0162 11.6318C15.0962 11.5764 15.1617 11.5028 15.2074 11.417L15.1986 12.0532ZM15.2074 11.417C15.2522 11.5017 15.3164 11.5746 15.3947 11.6299C15.473 11.6852 15.5632 11.7212 15.658 11.7351C15.7779 11.7439 15.8983 11.7254 16.01 11.681C16.1217 11.6367 16.2219 11.5675 16.3031 11.4788C16.266 11.5219 16.2401 11.5735 16.2278 11.629C16.2154 11.6845 16.217 11.7422 16.2324 11.7969C16.2942 12.0532 16.5152 12.1239 16.683 12.3271L16.4975 12.5303C16.3283 12.3642 16.1259 12.2358 15.9035 12.1536C15.6812 12.0714 15.4439 12.0371 15.2074 12.0532" fill="#CFB428"/>
<path d="M18.3744 9.76465L18.4981 10.1534H18.9046L18.5776 10.392L18.7014 10.772L18.3744 10.5334L18.0475 10.772L18.1712 10.392L17.8442 10.1534H18.2507L18.3744 9.76465Z" fill="#CFB428"/>
<path d="M17.9492 8.19165L18.073 8.5716H18.4794L18.1525 8.81017L18.2762 9.19897L17.9492 8.9604L17.6223 9.19897L17.746 8.81017L17.4191 8.5716H17.8255L17.9492 8.19165Z" fill="#CFB428"/>
<path d="M16.8079 7.03442L16.9316 7.42322H17.3381L17.0111 7.66182L17.1348 8.04177L16.8079 7.8032L16.481 8.04177L16.6047 7.66182L16.2777 7.42322H16.6842L16.8079 7.03442Z" fill="#CFB428"/>
<path d="M15.2183 6.61914L15.342 6.99912H15.7485L15.4215 7.23769L15.5452 7.61764L15.2183 7.37907L14.8913 7.61764L15.015 7.23769L14.6881 6.99912H15.0946L15.2183 6.61914Z" fill="#CFB428"/>
<path d="M13.6517 7.03442L13.7755 7.42322H14.1819L13.855 7.66182L13.9787 8.04177L13.6517 7.8032L13.3248 8.04177L13.4485 7.66182L13.1216 7.42322H13.528L13.6517 7.03442Z" fill="#CFB428"/>
<path d="M12.4912 8.19165L12.6149 8.5716H13.0214L12.6945 8.81017L12.8182 9.19897L12.4912 8.9604L12.1643 9.19897L12.288 8.81017L11.9611 8.5716H12.3675L12.4912 8.19165Z" fill="#CFB428"/>
<path d="M12.0737 9.76465L12.1975 10.1534H12.5951L12.2681 10.392L12.3919 10.772L12.0737 10.5334L11.738 10.772L11.8705 10.392L11.5436 10.1534H11.9412L12.0737 9.76465Z" fill="#CFB428"/>
</svg>
