<svg width="30" height="18" viewBox="0 0 30 18" fill="none" xmlns="http://www.w3.org/2000/svg">
<path d="M29.893 0.606079H0.238525V17.9075H29.893V0.606079Z" fill="#D00027"/>
<path d="M8.88624 4.93567C9.74084 4.93567 10.5762 5.1891 11.2868 5.66389C11.9974 6.13868 12.5512 6.8135 12.8783 7.60305C13.2053 8.3926 13.2909 9.2614 13.1241 10.0996C12.9574 10.9378 12.5459 11.7077 11.9416 12.312C11.3373 12.9163 10.5674 13.3278 9.72921 13.4945C8.89103 13.6612 8.02224 13.5757 7.23269 13.2486C6.44314 12.9216 5.7683 12.3678 5.29351 11.6572C4.81872 10.9466 4.56531 10.1112 4.56531 9.25662C4.56764 8.11135 5.02363 7.01366 5.83346 6.20383C6.64328 5.39401 7.74097 4.938 8.88624 4.93567Z" fill="white"/>
<path d="M9.9748 5.80225C10.6599 5.80225 11.3296 6.0054 11.8992 6.38601C12.4688 6.76662 12.9128 7.30757 13.1749 7.9405C13.4371 8.57343 13.5057 9.2699 13.3721 9.94182C13.2384 10.6137 12.9085 11.2309 12.4241 11.7154C11.9397 12.1998 11.3225 12.5297 10.6506 12.6633C9.97864 12.797 9.28219 12.7284 8.64926 12.4662C8.01633 12.204 7.47535 11.7601 7.09474 11.1905C6.71413 10.6208 6.51099 9.95113 6.51099 9.26605C6.51099 8.34739 6.87592 7.46636 7.52551 6.81677C8.1751 6.16717 9.05614 5.80225 9.9748 5.80225Z" fill="#D00027"/>
<path d="M12.5474 9.25743L14.6062 9.92897L14.9332 8.89514L12.5474 9.25743Z" fill="white"/>
<path d="M12.5474 9.2572L14.6062 8.59448L14.9332 9.61947L12.5474 9.2572Z" fill="white"/>
<path d="M14.0297 7.20703V9.36308H15.1077L14.0297 7.20703Z" fill="white"/>
<path d="M14.0297 7.20703L15.3021 8.95659L14.4273 9.58399L14.0297 7.20703Z" fill="white"/>
<path d="M14.0297 11.3242L15.3021 9.56578L14.4273 8.92957L14.0297 11.3242Z" fill="white"/>
<path d="M14.0297 11.3245V9.15076H15.1077L14.0297 11.3245Z" fill="white"/>
<path d="M16.4524 7.99316L14.3936 8.65588L14.7293 9.68089L16.4524 7.99316Z" fill="white"/>
<path d="M16.4641 7.99316L15.1917 9.74275L14.3169 9.10654L16.4641 7.99316Z" fill="white"/>
<path d="M16.4641 10.5294L15.1917 8.77979L14.3169 9.416L16.4641 10.5294Z" fill="white"/>
<path d="M16.4524 10.5295L14.3936 9.86674L14.7293 8.83289L16.4524 10.5295Z" fill="white"/>
</svg>
