<svg width="31" height="19" viewBox="0 0 31 19" fill="none" xmlns="http://www.w3.org/2000/svg">
<path d="M30.2403 16.7606H0.585785V18.0907H30.2403V16.7606Z" fill="#CB001C"/>
<path d="M30.2403 15.4302H0.585785V16.7602H30.2403V15.4302Z" fill="white"/>
<path d="M30.2403 14.1025H0.585785V15.4309H30.2403V14.1025Z" fill="#CB001C"/>
<path d="M30.2403 12.7692H0.585785V14.1009H30.2403V12.7692Z" fill="white"/>
<path d="M30.2403 11.4386H0.585785V12.7687H30.2403V11.4386Z" fill="#CB001C"/>
<path d="M30.2403 10.1082H0.585785V11.4382H30.2403V10.1082Z" fill="white"/>
<path d="M30.2403 8.77673H0.585785V10.1085H30.2403V8.77673Z" fill="#CB001C"/>
<path d="M30.2403 7.44666H0.585785V8.77505H30.2403V7.44666Z" fill="white"/>
<path d="M30.2403 6.1167H0.585785V7.44677H30.2403V6.1167Z" fill="#CB001C"/>
<path d="M30.2403 4.7876H0.585785V6.11766H30.2403V4.7876Z" fill="white"/>
<path d="M30.2403 3.45569H0.585785V4.78744H30.2403V3.45569Z" fill="#CB001C"/>
<path d="M30.2403 2.12659H0.585785V3.45498H30.2403V2.12659Z" fill="white"/>
<path d="M30.2403 0.794678H0.585785V2.12643H30.2403V0.794678Z" fill="#CB001C"/>
<path d="M14.1283 0.794678H0.585785V10.1085H14.1283V0.794678Z" fill="#2A3560"/>
<path d="M1.81081 1.82117L1.92669 2.17552H2.29783L1.99722 2.39216L2.11141 2.74483L1.81081 2.52651L1.51187 2.74483L1.62943 2.39216L1.32883 2.17552H1.69493L1.81081 1.82117Z" fill="white"/>
<path d="M1.81081 3.37622L1.92669 3.72722H2.29783L1.99722 3.94553L2.11141 4.29652L1.81081 4.07988L1.51187 4.29652L1.62943 3.94553L1.32883 3.72722H1.69493L1.81081 3.37622Z" fill="white"/>
<path d="M1.81081 4.93127L1.92669 5.28227H2.29783L1.99722 5.49891L2.11141 5.85325L1.81081 5.63325L1.51187 5.85325L1.62943 5.49891L1.32883 5.28227H1.69493L1.81081 4.93127Z" fill="white"/>
<path d="M1.81081 6.48486L1.92669 6.83753H2.29783L1.99722 7.05418L2.11141 7.40684L1.81081 7.19021L1.51187 7.40684L1.62943 7.05418L1.32883 6.83753H1.69493L1.81081 6.48486Z" fill="white"/>
<path d="M1.81081 8.03894L1.92669 8.39329H2.29783L1.99722 8.60825L2.11141 8.96092L1.81081 8.7426L1.51187 8.96092L1.62943 8.60825L1.32883 8.39329H1.69493L1.81081 8.03894Z" fill="white"/>
<path d="M2.8926 2.64075L3.00343 2.99342H3.37626L3.07901 3.21006L3.18984 3.56273L2.8926 3.34441L2.59534 3.56273L2.70786 3.21006L2.40894 2.99342H2.78007L2.8926 2.64075Z" fill="white"/>
<path d="M2.8926 4.1958L3.00343 4.54511H3.37626L3.07901 4.76511L3.18984 5.11443L2.8926 4.90114L2.59534 5.11443L2.70786 4.76511L2.40894 4.54511H2.78007L2.8926 4.1958Z" fill="white"/>
<path d="M2.8926 5.75037L3.00343 6.10135H3.37626L3.07901 6.318L3.18984 6.67066L2.8926 6.45403L2.59534 6.67066L2.70786 6.318L2.40894 6.10135H2.78007L2.8926 5.75037Z" fill="white"/>
<path d="M2.8926 7.30591L3.00343 7.65689H3.37626L3.07901 7.87354L3.18984 8.22452L2.8926 8.00789L2.59534 8.22452L2.70786 7.87354L2.40894 7.65689H2.78007L2.8926 7.30591Z" fill="white"/>
<path d="M3.98802 1.82117L4.10389 2.17552H4.47336L4.17444 2.39216L4.29031 2.74483L3.98802 2.52651L3.69077 2.74483L3.80497 2.39216L3.50436 2.17552H3.87382L3.98802 1.82117Z" fill="white"/>
<path d="M3.98802 3.37622L4.10389 3.72722H4.47336L4.17444 3.94553L4.29031 4.29652L3.98802 4.07988L3.69077 4.29652L3.80497 3.94553L3.50436 3.72722H3.87382L3.98802 3.37622Z" fill="white"/>
<path d="M3.98802 4.93127L4.10389 5.28227H4.47336L4.17444 5.49891L4.29031 5.85325L3.98802 5.63325L3.69077 5.85325L3.80497 5.49891L3.50436 5.28227H3.87382L3.98802 4.93127Z" fill="white"/>
<path d="M3.98802 6.48486L4.10389 6.83753H4.47336L4.17444 7.05418L4.29031 7.40684L3.98802 7.19021L3.69077 7.40684L3.80497 7.05418L3.50436 6.83753H3.87382L3.98802 6.48486Z" fill="white"/>
<path d="M3.98802 8.03894L4.10389 8.39329H4.47336L4.17444 8.60825L4.29031 8.96092L3.98802 8.7426L3.69077 8.96092L3.80497 8.60825L3.50436 8.39329H3.87382L3.98802 8.03894Z" fill="white"/>
<path d="M5.07198 2.64075L5.18618 2.99342H5.559L5.25672 3.21006L5.3726 3.56273L5.07198 3.34441L4.77306 3.56273L4.88893 3.21006L4.58832 2.99342H4.95778L5.07198 2.64075Z" fill="white"/>
<path d="M5.07198 4.1958L5.18618 4.54511H5.559L5.25672 4.76511L5.3726 5.11443L5.07198 4.90114L4.77306 5.11443L4.88893 4.76511L4.58832 4.54511H4.95778L5.07198 4.1958Z" fill="white"/>
<path d="M5.07198 5.75037L5.18618 6.10135H5.559L5.25672 6.318L5.3726 6.67066L5.07198 6.45403L4.77306 6.67066L4.88893 6.318L4.58832 6.10135H4.95778L5.07198 5.75037Z" fill="white"/>
<path d="M5.07198 7.30591L5.18618 7.65689H5.559L5.25672 7.87354L5.3726 8.22452L5.07198 8.00789L4.77306 8.22452L4.88893 7.87354L4.58832 7.65689H4.95778L5.07198 7.30591Z" fill="white"/>
<path d="M6.17122 1.82117L6.2871 2.17552H6.6532L6.35427 2.39216L6.47351 2.74483L6.17122 2.52651L5.87061 2.74483L5.9848 2.39216L5.68756 2.17552H6.05702L6.17122 1.82117Z" fill="white"/>
<path d="M6.17122 3.37622L6.2871 3.72722H6.6532L6.35427 3.94553L6.47351 4.29652L6.17122 4.07988L5.87061 4.29652L5.9848 3.94553L5.68756 3.72722H6.05702L6.17122 3.37622Z" fill="white"/>
<path d="M6.17122 4.93127L6.2871 5.28227H6.6532L6.35427 5.49891L6.47351 5.85325L6.17122 5.63325L5.87061 5.85325L5.9848 5.49891L5.68756 5.28227H6.05702L6.17122 4.93127Z" fill="white"/>
<path d="M6.17122 6.48486L6.2871 6.83753H6.6532L6.35427 7.05418L6.47351 7.40684L6.17122 7.19021L5.87061 7.40684L5.9848 7.05418L5.68756 6.83753H6.05702L6.17122 6.48486Z" fill="white"/>
<path d="M6.17122 8.03894L6.2871 8.39329H6.6532L6.35427 8.60825L6.47351 8.96092L6.17122 8.7426L5.87061 8.96092L5.9848 8.60825L5.68756 8.39329H6.05702L6.17122 8.03894Z" fill="white"/>
<path d="M7.253 2.64075L7.36721 2.99342H7.73667L7.43774 3.21006L7.55026 3.56273L7.253 3.34441L6.95408 3.56273L7.06659 3.21006L6.76767 2.99342H7.13713L7.253 2.64075Z" fill="white"/>
<path d="M7.253 4.1958L7.36721 4.54511H7.73667L7.43774 4.76511L7.55026 5.11443L7.253 4.90114L6.95408 5.11443L7.06659 4.76511L6.76767 4.54511H7.13713L7.253 4.1958Z" fill="white"/>
<path d="M7.253 5.75037L7.36721 6.10135H7.73667L7.43774 6.318L7.55026 6.67066L7.253 6.45403L6.95408 6.67066L7.06659 6.318L6.76767 6.10135H7.13713L7.253 5.75037Z" fill="white"/>
<path d="M7.253 7.30591L7.36721 7.65689H7.73667L7.43774 7.87354L7.55026 8.22452L7.253 8.00789L6.95408 8.22452L7.06659 7.87354L6.76767 7.65689H7.13713L7.253 7.30591Z" fill="white"/>
<path d="M8.34508 1.82117L8.46096 2.17552H8.83042L8.53317 2.39216L8.64737 2.74483L8.34508 2.52651L8.04951 2.74483L8.16203 2.39216L7.8631 2.17552H8.23256L8.34508 1.82117Z" fill="white"/>
<path d="M8.34508 3.37622L8.46096 3.72722H8.83042L8.53317 3.94553L8.64737 4.29652L8.34508 4.07988L8.04951 4.29652L8.16203 3.94553L7.8631 3.72722H8.23256L8.34508 3.37622Z" fill="white"/>
<path d="M8.34508 4.93127L8.46096 5.28227H8.83042L8.53317 5.49891L8.64737 5.85325L8.34508 5.63325L8.04951 5.85325L8.16203 5.49891L7.8631 5.28227H8.23256L8.34508 4.93127Z" fill="white"/>
<path d="M8.34508 6.48486L8.46096 6.83753H8.83042L8.53317 7.05418L8.64737 7.40684L8.34508 7.19021L8.04951 7.40684L8.16203 7.05418L7.8631 6.83753H8.23256L8.34508 6.48486Z" fill="white"/>
<path d="M8.34508 8.03894L8.46096 8.39329H8.83042L8.53317 8.60825L8.64737 8.96092L8.34508 8.7426L8.04951 8.96092L8.16203 8.60825L7.8631 8.39329H8.23256L8.34508 8.03894Z" fill="white"/>
<path d="M9.42687 2.64075L9.54107 2.99342H9.91388L9.61328 3.21006L9.72747 3.56273L9.42687 3.34441L9.12793 3.56273L9.24381 3.21006L8.94321 2.99342H9.31435L9.42687 2.64075Z" fill="white"/>
<path d="M9.42687 4.1958L9.54107 4.54511H9.91388L9.61328 4.76511L9.72747 5.11443L9.42687 4.90114L9.12793 5.11443L9.24381 4.76511L8.94321 4.54511H9.31435L9.42687 4.1958Z" fill="white"/>
<path d="M9.42687 5.75037L9.54107 6.10135H9.91388L9.61328 6.318L9.72747 6.67066L9.42687 6.45403L9.12793 6.67066L9.24381 6.318L8.94321 6.10135H9.31435L9.42687 5.75037Z" fill="white"/>
<path d="M9.42687 7.30591L9.54107 7.65689H9.91388L9.61328 7.87354L9.72747 8.22452L9.42687 8.00789L9.12793 8.22452L9.24381 7.87354L8.94321 7.65689H9.31435L9.42687 7.30591Z" fill="white"/>
<path d="M10.5223 1.82117L10.6382 2.17552H11.0076L10.7087 2.39216L10.8212 2.74483L10.5223 2.52651L10.2251 2.74483L10.3376 2.39216L10.0386 2.17552H10.4081L10.5223 1.82117Z" fill="white"/>
<path d="M10.5223 3.37622L10.6382 3.72722H11.0076L10.7087 3.94553L10.8212 4.29652L10.5223 4.07988L10.2251 4.29652L10.3376 3.94553L10.0386 3.72722H10.4081L10.5223 3.37622Z" fill="white"/>
<path d="M10.5223 4.93127L10.6382 5.28227H11.0076L10.7087 5.49891L10.8212 5.85325L10.5223 5.63325L10.2251 5.85325L10.3376 5.49891L10.0386 5.28227H10.4081L10.5223 4.93127Z" fill="white"/>
<path d="M10.5223 6.48486L10.6382 6.83753H11.0076L10.7087 7.05418L10.8212 7.40684L10.5223 7.19021L10.2251 7.40684L10.3376 7.05418L10.0386 6.83753H10.4081L10.5223 6.48486Z" fill="white"/>
<path d="M10.5223 8.03894L10.6382 8.39329H11.0076L10.7087 8.60825L10.8212 8.96092L10.5223 8.7426L10.2251 8.96092L10.3376 8.60825L10.0386 8.39329H10.4081L10.5223 8.03894Z" fill="white"/>
<path d="M11.6045 2.64075L11.7171 2.99342H12.0882L11.7909 3.21006L11.9018 3.56273L11.6045 3.34441L11.3039 3.56273L11.4181 3.21006L11.1226 2.99342H11.4903L11.6045 2.64075Z" fill="white"/>
<path d="M11.6045 4.1958L11.7171 4.54511H12.0882L11.7909 4.76511L11.9018 5.11443L11.6045 4.90114L11.3039 5.11443L11.4181 4.76511L11.1226 4.54511H11.4903L11.6045 4.1958Z" fill="white"/>
<path d="M11.6045 5.75037L11.7171 6.10135H12.0882L11.7909 6.318L11.9018 6.67066L11.6045 6.45403L11.3039 6.67066L11.4181 6.318L11.1226 6.10135H11.4903L11.6045 5.75037Z" fill="white"/>
<path d="M11.6045 7.30591L11.7171 7.65689H12.0882L11.7909 7.87354L11.9018 8.22452L11.6045 8.00789L11.3039 8.22452L11.4181 7.87354L11.1226 7.65689H11.4903L11.6045 7.30591Z" fill="white"/>
<path d="M12.7093 1.82117L12.8269 2.17552H13.1947L12.8957 2.39216L13.0116 2.74483L12.7093 2.52651L12.4121 2.74483L12.5246 2.39216L12.2256 2.17552H12.5951L12.7093 1.82117Z" fill="white"/>
<path d="M12.7093 3.37622L12.8269 3.72722H13.1947L12.8957 3.94553L13.0116 4.29652L12.7093 4.07988L12.4121 4.29652L12.5246 3.94553L12.2256 3.72722H12.5951L12.7093 3.37622Z" fill="white"/>
<path d="M12.7093 4.93127L12.8269 5.28227H13.1947L12.8957 5.49891L13.0116 5.85325L12.7093 5.63325L12.4121 5.85325L12.5246 5.49891L12.2256 5.28227H12.5951L12.7093 4.93127Z" fill="white"/>
<path d="M12.7093 6.48486L12.8269 6.83753H13.1947L12.8957 7.05418L13.0116 7.40684L12.7093 7.19021L12.4121 7.40684L12.5246 7.05418L12.2256 6.83753H12.5951L12.7093 6.48486Z" fill="white"/>
<path d="M12.7093 8.03894L12.8269 8.39329H13.1947L12.8957 8.60825L13.0116 8.96092L12.7093 8.7426L12.4121 8.96092L12.5246 8.60825L12.2256 8.39329H12.5951L12.7093 8.03894Z" fill="white"/>
</svg>
