<svg width="31" height="18" viewBox="0 0 31 18" fill="none" xmlns="http://www.w3.org/2000/svg">
<path d="M30.1828 0.0966797H0.52832V5.63704H30.1828V0.0966797Z" fill="#4497B1"/>
<path d="M30.1834 5.63745H0.528931V5.98205H30.1834V5.63745Z" fill="#BC0030"/>
<path d="M30.1834 5.98169H0.528931V11.522H30.1834V5.98169Z" fill="white"/>
<path d="M30.1834 11.522H0.528931V11.8666H30.1834V11.522Z" fill="#BC0030"/>
<path d="M30.1834 11.8662H0.528931V17.4065H30.1834V11.8662Z" fill="#50B63F"/>
<path d="M7.44357 2.87121C7.44357 3.2819 7.32178 3.68336 7.09361 4.02484C6.86544 4.36633 6.54109 4.63249 6.16166 4.78966C5.78222 4.94683 5.36474 4.98795 4.96193 4.90782C4.55913 4.8277 4.18912 4.62992 3.89871 4.33951C3.60831 4.04911 3.41055 3.67912 3.33043 3.27632C3.25031 2.87351 3.29143 2.45598 3.44859 2.07654C3.60576 1.69711 3.87187 1.37282 4.21335 1.14464C4.55484 0.916473 4.95632 0.794678 5.36702 0.794678C5.91775 0.794678 6.44596 1.01345 6.83538 1.40287C7.2248 1.7923 7.44357 2.32048 7.44357 2.87121Z" fill="white"/>
<path d="M8.03218 2.87126C8.03218 3.22079 7.92855 3.56247 7.73436 3.85309C7.54018 4.14372 7.26416 4.37022 6.94124 4.50398C6.61831 4.63774 6.26295 4.67275 5.92014 4.60456C5.57732 4.53637 5.26241 4.36805 5.01526 4.1209C4.7681 3.87374 4.59984 3.55883 4.53165 3.21602C4.46346 2.87321 4.49842 2.51787 4.63218 2.19495C4.76594 1.87202 4.99246 1.59603 5.28309 1.40184C5.57371 1.20766 5.91539 1.104 6.26492 1.104C6.73363 1.104 7.18311 1.29019 7.51454 1.62162C7.84596 1.95304 8.03218 2.40255 8.03218 2.87126Z" fill="#4497B1"/>
<path d="M10.6361 0.794922L10.5033 1.1932L10.698 1.25513L10.6361 0.794922Z" fill="white"/>
<path d="M10.6393 0.794922L10.7632 1.1932L10.5685 1.25513L10.6393 0.794922Z" fill="white"/>
<path d="M11.0315 1.07739H10.6067V1.28979L11.0315 1.07739Z" fill="white"/>
<path d="M11.0325 1.07739L10.6873 1.3252L10.5723 1.15704L11.0325 1.07739Z" fill="white"/>
<path d="M10.239 1.07739L10.5753 1.3252L10.6992 1.15704L10.239 1.07739Z" fill="white"/>
<path d="M10.239 1.07739H10.655V1.28979L10.239 1.07739Z" fill="white"/>
<path d="M10.8757 1.54647L10.7517 1.14819L10.557 1.21015L10.8757 1.54647Z" fill="white"/>
<path d="M10.8806 1.54634L10.5531 1.29853L10.6682 1.13037L10.8806 1.54634Z" fill="white"/>
<path d="M10.3922 1.54634L10.7285 1.29853L10.6047 1.13037L10.3922 1.54634Z" fill="white"/>
<path d="M10.3922 1.54647L10.5161 1.14819L10.7197 1.21015L10.3922 1.54647Z" fill="white"/>
<path d="M12.2945 0.794922L12.1617 1.1932L12.3565 1.25513L12.2945 0.794922Z" fill="white"/>
<path d="M12.294 0.794922L12.4179 1.1932L12.2231 1.25513L12.294 0.794922Z" fill="white"/>
<path d="M12.6888 1.07739H12.2728V1.28979L12.6888 1.07739Z" fill="white"/>
<path d="M12.6834 1.07739L12.3471 1.3252L12.2231 1.15704L12.6834 1.07739Z" fill="white"/>
<path d="M11.8975 1.07739L12.2338 1.3252L12.3577 1.15704L11.8975 1.07739Z" fill="white"/>
<path d="M11.8975 1.07739H12.3134V1.28979L11.8975 1.07739Z" fill="white"/>
<path d="M12.5378 1.54647L12.414 1.14819L12.2192 1.21015L12.5378 1.54647Z" fill="white"/>
<path d="M12.5363 1.54634L12.2001 1.29853L12.3239 1.13037L12.5363 1.54634Z" fill="white"/>
<path d="M12.0469 1.54634L12.3832 1.29853L12.2593 1.13037L12.0469 1.54634Z" fill="white"/>
<path d="M12.0469 1.54647L12.1797 1.14819L12.3743 1.21015L12.0469 1.54647Z" fill="white"/>
<path d="M13.9607 0.794922L13.8279 1.1932L14.0226 1.25513L13.9607 0.794922Z" fill="white"/>
<path d="M13.9562 0.794922L14.0801 1.1932L13.8854 1.25513L13.9562 0.794922Z" fill="white"/>
<path d="M14.3474 1.07739H13.9314V1.28979L14.3474 1.07739Z" fill="white"/>
<path d="M14.3456 1.07739L14.0093 1.3252L13.8854 1.15704L14.3456 1.07739Z" fill="white"/>
<path d="M13.5598 1.07739L13.8961 1.3252L14.02 1.15704L13.5598 1.07739Z" fill="white"/>
<path d="M13.5598 1.07739H13.9758V1.28979L13.5598 1.07739Z" fill="white"/>
<path d="M14.1937 1.54647L14.0698 1.14819L13.8662 1.21015L14.1937 1.54647Z" fill="white"/>
<path d="M14.1987 1.54634L13.8624 1.29853L13.9863 1.13037L14.1987 1.54634Z" fill="white"/>
<path d="M13.7053 1.54634L14.0416 1.29853L13.9177 1.13037L13.7053 1.54634Z" fill="white"/>
<path d="M13.7053 1.54647L13.8381 1.14819L14.0328 1.21015L13.7053 1.54647Z" fill="white"/>
<path d="M8.97762 2.45581L8.84485 2.84523L9.03958 2.91602L8.97762 2.45581Z" fill="white"/>
<path d="M8.98085 2.45581L9.10477 2.84523L8.91003 2.91602L8.98085 2.45581Z" fill="white"/>
<path d="M9.36045 2.73853H8.94446V2.95092L9.36045 2.73853Z" fill="white"/>
<path d="M9.36898 2.73853L9.03266 2.98633L8.9176 2.81817L9.36898 2.73853Z" fill="white"/>
<path d="M8.57678 2.73853L8.9131 2.98633L9.03702 2.81817L8.57678 2.73853Z" fill="white"/>
<path d="M8.57678 2.73853H8.99278V2.95092L8.57678 2.73853Z" fill="white"/>
<path d="M9.20952 3.20736L9.0856 2.80908L8.89087 2.87104L9.20952 3.20736Z" fill="white"/>
<path d="M9.2118 3.20771L8.87549 2.95991L8.99935 2.79175L9.2118 3.20771Z" fill="white"/>
<path d="M8.72998 3.20771L9.0663 2.95991L8.94243 2.79175L8.72998 3.20771Z" fill="white"/>
<path d="M8.72998 3.20736L8.8539 2.80908L9.05749 2.87104L8.72998 3.20736Z" fill="white"/>
<path d="M10.6361 2.45581L10.5033 2.84523L10.698 2.91602L10.6361 2.45581Z" fill="white"/>
<path d="M10.6393 2.45581L10.7632 2.84523L10.5685 2.91602L10.6393 2.45581Z" fill="white"/>
<path d="M11.0315 2.73853H10.6067V2.95092L11.0315 2.73853Z" fill="white"/>
<path d="M11.0325 2.73853L10.6873 2.98633L10.5723 2.81817L11.0325 2.73853Z" fill="white"/>
<path d="M10.239 2.73853L10.5753 2.98633L10.6992 2.81817L10.239 2.73853Z" fill="white"/>
<path d="M10.239 2.73853H10.655V2.95092L10.239 2.73853Z" fill="white"/>
<path d="M10.8757 3.20736L10.7517 2.80908L10.557 2.87104L10.8757 3.20736Z" fill="white"/>
<path d="M10.8806 3.20771L10.5531 2.95991L10.6682 2.79175L10.8806 3.20771Z" fill="white"/>
<path d="M10.3922 3.20771L10.7285 2.95991L10.6047 2.79175L10.3922 3.20771Z" fill="white"/>
<path d="M10.3922 3.20736L10.5161 2.80908L10.7197 2.87104L10.3922 3.20736Z" fill="white"/>
<path d="M12.2945 2.45581L12.1617 2.84523L12.3565 2.91602L12.2945 2.45581Z" fill="white"/>
<path d="M12.294 2.45581L12.4179 2.84523L12.2231 2.91602L12.294 2.45581Z" fill="white"/>
<path d="M12.6888 2.73853H12.2728V2.95092L12.6888 2.73853Z" fill="white"/>
<path d="M12.6834 2.73853L12.3471 2.98633L12.2231 2.81817L12.6834 2.73853Z" fill="white"/>
<path d="M11.8975 2.73853L12.2338 2.98633L12.3577 2.81817L11.8975 2.73853Z" fill="white"/>
<path d="M11.8975 2.73853H12.3134V2.95092L11.8975 2.73853Z" fill="white"/>
<path d="M12.5378 3.20736L12.414 2.80908L12.2192 2.87104L12.5378 3.20736Z" fill="white"/>
<path d="M12.5363 3.20771L12.2001 2.95991L12.3239 2.79175L12.5363 3.20771Z" fill="white"/>
<path d="M12.0469 3.20771L12.3832 2.95991L12.2593 2.79175L12.0469 3.20771Z" fill="white"/>
<path d="M12.0469 3.20736L12.1797 2.80908L12.3743 2.87104L12.0469 3.20736Z" fill="white"/>
<path d="M13.9607 2.45581L13.8279 2.84523L14.0226 2.91602L13.9607 2.45581Z" fill="white"/>
<path d="M13.9562 2.45581L14.0801 2.84523L13.8854 2.91602L13.9562 2.45581Z" fill="white"/>
<path d="M14.3474 2.73853H13.9314V2.95092L14.3474 2.73853Z" fill="white"/>
<path d="M14.3456 2.73853L14.0093 2.98633L13.8854 2.81817L14.3456 2.73853Z" fill="white"/>
<path d="M13.5598 2.73853L13.8961 2.98633L14.02 2.81817L13.5598 2.73853Z" fill="white"/>
<path d="M13.5598 2.73853H13.9758V2.95092L13.5598 2.73853Z" fill="white"/>
<path d="M14.1937 3.20736L14.0698 2.80908L13.8662 2.87104L14.1937 3.20736Z" fill="white"/>
<path d="M14.1987 3.20771L13.8624 2.95991L13.9863 2.79175L14.1987 3.20771Z" fill="white"/>
<path d="M13.7053 3.20771L14.0416 2.95991L13.9177 2.79175L13.7053 3.20771Z" fill="white"/>
<path d="M13.7053 3.20736L13.8381 2.80908L14.0328 2.87104L13.7053 3.20736Z" fill="white"/>
<path d="M7.31149 4.11694L7.17871 4.51519L7.3823 4.57715L7.31149 4.11694Z" fill="white"/>
<path d="M7.31081 4.11694L7.43473 4.51519L7.23999 4.57715L7.31081 4.11694Z" fill="white"/>
<path d="M7.70195 4.3999H7.28601V4.6123L7.70195 4.3999Z" fill="white"/>
<path d="M7.70284 4.3999L7.36652 4.64771L7.25146 4.47955L7.70284 4.3999Z" fill="white"/>
<path d="M6.91443 4.3999L7.25075 4.64771L7.37466 4.47955L6.91443 4.3999Z" fill="white"/>
<path d="M6.91443 4.3999H7.33042V4.6123L6.91443 4.3999Z" fill="white"/>
<path d="M7.55486 4.86922L7.43094 4.47095L7.23621 4.53291L7.55486 4.86922Z" fill="white"/>
<path d="M7.5484 4.8686L7.22095 4.62079L7.33601 4.45264L7.5484 4.8686Z" fill="white"/>
<path d="M7.06763 4.8686L7.40389 4.62079L7.28003 4.45264L7.06763 4.8686Z" fill="white"/>
<path d="M7.06763 4.86922L7.20035 4.47095L7.39508 4.53291L7.06763 4.86922Z" fill="white"/>
<path d="M8.97762 4.11694L8.84485 4.51519L9.03958 4.57715L8.97762 4.11694Z" fill="white"/>
<path d="M8.98085 4.11694L9.10477 4.51519L8.91003 4.57715L8.98085 4.11694Z" fill="white"/>
<path d="M9.36045 4.3999H8.94446V4.6123L9.36045 4.3999Z" fill="white"/>
<path d="M9.36898 4.3999L9.03266 4.64771L8.9176 4.47955L9.36898 4.3999Z" fill="white"/>
<path d="M8.57678 4.3999L8.9131 4.64771L9.03702 4.47955L8.57678 4.3999Z" fill="white"/>
<path d="M8.57678 4.3999H8.99278V4.6123L8.57678 4.3999Z" fill="white"/>
<path d="M9.20952 4.86922L9.0856 4.47095L8.89087 4.53291L9.20952 4.86922Z" fill="white"/>
<path d="M9.2118 4.8686L8.87549 4.62079L8.99935 4.45264L9.2118 4.8686Z" fill="white"/>
<path d="M8.72998 4.8686L9.0663 4.62079L8.94243 4.45264L8.72998 4.8686Z" fill="white"/>
<path d="M8.72998 4.86922L8.8539 4.47095L9.05749 4.53291L8.72998 4.86922Z" fill="white"/>
<path d="M10.6361 4.11694L10.5033 4.51519L10.698 4.57715L10.6361 4.11694Z" fill="white"/>
<path d="M10.6393 4.11694L10.7632 4.51519L10.5685 4.57715L10.6393 4.11694Z" fill="white"/>
<path d="M11.0315 4.3999H10.6067V4.6123L11.0315 4.3999Z" fill="white"/>
<path d="M11.0325 4.3999L10.6873 4.64771L10.5723 4.47955L11.0325 4.3999Z" fill="white"/>
<path d="M10.239 4.3999L10.5753 4.64771L10.6992 4.47955L10.239 4.3999Z" fill="white"/>
<path d="M10.239 4.3999H10.655V4.6123L10.239 4.3999Z" fill="white"/>
<path d="M10.8757 4.86922L10.7517 4.47095L10.557 4.53291L10.8757 4.86922Z" fill="white"/>
<path d="M10.8806 4.8686L10.5531 4.62079L10.6682 4.45264L10.8806 4.8686Z" fill="white"/>
<path d="M10.3922 4.8686L10.7285 4.62079L10.6047 4.45264L10.3922 4.8686Z" fill="white"/>
<path d="M10.3922 4.86922L10.5161 4.47095L10.7197 4.53291L10.3922 4.86922Z" fill="white"/>
<path d="M12.2945 4.11694L12.1617 4.51519L12.3565 4.57715L12.2945 4.11694Z" fill="white"/>
<path d="M12.294 4.11694L12.4179 4.51519L12.2231 4.57715L12.294 4.11694Z" fill="white"/>
<path d="M12.6888 4.3999H12.2728V4.6123L12.6888 4.3999Z" fill="white"/>
<path d="M12.6834 4.3999L12.3471 4.64771L12.2231 4.47955L12.6834 4.3999Z" fill="white"/>
<path d="M11.8975 4.3999L12.2338 4.64771L12.3577 4.47955L11.8975 4.3999Z" fill="white"/>
<path d="M11.8975 4.3999H12.3134V4.6123L11.8975 4.3999Z" fill="white"/>
<path d="M12.5378 4.86922L12.414 4.47095L12.2192 4.53291L12.5378 4.86922Z" fill="white"/>
<path d="M12.5363 4.8686L12.2001 4.62079L12.3239 4.45264L12.5363 4.8686Z" fill="white"/>
<path d="M12.0469 4.8686L12.3832 4.62079L12.2593 4.45264L12.0469 4.8686Z" fill="white"/>
<path d="M12.0469 4.86922L12.1797 4.47095L12.3743 4.53291L12.0469 4.86922Z" fill="white"/>
<path d="M13.9607 4.11694L13.8279 4.51519L14.0226 4.57715L13.9607 4.11694Z" fill="white"/>
<path d="M13.9562 4.11694L14.0801 4.51519L13.8854 4.57715L13.9562 4.11694Z" fill="white"/>
<path d="M14.3474 4.3999H13.9314V4.6123L14.3474 4.3999Z" fill="white"/>
<path d="M14.3456 4.3999L14.0093 4.64771L13.8854 4.47955L14.3456 4.3999Z" fill="white"/>
<path d="M13.5598 4.3999L13.8961 4.64771L14.02 4.47955L13.5598 4.3999Z" fill="white"/>
<path d="M13.5598 4.3999H13.9758V4.6123L13.5598 4.3999Z" fill="white"/>
<path d="M14.1937 4.86922L14.0698 4.47095L13.8662 4.53291L14.1937 4.86922Z" fill="white"/>
<path d="M14.1987 4.8686L13.8624 4.62079L13.9863 4.45264L14.1987 4.8686Z" fill="white"/>
<path d="M13.7053 4.8686L14.0416 4.62079L13.9177 4.45264L13.7053 4.8686Z" fill="white"/>
<path d="M13.7053 4.86922L13.8381 4.47095L14.0328 4.53291L13.7053 4.86922Z" fill="white"/>
</svg>
