<svg width="90" height="90" viewBox="0 0 90 90" fill="none" xmlns="http://www.w3.org/2000/svg">
<path d="M76.8 13.8675C68.7 5.88284 57.45 0.855469 45 0.855469C32.55 0.855469 21.3 5.88284 13.2 13.8675C5.1 21.8521 0 32.9419 0 45.2146C0 57.4873 5.1 68.5771 13.2 76.5617C21.3 84.5463 32.55 89.5737 45 89.5737C57.45 89.5737 68.7 84.5463 76.8 76.5617C84.9 68.5771 90 57.4873 90 45.2146C90 32.9419 84.9 21.8521 76.8 13.8675ZM76.2 74.4916C75.6 75.0831 75.75 75.0831 74.7 75.9702C66.9 83.2156 56.4 87.6515 44.85 87.6515C33 87.6515 22.2 82.9198 14.4 75.2309C6.6 67.542 1.8 56.8958 1.8 45.2146C1.8 33.8291 6.3 23.4786 13.8 15.7897C21.15 7.95293 33.45 2.62983 45 2.62983C56.85 2.62983 67.65 7.36147 75.45 15.0504C83.25 22.7393 88.05 33.3855 88.05 45.0667C88.2 56.6001 83.55 66.9506 76.2 74.4916Z" fill="white"/>
<path d="M43.65 64.7329C41.55 64.7329 39.75 66.5073 39.75 68.5774C39.75 70.6475 41.55 72.4218 43.65 72.4218C45.75 72.4218 47.55 70.6475 47.55 68.5774C47.55 66.5073 45.75 64.7329 43.65 64.7329ZM52.2 63.6979C51.6 63.6979 51.15 64.1415 51.15 64.7329C51.15 65.3244 51.6 65.768 52.2 65.768C52.8 65.768 53.25 65.3244 53.25 64.7329C53.25 64.1415 52.8 63.6979 52.2 63.6979ZM31.8 62.2192C31.2 62.2192 30.75 62.6628 30.75 63.2543C30.75 63.8457 31.2 64.2893 31.8 64.2893C32.4 64.2893 32.85 63.8457 32.85 63.2543C33 62.6628 32.4 62.2192 31.8 62.2192ZM41.7 58.8184C42.3 58.8184 42.75 58.3748 42.75 57.7833C42.75 57.1919 42.3 56.7483 41.7 56.7483C41.1 56.7483 40.65 57.1919 40.65 57.7833C40.65 58.2269 41.1 58.8184 41.7 58.8184ZM48.45 55.8611C47.4 55.8611 46.65 56.6004 46.65 57.6354C46.65 58.6705 47.4 59.4098 48.45 59.4098C49.5 59.4098 50.25 58.6705 50.25 57.6354C50.25 56.6004 49.5 55.8611 48.45 55.8611Z" fill="white"/>
<path d="M28.2 47.8765C29.1941 47.8765 30 47.0819 30 46.1017C30 45.1215 29.1941 44.3269 28.2 44.3269C27.2059 44.3269 26.4 45.1215 26.4 46.1017C26.4 47.0819 27.2059 47.8765 28.2 47.8765Z" fill="white"/>
<path d="M14.7 44.475C14.1 44.475 13.5 45.0665 13.5 45.6579C13.5 46.2494 13.95 46.693 14.55 46.693C15.15 46.693 15.6 46.2494 15.6 45.6579C15.75 45.0665 15.3 44.475 14.7 44.475ZM19.8 48.1716C18.6 48.1716 17.55 49.2067 17.55 50.3896C17.55 51.5725 18.6 52.6075 19.8 52.6075C21 52.6075 22.05 51.5725 22.05 50.3896C22.2 49.2067 21.15 48.1716 19.8 48.1716ZM26.4 49.2067C25.8 49.2067 25.35 49.6503 25.35 50.2417C25.35 50.8332 25.8 51.2768 26.4 51.2768C27 51.2768 27.45 50.8332 27.45 50.2417C27.45 49.6503 27 49.2067 26.4 49.2067ZM18 29.8365C18 29.2451 17.55 28.8015 16.95 28.8015C16.35 28.8015 15.9 29.2451 15.9 29.8365C15.9 30.428 16.35 30.8716 16.95 30.8716C17.55 30.8716 18 30.428 18 29.8365ZM36 31.0194C34.8 31.0194 33.75 32.0545 33.75 33.2374C33.75 34.4203 34.8 35.4554 36 35.4554C37.2 35.4554 38.25 34.4203 38.25 33.2374C38.4 32.0545 37.35 31.0194 36 31.0194ZM50.25 20.5211C51.45 20.5211 52.5 19.4861 52.5 18.3032C52.5 17.1203 51.45 16.0852 50.25 16.0852C49.05 16.0852 48 16.9724 48 18.3032C48 19.4861 48.9 20.5211 50.25 20.5211Z" fill="white"/>
<path d="M46.65 30.7244C47.6441 30.7244 48.45 29.9298 48.45 28.9496C48.45 27.9694 47.6441 27.1748 46.65 27.1748C45.6559 27.1748 44.85 27.9694 44.85 28.9496C44.85 29.9298 45.6559 30.7244 46.65 30.7244Z" fill="white"/>
<path d="M52.2 27.6183C52.2 27.0268 51.75 26.5833 51.15 26.5833C50.55 26.5833 50.1 27.0268 50.1 27.6183C50.1 28.2098 50.55 28.6533 51.15 28.6533C51.6 28.8012 52.2 28.2098 52.2 27.6183ZM42.9 38.1166C43.5 38.1166 43.95 37.673 43.95 37.0816C43.95 36.4901 43.5 36.0465 42.9 36.0465C42.3 36.0465 41.85 36.4901 41.85 37.0816C41.7 37.673 42.3 38.1166 42.9 38.1166Z" fill="white"/>
<path d="M51.15 45.9551C52.1441 45.9551 52.95 45.1605 52.95 44.1803C52.95 43.2001 52.1441 42.4055 51.15 42.4055C50.1559 42.4055 49.35 43.2001 49.35 44.1803C49.35 45.1605 50.1559 45.9551 51.15 45.9551Z" fill="white"/>
<path d="M54.45 40.7783C53.85 40.7783 53.4 41.2219 53.4 41.8133C53.4 42.4048 53.85 42.8484 54.45 42.8484C55.05 42.8484 55.5 42.4048 55.5 41.8133C55.5 41.2219 55.05 40.7783 54.45 40.7783ZM61.2 33.0894C60.6 33.0894 60.15 33.5329 60.15 34.1244C60.15 34.7159 60.6 35.1595 61.2 35.1595C61.8 35.1595 62.25 34.7159 62.25 34.1244C62.25 33.5329 61.8 33.0894 61.2 33.0894ZM65.7 45.2142C64.5 45.2142 63.45 46.2492 63.45 47.4321C63.45 48.615 64.5 49.6501 65.7 49.6501C66.9 49.6501 67.95 48.615 67.95 47.4321C67.95 46.1014 66.9 45.2142 65.7 45.2142Z" fill="white"/>
<path d="M61.05 51.4248C61.6299 51.4248 62.1 50.9614 62.1 50.3897C62.1 49.818 61.6299 49.3545 61.05 49.3545C60.4701 49.3545 60 49.818 60 50.3897C60 50.9614 60.4701 51.4248 61.05 51.4248Z" fill="white"/>
<path d="M56.7 49.798C56.1 49.798 55.65 50.2416 55.65 50.833C55.65 51.4245 56.1 51.8681 56.7 51.8681C57.3 51.8681 57.75 51.4245 57.75 50.833C57.75 50.2416 57.3 49.798 56.7 49.798ZM74.1 39.0039C73.05 39.0039 72.3 39.7432 72.3 40.7783C72.3 41.8133 73.05 42.5526 74.1 42.5526C75.15 42.5526 75.9 41.8133 75.9 40.7783C75.9 39.7432 75 39.0039 74.1 39.0039ZM69.9 59.2612C69.3 59.2612 68.85 59.7048 68.85 60.2963C68.85 60.8877 69.3 61.3313 69.9 61.3313C70.5 61.3313 70.95 60.8877 70.95 60.2963C71.1 59.8527 70.5 59.2612 69.9 59.2612Z" fill="white"/>
<path d="M14 14L76.5 76.5" stroke="white" stroke-width="2"/>
</svg>
