<svg width="90" height="90" viewBox="0 0 90 90" fill="none" xmlns="http://www.w3.org/2000/svg">
<path d="M76.8 13.8675C68.7 5.88284 57.45 0.855469 45 0.855469C32.55 0.855469 21.3 5.88284 13.2 13.8675C5.1 21.8521 0 32.9419 0 45.2146C0 57.4873 5.1 68.5771 13.2 76.5617C21.3 84.5463 32.55 89.5737 45 89.5737C57.45 89.5737 68.7 84.5463 76.8 76.5617C84.9 68.5771 90 57.4873 90 45.2146C90 32.9419 84.9 21.8521 76.8 13.8675ZM76.2 74.6395L75.75 75.0831C75.45 75.3788 75.45 75.3788 75.3 75.3788L74.85 75.8224L74.7 75.9702C66.9 83.3634 56.4 87.7993 44.85 87.7993C33 87.7993 22.2 83.0677 14.4 75.3788C6.6 67.6899 1.8 57.0437 1.8 45.3624C1.8 33.9769 6.3 23.6265 13.8 15.9376L14.25 15.494L14.7 14.9025L15.15 14.6068C22.95 7.21361 33.45 2.7777 45 2.7777C56.85 2.7777 67.65 7.50934 75.45 15.1982C83.25 22.8872 88.05 33.5334 88.05 45.2146C88.2 56.6001 83.55 66.9506 76.2 74.6395Z" fill="white"/>
<path d="M65.4 51.2768C65.4 46.693 63.75 42.2571 60.9 38.5605L58.2 35.1596C57.9 34.716 57.3 34.716 56.85 35.0118C56.4 35.3075 56.4 35.8989 56.7 36.3425L59.4 39.7434C62.1 42.9964 63.6 47.1366 63.6 51.2768C63.6 54.3819 62.85 57.487 61.35 60.0007L61.05 60.4443C60.75 60.7401 61.05 60.4443 60.9 60.7401C60.6 61.1836 60.75 60.8879 60.6 61.1836L60.3 61.6272C57 66.3589 51.3 69.6119 45 69.6119C34.8 69.6119 26.4 61.4794 26.4 51.2768C26.4 46.9887 27.9 42.8485 30.6 39.5955V39.4477L33.75 35.6032L34.2 35.0118C34.5 34.5682 34.35 34.716 34.8 34.2724L34.95 34.1246L45 21.5562L49.05 26.7314C49.35 27.175 49.95 27.175 50.4 26.8793C50.85 26.5835 50.85 25.9921 50.55 25.5485L45.75 19.3382C45.6 19.0425 45.3 19.0425 45 19.0425C44.7 19.0425 44.4 19.1903 44.25 19.3382L33.6 32.6459L33.15 33.0895C32.7 33.681 33 33.2374 32.55 33.8289L32.4 34.1246L29.1 38.2648C26.1 41.8135 24.6 46.3973 24.6 50.981C24.6 62.0708 33.75 71.0905 45 71.0905C51.9 71.0905 57.9 67.6896 61.65 62.6623L61.8 62.3666C62.25 61.7751 61.8 62.3666 62.25 61.6272L62.7 61.0358C64.35 58.3742 65.4 54.8255 65.4 51.2768Z" fill="white"/>
<path d="M54.15 31.9064C54.45 31.9064 54.6 31.7586 54.75 31.6107C54.9 31.4629 55.05 31.1671 55.05 31.0193C55.05 30.7235 54.9 30.5757 54.75 30.4278C54.6 30.2799 54.3 30.1321 54.15 30.1321C53.85 30.1321 53.7 30.2799 53.55 30.4278C53.4 30.5757 53.25 30.8714 53.25 31.0193C53.25 31.315 53.4 31.4629 53.55 31.6107C53.55 31.7586 53.85 31.9064 54.15 31.9064Z" fill="white"/>
<path d="M14 16L76 78" stroke="white" stroke-width="2"/>
</svg>
