<svg width="90" height="90" viewBox="0 0 90 90" fill="none" xmlns="http://www.w3.org/2000/svg">
<path d="M67.05 66.6418V65.9024L66.9 65.1631C66.9 64.7195 66.75 64.4238 66.6 63.9802L53.4 32.3374C52.65 30.563 52.2 28.6408 52.2 26.7186V18.2903C52.2 17.2553 52.65 16.3681 53.25 15.6288C54 14.8895 54.45 14.0023 54.45 12.9672V11.6364C54.45 11.1929 54 10.7493 53.55 10.7493H36.45C36 10.7493 35.55 11.1929 35.55 11.6364V12.8194C35.55 13.8544 36 14.7416 36.75 15.4809C37.5 16.2202 37.8 17.1074 37.8 18.1425V26.5707C37.8 28.4929 37.35 30.4151 36.6 32.1895L35.7 34.4075L35.55 34.8511L35.4 35.1468L35.1 35.8861L34.95 36.1818L33 41.0613L23.4 64.1281C22.65 65.9024 22.8 67.8247 24 69.4512C25.05 71.0777 26.85 71.9648 28.8 71.9648H40.2C40.8 72.9999 41.55 74.0349 42.45 74.9221C44.7 77.1401 47.55 78.323 50.7 78.323C52.95 78.323 55.2 77.7315 57 76.4008V78.1751C57 78.6187 57.45 79.0623 57.9 79.0623C58.35 79.0623 58.8 78.6187 58.8 78.1751C58.8 77.1401 58.65 76.2529 58.35 75.2178L58.65 74.9221C59.55 74.0349 60.3 72.9999 60.9 71.9648H61.35C63.3 71.9648 65.1 71.0777 66.15 69.4512C66.45 68.8597 66.75 68.2683 66.9 67.6768L67.05 67.5289V67.2332V66.6418ZM36.3 37.6605V37.5126C36.45 36.9211 36.3 37.5126 36.6 36.7733L36.75 36.3297L36.9 35.8861L38.1 32.9288C39 30.8587 39.3 28.7886 39.3 26.5707V18.1425C39.3 16.6638 38.7 15.333 37.65 14.298C37.2 13.8544 37.05 13.4108 37.05 12.8194V12.5236H52.35V12.8194C52.35 13.4108 52.2 13.8544 51.75 14.298C50.7 15.333 50.1 16.6638 50.1 18.1425V26.5707C50.1 28.7886 50.55 30.8587 51.3 32.9288L54.45 40.4699H42.15H39.6H34.65L36.3 37.6605ZM57.6 73.4435C57.15 72.5563 56.4 71.6691 55.65 70.9298L55.5 70.4862V65.311C55.5 64.8674 55.05 64.4238 54.6 64.4238C54.15 64.4238 53.7 64.8674 53.7 65.311V68.7118L50.7 65.7546V60.7272C50.7 60.2836 50.25 59.84 49.8 59.84C49.35 59.84 48.9 60.2836 48.9 60.7272V63.8323L43.5 58.6571C43.2 58.3614 42.6 58.3614 42.15 58.6571C41.85 58.9528 41.85 59.5443 42.15 59.9879L47.4 65.1631H44.25C43.8 65.1631 43.35 65.6067 43.35 66.0503C43.35 66.4939 43.8 66.9375 44.25 66.9375H49.35L52.35 69.8948H46.65C46.2 69.8948 45.75 70.3383 45.75 70.7819C45.75 71.2255 46.2 71.6691 46.65 71.6691H54.15L54.45 71.9648C55.2 72.7042 55.8 73.5913 56.25 74.4785C54.6 75.6614 52.65 76.4008 50.55 76.4008C48 76.4008 45.45 75.3657 43.65 73.5914C42 71.9648 41.1 69.8948 40.8 67.8247L39.3 55.8477L51.3 57.3263H51.45C53.7 57.4742 55.8 58.5092 57.45 60.1357C59.25 61.9101 60.3 64.4238 60.3 66.9375C60.3 69.3033 59.4 71.6691 57.6 73.4435ZM60.3 60.5793C60.3 60.5793 60.15 60.4315 60.15 60.2836C60 59.9879 59.7 59.84 59.55 59.5443L59.4 59.3964L59.1 59.1007C58.65 58.6571 58.2 58.2135 57.75 57.9178L57.6 57.7699L56.7 57.3263C56.55 57.3263 56.4 57.1785 56.4 57.0306C56.4 57.0306 56.25 57.0306 56.25 56.8827C56.1 56.8827 55.95 56.7349 55.95 56.7349L55.65 56.587C54.45 55.9956 53.1 55.552 51.75 55.552L38.4 53.9255C38.1 53.9255 37.8 53.9255 37.65 54.2212C37.5 54.3691 37.35 54.6648 37.35 54.9605L39 68.1204C39 68.8597 39.15 69.599 39.45 70.1905H28.8C27.45 70.1905 26.25 69.599 25.5 68.4161C24.9 67.6768 24.75 66.6418 24.9 65.7546V65.4588H27.15C27.6 65.4588 28.05 65.0153 28.05 64.5717C28.05 64.1281 27.6 63.6845 27.15 63.6845H25.5L27.15 59.6922H29.4C29.85 59.6922 30.3 59.2486 30.3 58.805C30.3 58.3614 29.85 57.9178 29.4 57.9178H27.9L29.55 53.9255H31.95C32.4 53.9255 32.85 53.4819 32.85 53.0383C32.85 52.5947 32.4 52.1511 31.95 52.1511H30.3L31.95 48.1588H34.35C34.8 48.1588 35.25 47.7152 35.25 47.2716C35.25 46.828 34.8 46.3844 34.35 46.3844H32.7L34.35 42.3921H55.5L63.75 62.2058L64.05 62.9452C64.5 64.1281 64.35 63.9802 64.8 65.1631C64.8 65.311 64.95 65.6067 64.95 65.6067L65.1 66.1982C65.1 67.0853 64.95 67.8247 64.5 68.564C63.75 69.599 62.7 70.1905 61.5 70.3383C61.8 69.3033 61.95 68.1204 61.95 67.0853C61.95 65.311 61.5 63.5366 60.75 62.058L60.6 61.7623L60.45 61.6144V61.4665C60.6 61.1708 60.3 60.5793 60.3 60.5793Z" fill="white"/>
<path d="M76.8 13.5591C68.7 5.57449 57.45 0.547119 45 0.547119C32.55 0.547119 21.3 5.57449 13.2 13.5591C5.1 21.5438 0 32.6335 0 44.9062C0 57.1789 5.1 68.2687 13.2 76.2533C21.3 84.238 32.55 89.2654 45 89.2654C57.45 89.2654 68.7 84.238 76.8 76.2533C84.9 68.2687 90 57.1789 90 44.9062C90 32.6335 84.9 21.5438 76.8 13.5591ZM76.2 74.3311L75.75 74.7747L75.15 75.3662L74.85 75.6619C67.05 83.0551 56.55 87.491 45 87.491C33.15 87.491 22.35 82.7594 14.55 75.0704C6.75 67.3815 1.95 56.7353 1.95 45.0541C1.95 33.6686 6.45 23.3181 13.95 15.6292L14.25 15.3335C14.7 14.5942 14.25 15.0378 14.85 14.5942L15.15 14.2984C22.95 6.90526 33.45 2.46935 45 2.46935C56.85 2.46935 67.65 7.20099 75.45 14.8899C83.25 22.5788 88.05 33.225 88.05 44.9062C88.2 56.2917 83.55 66.6422 76.2 74.3311Z" fill="white"/>
<path d="M14 13L76.5 75.5" stroke="white" stroke-width="2"/>
<path fill-rule="evenodd" clip-rule="evenodd" d="M53.85 61.6153C54 61.4674 54.3 61.3196 54.45 61.3196C54.75 61.3196 54.9 61.4674 55.05 61.6153C55.2 61.7632 55.35 62.0589 55.35 62.2068C55.35 62.3546 55.2 62.6504 55.05 62.7982C54.9 62.9461 54.6 63.0939 54.45 63.0939C54.15 63.0939 54 62.9461 53.85 62.7982C53.7 62.6504 53.55 62.3546 53.55 62.2068C53.55 62.0589 53.7 61.7632 53.85 61.6153Z" fill="white"/>
</svg>
