<svg width="90" height="90" viewBox="0 0 90 90" fill="none" xmlns="http://www.w3.org/2000/svg">
<path d="M46.65 79.4922C48.45 79.64 50.4 79.0486 51.75 77.8657C53.1 76.6828 54 75.0562 54.15 73.134C54.3 71.3597 53.7 69.5853 52.5 68.1067C51.3 66.7759 49.65 65.8887 47.7 65.7408C45.9 65.593 43.95 66.1844 42.6 67.3673C41.25 68.5502 40.35 70.1767 40.2 72.099C40.05 73.8733 40.65 75.6477 41.85 77.1263C43.05 78.605 44.85 79.3443 46.65 79.4922ZM43.95 68.846C45 67.9588 46.35 67.5152 47.7 67.6631C49.05 67.8109 50.25 68.4024 51.15 69.4374C52.05 70.4725 52.5 71.8032 52.35 73.134C52.2 74.4648 51.6 75.6477 50.55 76.5349C49.5 77.4221 48.15 77.8657 46.8 77.7178C45.45 77.5699 44.25 76.9785 43.35 75.9434C42.45 74.9084 42 73.5776 42.15 72.2468C42.15 70.9161 42.9 69.7332 43.95 68.846Z" fill="white"/>
<path d="M76.8 13.545C68.7 5.56033 57.45 0.532959 45 0.532959C32.55 0.532959 21.3 5.56033 13.2 13.545C5.1 21.6775 0 32.7673 0 44.8921C0 57.1648 5.1 68.2545 13.2 76.2392C21.3 84.2238 32.55 89.2512 45 89.2512C57.45 89.2512 68.7 84.2238 76.8 76.2392C84.9 68.2545 90 57.1648 90 44.8921C90 32.7673 84.9 21.6775 76.8 13.545ZM76.2 74.317L75.75 74.7605L75.15 75.352L74.85 75.6477C67.05 83.0409 56.55 87.4768 45 87.4768C33.15 87.4768 22.35 82.7452 14.55 75.0563C6.75 67.3674 1.95 56.7212 1.95 45.0399C1.95 33.6544 6.45 23.304 13.95 15.6151L14.4 15.1715C14.85 14.7279 14.55 15.0236 15 14.4321L15.15 14.2843C22.95 6.8911 33.45 2.45519 45 2.45519C56.85 2.45519 67.65 7.18683 75.45 14.8757C83.25 22.5647 88.05 33.2108 88.05 44.8921C88.2 56.4254 83.55 66.7759 76.2 74.317Z" fill="white"/>
<path d="M74.2499 42.0827C72.4499 40.7519 69.8999 40.7519 68.0999 42.2306C67.7999 42.3784 67.6499 42.6742 67.3499 42.9699C67.0499 43.4135 66.7499 43.8571 66.5999 44.3007V44.4485L61.4999 43.7092V43.5614C61.4999 42.2306 61.3499 40.8998 60.8999 39.569C60.4499 38.2383 59.6999 37.0554 58.7999 35.8724C57.8999 34.8374 56.8499 33.9502 55.4999 33.2109V33.063L56.9999 23.4519H57.2999C59.2499 23.7476 61.1999 23.1562 62.6999 21.9733C64.0499 20.7903 64.9499 19.1638 65.0999 17.3895C65.2499 15.6151 64.6499 13.8407 63.4499 12.51C62.2499 11.1792 60.5999 10.292 58.7999 10.1442C56.9999 9.99629 55.1999 10.5877 53.8499 11.7707C52.4999 12.9536 51.5999 14.5801 51.4499 16.3544C51.2999 18.1288 51.8999 19.9032 53.0999 21.2339C53.6999 21.8254 54.2999 22.4168 55.0499 22.7126L55.1999 22.8604V23.1562L53.6999 32.4716L53.3999 32.3237C49.6499 31.2887 45.7499 32.028 42.7499 34.5417C41.3999 35.5767 40.3499 37.0554 39.7499 38.534L39.5999 38.9776C39.2999 39.569 39.4499 39.2733 39.2999 39.8648L39.1499 40.4562C39.1499 40.6041 39.1499 40.7519 38.9999 40.8998V41.0477L36.5999 40.8998H35.9999L31.0499 40.4562V40.3084C31.0499 38.2383 30.2999 36.316 28.9499 34.6895C27.4499 32.9152 25.3499 31.8801 23.0999 31.7323C20.8499 31.5844 18.5999 32.3237 16.7999 33.6545C14.9999 35.1331 13.9499 37.2032 13.7999 39.4212C13.6499 41.6391 14.3999 43.8571 15.7499 45.6314C17.2499 47.4058 19.3499 48.4409 21.5999 48.5887C23.8499 48.7366 26.0999 47.9973 27.8999 46.6665C29.2499 45.6314 30.1499 44.1528 30.5999 42.5263V42.3784L38.5499 43.1178V43.2656C38.5499 45.9272 39.5999 48.4409 41.2499 50.3631C42.7499 52.1375 44.8499 53.3204 47.0999 53.9118H47.2499L46.9499 56.8691C46.9499 57.3127 47.2499 57.7563 47.8499 57.9041C48.2999 57.9041 48.7499 57.6084 48.8999 57.017L49.1999 54.2075H49.3499C50.3999 54.2075 51.4499 54.2075 52.4999 53.9118L52.9499 53.764C53.5499 53.6161 52.6499 53.764 53.6999 53.6161C53.9999 53.4682 54.1499 53.4682 54.1499 53.4682L54.4499 53.3204C55.4999 52.8768 56.3999 52.2853 57.2999 51.546C59.0999 50.0674 60.4499 47.9973 61.0499 45.6314V45.4836L66.1499 46.2229V46.5186C66.2999 47.8494 66.8999 48.8844 67.9499 49.6238C70.0499 51.2503 73.0499 50.8067 74.6999 48.7366C75.4499 47.7015 75.8999 46.5186 75.5999 45.1879C75.8999 44.0049 75.2999 42.822 74.2499 42.0827ZM26.8499 45.1879C25.4999 46.3708 23.6999 46.9622 21.8999 46.8144C20.0999 46.6665 18.4499 45.7793 17.2499 44.4485C16.0499 43.1178 15.4499 41.3434 15.5999 39.569C15.7499 37.7947 16.6499 36.1682 17.9999 34.9853C19.3499 33.8024 21.1499 33.2109 22.9499 33.3588C24.7499 33.5066 26.3999 34.3938 27.5999 35.7246C28.7999 37.0554 29.3999 38.8297 29.2499 40.6041C29.0999 42.3784 28.1999 44.0049 26.8499 45.1879ZM54.4499 20.051C53.5499 19.016 53.2499 17.8331 53.2499 16.5023C53.3999 15.1715 53.9999 13.9886 54.8999 13.2493C55.9499 12.3621 57.1499 12.0664 58.4999 12.0664C59.8499 12.2142 61.0499 12.8057 61.7999 13.6929C62.6999 14.7279 62.9999 15.9108 62.9999 17.2416C62.8499 18.5724 62.2499 19.7553 61.3499 20.4946C60.2999 21.3818 59.0999 21.6775 57.7499 21.6775C56.5499 21.6775 55.3499 21.0861 54.4499 20.051ZM59.6999 43.8571C59.5499 46.3708 58.3499 48.5887 56.3999 50.2152C55.4999 50.9545 54.4499 51.546 53.3999 51.9896L52.9499 52.1375C52.1999 52.4332 52.7999 52.1375 52.3499 52.2853C52.1999 52.2853 51.8999 52.2853 51.7499 52.4332H49.4999C46.9499 52.2853 44.6999 51.1024 43.0499 49.1802C41.3999 47.2579 40.6499 44.8921 40.7999 42.3784V41.787C40.9499 41.0477 40.7999 41.6391 40.9499 40.7519L41.2499 39.8648C41.8499 38.3861 42.7499 36.9075 44.0999 35.8724C46.0499 34.2459 48.4499 33.5066 50.9999 33.6545C53.5499 33.8024 55.7999 34.9853 57.4499 36.9075C59.0999 38.8297 59.8499 41.3434 59.6999 43.8571ZM73.6499 47.7015C72.5999 49.0323 70.7999 49.1802 69.4499 48.293C68.8499 47.8494 68.3999 47.1101 68.2499 46.3708C68.0999 45.6314 68.3999 44.7443 68.8499 44.1528C69.8999 42.822 71.6999 42.6742 73.0499 43.5614C73.6499 44.0049 74.0999 44.7443 74.2499 45.4836C74.2499 46.2229 74.0999 47.1101 73.6499 47.7015Z" fill="white"/>
<path d="M14 13L76 75" stroke="white" stroke-width="2"/>
</svg>
