<svg width="90" height="90" viewBox="0 0 90 90" fill="none" xmlns="http://www.w3.org/2000/svg">
<path d="M39.9 42.3786H35.7V52.8769C35.7 53.0248 35.7 53.0248 35.85 53.1726C35.85 53.3205 36 53.3205 36.15 53.3205H37.2C37.35 53.3205 37.35 53.3205 37.5 53.1726C37.65 53.1726 37.65 53.0248 37.65 52.8769V50.3632C37.65 50.2154 37.65 50.0675 37.5 49.9196C37.35 49.7718 37.2 49.6239 37.05 49.6239H40.05C40.5 49.6239 40.8 49.476 41.1 49.1803C41.4 48.8846 41.55 48.5889 41.55 48.1453V43.8572C41.55 43.4136 41.4 43.1179 41.1 42.8222C40.5 42.5264 40.2 42.3786 39.9 42.3786ZM39.45 47.1102C39.45 47.2581 39.45 47.4059 39.3 47.5538C39.15 47.7017 39 47.7017 38.85 47.8495H37.65V44.1529H38.85C39 44.1529 39.15 44.3008 39.3 44.4487C39.45 44.5965 39.45 44.7444 39.45 44.8923V47.1102ZM46.05 45.3359V44.8923C46.05 44.7444 45.9 44.5965 45.9 44.4487C45.75 44.3008 45.6 44.3008 45.45 44.3008H47.55C47.7 44.3008 47.7 44.3008 47.85 44.1529C47.85 44.1529 48 44.0051 48 43.8572V42.8222C48 42.6743 48 42.6743 47.85 42.5264C47.85 42.5264 47.7 42.3786 47.55 42.3786H43.05C42.75 42.3786 42.15 42.2307 42.15 42.6743V43.7094C42.15 43.8572 42.15 43.8572 42.3 44.0051C42.3 44.1529 42.45 44.1529 42.6 44.1529H44.1C44.55 44.3008 44.4 44.8923 44.4 45.3359V52.8769C44.4 53.0248 44.4 53.0248 44.55 53.1726C44.55 53.3205 44.7 53.3205 44.85 53.3205H45.9C46.05 53.3205 46.05 53.3205 46.2 53.1726C46.2 53.1726 46.35 53.0248 46.35 52.8769V47.4059L46.05 45.3359ZM49.05 47.8495V52.8769C49.05 53.0248 49.05 53.0248 49.2 53.1726C49.2 53.3205 49.35 53.3205 49.5 53.3205H50.55C50.7 53.3205 50.7 53.3205 50.85 53.1726C51 53.1726 51 53.0248 51 52.8769V51.8419V51.5461V50.9547V50.3632C51 49.9196 51.15 49.476 51.75 49.476H52.2C52.8 49.476 52.8 49.7718 52.95 50.0675V52.8769C52.95 52.8769 52.95 53.0248 53.1 53.1726H54.6C54.75 53.0248 54.6 53.0248 54.6 52.8769V42.6743C54.6 42.5264 54.6 42.5264 54.45 42.3786C54.45 42.2307 54.3 42.2307 54.15 42.2307H53.1C52.95 42.2307 52.95 42.2307 52.8 42.3786C52.8 42.3786 52.65 42.5264 52.65 42.6743V47.4059C52.65 47.5538 52.65 47.5538 52.5 47.7017C52.35 47.7017 52.35 47.8495 52.2 47.8495H51.15C51 47.8495 51 47.8495 50.85 47.7017C50.85 47.5538 50.7 47.5538 50.7 47.4059V42.6743C50.7 42.5264 50.7 42.5264 50.55 42.3786C50.55 42.2307 50.4 42.2307 50.25 42.2307H49.2C49.05 42.2307 49.05 42.2307 48.9 42.3786C48.75 42.3786 48.75 42.5264 48.75 42.6743V47.8495" fill="white"/>
<path d="M76.8 13.545C68.7 5.56032 57.45 0.532959 45 0.532959C32.55 0.532959 21.3 5.56032 13.2 13.545C5.1 21.5296 0 32.6194 0 44.8921C0 57.1648 5.1 68.2545 13.2 76.2392C21.3 84.2238 32.55 89.2512 45 89.2512C57.45 89.2512 68.7 84.2238 76.8 76.2392C84.9 68.2545 90 57.1648 90 44.8921C90 32.7673 84.9 21.6775 76.8 13.545ZM76.2 74.4648L75.9 74.6127L75.15 75.352L74.85 75.6477C67.05 83.0409 56.55 87.4768 45 87.4768C33.15 87.4768 22.35 82.7452 14.55 75.0563C6.75 67.3674 1.95 56.7212 1.95 45.0399C1.95 33.6544 6.45 23.304 13.95 15.6151L14.25 15.3193C14.7 14.8757 14.4 15.1715 14.85 14.58L15.15 14.2843C22.95 6.8911 33.45 2.45519 45 2.45519C56.85 2.45519 67.65 7.18683 75.45 14.8757C83.25 22.5647 88.05 33.2108 88.05 44.8921C88.2 56.4254 83.55 66.7759 76.2 74.4648Z" fill="white"/>
<path d="M62.55 61.6002V36.6113C62.55 35.1326 61.65 33.8019 60.15 33.3583C59.55 33.2104 59.1 32.4711 59.1 31.8796V31.1403H61.65C62.1 31.1403 62.55 30.6967 62.55 30.2531V25.6693C62.55 23.895 61.05 22.5642 59.4 22.5642H30.6C28.8 22.5642 27.45 24.0428 27.45 25.6693V30.2531C27.45 30.6967 27.9 31.1403 28.35 31.1403H30.75V32.0275C30.6 32.6189 30.3 33.0625 29.7 33.2104C28.35 33.654 27.3 34.9848 27.3 36.4634V63.966C27.3 65.5926 28.35 66.7755 30 67.0712H59.4C61.2 67.0712 62.55 65.5926 62.55 63.966V62.931C62.7 62.7831 62.7 62.0438 62.55 61.6002ZM29.25 29.3659V25.6693C29.25 24.93 29.85 24.3386 30.6 24.3386H59.4C60.15 24.3386 60.75 24.93 60.75 25.6693V29.3659H29.25ZM60.75 61.3045V64.2618C60.75 65.0011 60.15 65.5925 59.4 65.5925H30.6C29.85 65.5925 29.25 65.0011 29.25 64.2618V36.6113C29.55 35.7241 30 35.2805 30.3 35.1326C30.6 34.9848 30.6 34.9848 31.05 34.8369C31.65 34.3933 32.1 33.8019 32.25 33.654C32.4 33.5061 32.4 33.2104 32.55 33.2104C32.55 33.2104 32.55 33.0625 32.7 32.9147C32.85 32.6189 32.85 32.1754 32.85 32.0275V31.2882H57.6V32.0275C57.6 33.5061 58.5 34.8369 60 35.2805C60.6 35.4284 61.05 36.1677 61.05 36.7591V59.3823L60.75 61.3045Z" fill="white"/>
<path d="M54.15 55.5391V57.3139H57.3C57.75 57.3139 58.2 56.8702 58.2 56.4265V53.3206H56.4V55.5391H54.15ZM33.75 53.3206H31.95V56.4265C31.95 56.8702 32.4 57.3139 32.85 57.3139H36V55.5391H33.75V53.3206Z" fill="white"/>
<path d="M14 13L76.5 75.5" stroke="white" stroke-width="2"/>
</svg>
