<svg xmlns:xlink="http://www.w3.org/1999/xlink" width="60" height="61" xmlns="http://www.w3.org/2000/svg" viewBox="0 0 60 61"><switch><g><path d="M27.9 46h4.3v-3.8H36v-4.3h-3.8v-3.8h-4.3v3.8h-3.8v4.3h3.8V46zm-2.6-5v-1.8h3.8v-3.8h1.8v3.8h3.8V41h-3.8v3.8h-1.8V41h-3.8zM51.2 9.6C45.8 4.2 38.3.9 30 .9S14.2 4.2 8.8 9.6 0 22.6 0 30.9s3.4 15.8 8.8 21.2c5.4 5.4 12.9 8.8 21.2 8.8s15.8-3.4 21.2-8.8 8.8-13 8.8-21.2c0-8.3-3.4-15.8-8.8-21.3zm-.4 41.2C45.9 56 37.7 59.6 30 59.6c-7.9 0-15.1-3.2-20.3-8.4C4.5 46 1.2 38.8 1.2 30.9c0-7.7 3-14.7 8-19.9C14.1 6 22.3 2.1 30 2.1c7.9 0 15.1 3.2 20.3 8.4 5.2 5.2 8.4 12.4 8.4 20.3.1 7.8-3 14.8-7.9 20m-5.9-20c0-.1 0-.2-.1-.3-.1-.2-.3-.3-.5-.3h-1.6v-4.4c0-.3-.3-.6-.6-.6h-.9v-.7c0-.3 0-.5-.1-.8v-.1c-.3-1.1-1.3-2-2.5-2.3-.1-2.5-1-4.9-2.4-6.9l-1.6-2.3c-.1-.2-.3-.3-.5-.3s-.4.1-.5.2l-2 2.6c-1.3 1.7-3.3 2.6-5.4 2.6-2.3 0-4.2 1.7-4.5 4h-.2c-.2 0-.8.3-.9.4-.3.2-.2.1-.4.3-.7.7-1.2 1.5-1.2 2.5v.7h-1c-.3 0-.6.3-.6.6v4.4h-1.6c-.3 0-.6.3-.6.6v7.5c0 4.1 1.4 8.1 3.9 11.4.1.2.3.2.5.2h21.1c.2 0 .4-.1.5-.2 1-1.3 1.8-2.7 2.5-4.2 0 0 0-.1.1-.1.3-.8.9-2.8 1.1-3.6.1-.3.1-.7.2-1 0-.1 0-.3.1-.4 0-.3 0-.5.1-.8v-.2-.9l-.4-7.6zm-24.8-6.3c0-.7.4-1.4.9-1.7l.6-.3h6.1c.8 0 .8-1.2 0-1.2h-4.9v-.1c.3-1.5 1.7-2.7 3.3-2.7 2.5 0 4.8-1.2 6.3-3.1l1.5-1.9 1.1 1.6c1.3 1.8 2.1 3.9 2.2 6.1h-1.3c-.8 0-.8 1.2 0 1.2h2c1.1 0 2 .9 2 2v.7H20.2v-.6zm-1.5 3.2v-1.3H41.5v1.3h-8.1c-.8 0-.8 1.2 0 1.2h8.1v1.3H18.6v-1.3h8.1c.1 0 .2 0 .3-.1 0 0 .1 0 .1-.1.1-.1.2-.3.2-.5 0-.4-.3-.6-.6-.6l-8.1.1zm25.1 10.6v1.2c0 .3-.1.7-.1 1-.1.8-.7 3-1 3.8-.6 1.5-1.4 3-2.4 4.3H19.8c-2.2-3-3.5-6.6-3.5-10.3v-6.8H43.6v6.8z" fill="#FFFFFF"></path></g></switch></svg>