<svg xmlns:xlink="http://www.w3.org/1999/xlink" width="60" height="61" version="1.1" xmlns="http://www.w3.org/2000/svg" x="0" y="0" viewBox="0 0 60 61" xml:space="preserve"><switch><g><path d="M44.7 45.2v-.5l-.1-.5c0-.3-.1-.5-.2-.8L35.6 22c-.5-1.2-.8-2.5-.8-3.8v-5.7c0-.7.3-1.3.7-1.8.5-.5.8-1.1.8-1.8V8c0-.3-.3-.6-.6-.6H24.3c-.3 0-.6.3-.6.6v.8c0 .7.3 1.3.8 1.8s.7 1.1.7 1.8v5.7c0 1.3-.3 2.6-.8 3.8l-.6 1.5-.1.3-.1.2-.2.5-.1.2-1.3 3.3-6.4 15.6c-.5 1.2-.4 2.5.4 3.6.7 1.1 1.9 1.7 3.2 1.7h7.6c.4.7.9 1.4 1.5 2 1.5 1.5 3.4 2.3 5.5 2.3 1.5 0 3-.4 4.2-1.3V53c0 .3.3.6.6.6s.6-.3.6-.6c0-.7-.1-1.3-.3-2l.2-.2c.6-.6 1.1-1.3 1.5-2h.3c1.3 0 2.5-.6 3.2-1.7.2-.4.4-.8.5-1.2l.1-.1v-.2-.4zM24.2 25.6v-.1c.1-.4 0 0 .2-.5l.1-.3.1-.3.8-2c.6-1.4.8-2.8.8-4.3v-5.7c0-1-.4-1.9-1.1-2.6-.3-.3-.4-.6-.4-1v-.2h10.2v.2c0 .4-.1.7-.4 1-.7.7-1.1 1.6-1.1 2.6v5.7c0 1.5.3 2.9.8 4.3l2.1 5.1h-8.2-1.7H23.1l1.1-1.9zm14.2 24.2c-.3-.6-.8-1.2-1.3-1.7l-.1-.3v-3.5c0-.3-.3-.6-.6-.6s-.6.3-.6.6v2.3l-2-2v-3.4c0-.3-.3-.6-.6-.6s-.6.3-.6.6v2.1L29 39.8c-.2-.2-.6-.2-.9 0-.2.2-.2.6 0 .9l3.5 3.5h-2.1c-.3 0-.6.3-.6.6s.3.6.6.6h3.4l2 2h-3.8c-.3 0-.6.3-.6.6s.3.6.6.6h5l.2.2c.5.5.9 1.1 1.2 1.7-1.1.8-2.4 1.3-3.8 1.3-1.7 0-3.4-.7-4.6-1.9-1.1-1.1-1.7-2.5-1.9-3.9l-1-8.1 8 1h.1c1.5.1 2.9.8 4 1.9 1.2 1.2 1.9 2.9 1.9 4.6 0 1.6-.6 3.2-1.8 4.4zm1.8-8.7s-.1-.1-.1-.2c-.1-.2-.3-.3-.4-.5l-.1-.1-.2-.2c-.3-.3-.6-.6-.9-.8l-.1-.1-.6-.3c-.1 0-.2-.1-.2-.2 0 0-.1 0-.1-.1-.1 0-.2-.1-.2-.1l-.2-.1c-.8-.4-1.7-.7-2.6-.7l-8.9-1.1c-.2 0-.4 0-.5.2-.1.1-.2.3-.2.5l1.1 8.9c0 .5.1 1 .3 1.4h-7.1c-.9 0-1.7-.4-2.2-1.2-.4-.5-.5-1.2-.4-1.8v-.2h1.5c.3 0 .6-.3.6-.6s-.3-.6-.6-.6H17l1.1-2.7h1.5c.3 0 .6-.3.6-.6s-.3-.6-.6-.6h-1l1.1-2.7h1.6c.3 0 .6-.3.6-.6s-.3-.6-.6-.6h-1.1l1.1-2.7h1.6c.3 0 .6-.3.6-.6s-.3-.6-.6-.6h-1.1l1.1-2.7H37l5.5 13.4.2.5c.3.8.2.7.5 1.5 0 .1.1.3.1.3l.1.4c0 .6-.1 1.1-.4 1.6-.5.7-1.2 1.1-2 1.2.2-.7.3-1.5.3-2.2 0-1.2-.3-2.4-.8-3.4l-.1-.2-.1-.1v-.1c.1-.2-.1-.6-.1-.6" fill="#FFFFFF"></path> <path d="M51.2 9.3C45.8 3.9 38.3.5 30 .5 21.7.5 14.2 3.9 8.8 9.3 3.4 14.7 0 22.2 0 30.5c0 8.3 3.4 15.8 8.8 21.2 5.4 5.4 12.9 8.8 21.2 8.8 8.3 0 15.8-3.4 21.2-8.8 5.4-5.4 8.8-12.9 8.8-21.2 0-8.3-3.4-15.8-8.8-21.2zm-.4 41.1l-.3.3-.4.4-.2.2c-5.2 5-12.2 8-19.9 8-7.9 0-15.1-3.2-20.3-8.4-5.2-5.2-8.4-12.4-8.4-20.3 0-7.7 3-14.7 8-19.9l.2-.2c.3-.5 0-.2.4-.5l.2-.2c5.2-5 12.2-8 19.9-8 7.9 0 15.1 3.2 20.3 8.4 5.2 5.2 8.4 12.4 8.4 20.3.1 7.7-3 14.7-7.9 19.9z" fill="#FFFFFF"></path> <path d="M35.9 41.8c.1-.1.3-.2.4-.2.2 0 .3.1.4.2.1.1.2.3.2.4s-.1.3-.2.4c-.1.1-.3.2-.4.2-.2 0-.3-.1-.4-.2-.1-.1-.2-.3-.2-.4 0-.1.1-.3.2-.4z" fill-rule="evenodd" clip-rule="evenodd" fill="#FFFFFF"></path></g></switch></svg>