<svg xmlns:xlink="http://www.w3.org/1999/xlink" width="60" height="61" version="1.1" xmlns="http://www.w3.org/2000/svg" x="0" y="0" viewBox="0 0 60 61" xml:space="preserve">&gt;
                                    <switch><g><path fill="#FFFFFF" d="M19.6 19.2c.4-1.8 1.3-3.6 2.5-5.1.2-.3.2-.6-.1-.9-.3-.2-.6-.2-.9.1-1.2 1.4-2 3.1-2.5 4.8l-.1.3c-.1.5-.1.2-.2.7l-.1.3c-.2.8-.2 1.7-.2 2.5 0 2.7.8 5.4 2.3 7.7l.1.1c.2.3.5.6.7.9 3.8 4.6 3.8 11.3 0 16-.2.3-.2.6.1.9.1.1.2.1.4.1s.4-.1.5-.2c2-2.5 3.1-5.6 3.1-8.8 0-2.9-.9-5.7-2.5-8l-.1-.1c-.2-.2-.3-.4-.5-.7-2.2-2.7-3.1-6.1-2.7-9.4v-.2c.1-.5 0-.2.1-.8l.1-.2z"></path> <path fill="#FFFFFF" d="M51.2 9.3C45.8 3.9 38.3.5 30 .5 21.7.5 14.2 3.9 8.8 9.3 3.4 14.7 0 22.2 0 30.5c0 8.3 3.4 15.8 8.8 21.2 5.4 5.4 12.9 8.8 21.2 8.8 8.3 0 15.8-3.4 21.2-8.8 5.4-5.4 8.8-12.9 8.8-21.2 0-8.3-3.4-15.8-8.8-21.2zm-.4 41.1l-.2.3c-.2.2-.1 0-.3.3l-.2.2-.2.2c-5.2 5-12.2 8-19.9 8-7.9 0-15.1-3.2-20.3-8.4-5.2-5.2-8.4-12.4-8.4-20.3 0-7.7 3-14.7 8-19.9l.2-.2.4-.4.3-.3c5.2-5 12.2-8 19.9-8 7.9 0 15.1 3.2 20.3 8.4 5.2 5.2 8.4 12.4 8.4 20.3 0 7.6-3.1 14.6-8 19.8z"></path> <path fill="#FFFFFF" d="M28 19.2c.4-1.8 1.3-3.6 2.5-5.1.2-.3.2-.6-.1-.9-.3-.2-.6-.2-.9.1-1.2 1.4-2 3.1-2.5 4.8l-.1.3c-.1.5-.1.2-.2.7l-.1.3c-.2.8-.2 1.7-.2 2.5 0 2.7.8 5.4 2.3 7.7l.1.1c.2.3.5.6.7.9 3.8 4.6 3.8 11.3 0 16-.2.3-.2.6.1.9.1.1.2.1.4.1s.4-.1.5-.2c2-2.5 3.1-5.6 3.1-8.8 0-2.9-.9-5.7-2.5-8l-.1.2c-.2-.2-.3-.4-.5-.7-2.2-2.7-3.1-6.1-2.7-9.4v-.2c.1-.5 0-.2.1-.8l.1-.5zM35.5 19.2c.4-1.8 1.3-3.6 2.5-5.1.2-.3.2-.6-.1-.9-.3-.2-.6-.2-.9.1-1.2 1.4-2 3.1-2.5 4.8l-.1.3c-.1.5-.1.2-.2.7l-.1.3c-.2.8-.2 1.7-.2 2.5 0 2.7.8 5.4 2.3 7.7l.1.1c.2.3.5.6.7.9 3.8 4.6 3.8 11.3 0 16-.2.3-.2.6.1.9.1.1.2.1.4.1s.4-.1.5-.2c2-2.5 3.1-5.6 3.1-8.8 0-2.9-.9-5.7-2.5-8l-.1-.1c-.2-.2-.3-.4-.5-.7-2.2-2.7-3.1-6.1-2.7-9.4v-.2c.1-.5 0-.2.1-.8l.1-.2z"></path></g></switch></svg>