<svg xmlns:xlink="http://www.w3.org/1999/xlink" width="61" height="61" viewBox="0 0 61 61" fill="none" xmlns="http://www.w3.org/2000/svg"><path fill="#FFFFFF" d="M30.5 0.264648C38.7842 0.264648 46.2842 3.62253 51.7131 9.05153C57.1421 14.4804 60.5 21.9805 60.5 30.2646C60.5 38.5488 57.1421 46.0488 51.7131 51.4778C46.2842 56.9067 38.7842 60.2646 30.5 60.2646C22.2158 60.2646 14.7158 56.9068 9.28688 51.4778C3.85792 46.0489 0.5 38.5488 0.5 30.2646C0.5 21.9805 3.85788 14.4804 9.28688 9.05153C14.7158 3.62257 22.2158 0.264648 30.5 0.264648V0.264648ZM42.9262 46.1023C42.2858 45.5169 41.5401 45.056 40.7301 44.7449L40.6243 44.7043L40.6708 44.6009C40.88 44.137 41.0312 43.6478 41.1141 43.1455C41.1527 42.9114 41.1747 42.6748 41.1859 42.4379L41.1907 42.3371L41.2916 42.3358C42.5233 42.3205 43.7562 42.41 44.9751 42.6032C45.0022 42.6081 45.0297 42.6109 45.0572 42.6108C45.3261 42.6103 45.5497 42.4035 45.5718 42.1356C45.5938 41.8692 45.4077 41.6252 45.1428 41.5824C43.848 41.3732 42.535 41.2801 41.2237 41.2975L41.1298 41.2987L41.1163 41.2058C40.9986 40.394 40.7179 39.6132 40.292 38.9123L40.2246 38.8013L40.3462 38.7562C41.8833 38.1855 43.485 37.7976 45.1137 37.6077C45.3965 37.5747 45.6035 37.32 45.572 37.0359C45.5408 36.7533 45.2845 36.5449 45.0009 36.578C43.1633 36.7928 41.3585 37.2443 39.634 37.914L39.5668 37.9401L39.5173 37.8876C39.3773 37.739 39.2356 37.5919 39.0821 37.4572C38.9266 37.3207 38.841 37.1164 38.8501 36.9101C38.9315 35.0655 38.6776 33.2123 38.1016 31.4581L38.0934 31.4333L38.0976 31.4075C38.3318 29.9595 39.0205 28.6228 40.0636 27.5915C40.9913 26.5731 41.7789 25.432 42.3951 24.1996C43.4991 21.9919 44.1715 19.4861 44.3028 17.0197C44.3534 16.0686 44.3268 15.0832 44.1705 14.1424C44.0676 13.524 43.8842 12.7805 43.5511 12.2424L43.5482 12.2377L43.5458 12.2327C43.3601 11.8489 42.9802 11.5966 42.5545 11.5744C42.474 11.5745 42.3934 11.5781 42.3132 11.5856C41.4485 11.667 40.6761 12.245 40.0306 12.7827C39.4407 13.2742 38.8778 13.8121 38.3275 14.3473C37.5228 15.1302 36.7322 15.9292 35.9412 16.726C33.8947 18.7876 32.389 21.3234 31.502 24.0866L31.4817 24.15L31.4159 24.1598C31.1781 24.1954 30.9429 24.2478 30.7126 24.3166L30.5748 24.3577V23.3426C30.5748 23.1631 30.482 22.9963 30.3294 22.9019C30.1771 22.8077 29.9858 22.7982 29.8258 22.8789C29.5764 23.0046 29.3375 23.1506 29.1106 23.3134L28.9965 23.3953L28.9477 23.2636C28.0416 20.8177 26.6382 18.5772 24.7977 16.7261C24.0064 15.9301 23.2155 15.1318 22.4108 14.3494C21.8605 13.8143 21.2977 13.2766 20.708 12.7849C20.0634 12.2473 19.291 11.6678 18.4271 11.5858C18.3464 11.5782 18.2654 11.5745 18.1843 11.5744C17.7587 11.5967 17.3787 11.8488 17.193 12.2327L17.1905 12.2376L17.1876 12.2423C16.8546 12.7805 16.6712 13.524 16.5684 14.1423C16.412 15.0831 16.3855 16.0685 16.4361 17.0195C16.5674 19.4857 17.2396 21.9913 18.343 24.199C18.9596 25.4325 19.7472 26.5749 20.6762 27.5938C21.471 28.397 22.0667 29.3769 22.4136 30.4522L22.4267 30.4925L22.4087 30.5307C22.2932 30.7761 22.1777 31.0206 22.0771 31.2726C21.4492 33.0776 21.1726 34.9963 21.2637 36.9052C21.2736 37.1138 21.1853 37.3186 21.03 37.4576C20.879 37.5927 20.7363 37.7369 20.6005 37.8872L20.551 37.9419L20.4823 37.9151C18.7569 37.2449 16.9512 36.7936 15.1128 36.5779C14.929 36.5564 14.7485 36.6374 14.6392 36.786C14.5296 36.9351 14.5079 37.1313 14.5822 37.3008C14.6568 37.4707 14.8165 37.5861 15.0003 37.6076C16.6274 37.7983 18.2275 38.1861 19.7628 38.7574L19.8843 38.8026L19.8171 38.9133C19.3918 39.6141 19.1115 40.3945 18.9939 41.2057L18.9805 41.2987L18.8865 41.2975C17.5752 41.28 16.2622 41.3731 14.9675 41.5824C14.7019 41.6253 14.5157 41.8702 14.5386 42.137C14.5616 42.4057 14.7868 42.6114 15.0563 42.6107C15.0855 42.6107 15.1147 42.6079 15.1435 42.6033C16.3604 42.4099 17.5936 42.321 18.8256 42.3363L18.9267 42.3376L18.9313 42.4386C18.9419 42.6757 18.9643 42.9124 19.0031 43.1466C19.086 43.6486 19.2365 44.1377 19.4457 44.6013L19.4923 44.7047L19.3864 44.7454C18.5754 45.0569 17.8288 45.5186 17.1899 46.1032C17.0559 46.2326 17.0015 46.4265 17.0487 46.6068C17.0961 46.7878 17.2374 46.9293 17.4185 46.9766C17.5988 47.0238 17.7927 46.9695 17.9222 46.8354L17.9249 46.8326L17.9278 46.8301C18.5129 46.3058 19.1946 45.8987 19.9336 45.6322L20.0097 45.6047L20.0569 45.6704C20.962 46.9295 22.3078 47.8048 23.8282 48.113C24.7136 48.2925 25.6287 48.2713 26.5072 48.0625C26.657 48.0269 26.8148 48.0482 26.9491 48.1192C28.9048 49.1073 31.2137 49.1073 33.1676 48.1202C33.307 48.0464 33.4691 48.0285 33.622 48.065C34.4968 48.2737 35.4118 48.2916 36.2934 48.1124C37.8121 47.8036 39.156 46.928 40.0596 45.6698L40.1069 45.6041L40.183 45.6316C40.922 45.8981 41.6037 46.3052 42.1888 46.8295L42.1918 46.8322C42.395 47.0285 42.718 47.0257 42.9178 46.8259C43.1168 46.6269 43.1203 46.3056 42.9263 46.1022L42.9262 46.1023ZM35.5884 37.101C35.5713 36.8754 35.5713 36.6486 35.5882 36.4264C35.5966 36.2319 35.605 36.0376 35.605 35.8429V35.8386L35.6053 35.8344C35.6621 35.122 36.2225 34.5533 36.934 34.4862L36.939 34.4857H36.944C37.5668 34.4857 37.6643 35.3827 37.6643 35.8428C37.6643 36.5349 36.2986 37.2117 35.6931 37.2L35.5957 37.1982L35.5884 37.101ZM37.2919 29.7065C36.8175 28.8371 36.1722 28.0707 35.3962 27.4553L35.314 27.3901L35.3774 27.3066C36.8611 25.3522 38.1664 23.2645 39.2703 21.073C39.9952 19.6338 40.6296 18.1496 41.1718 16.6349C41.261 16.3654 41.1165 16.0743 40.8479 15.9823C40.5788 15.8901 40.2876 16.0327 40.1918 16.2998C39.6635 17.7723 39.047 19.2129 38.3434 20.61C37.2508 22.7798 35.9549 24.8444 34.4822 26.7763L34.4289 26.8462L34.3499 26.8076C33.8415 26.5587 33.3054 26.3681 32.754 26.2401L32.6501 26.216L32.6737 26.1121C32.7769 25.6572 32.9001 25.1972 33.0485 24.7548C33.0929 24.6225 33.0822 24.4778 33.0177 24.3539C32.9532 24.2302 32.8409 24.1382 32.707 24.0992L32.5986 24.0677L32.6358 23.961C33.4864 21.5249 34.8531 19.2915 36.6729 17.4588C37.4033 16.7234 38.1336 15.9867 38.8745 15.2617C39.3912 14.7561 39.9163 14.2495 40.463 13.7763C40.9708 13.3368 41.7848 12.6518 42.4884 12.6103L42.5326 12.6077L42.5656 12.6369C42.8342 12.8741 43.0053 13.573 43.0752 13.9099C43.2443 14.7263 43.2958 15.6035 43.2831 16.4355C43.2446 18.9497 42.5956 21.4886 41.4718 23.7343C40.8922 24.8925 40.149 25.9633 39.2743 26.9219C38.5047 27.7214 37.8966 28.6641 37.4854 29.6949L37.4009 29.9065L37.2919 29.7065H37.2919ZM18.2534 12.6103C18.9556 12.6505 19.7699 13.3354 20.2765 13.7737C20.8231 14.2465 21.3481 14.7528 21.8647 15.258C22.6056 15.9826 23.3358 16.7191 24.066 17.4544C25.9252 19.3265 27.3087 21.6174 28.1541 24.1139L28.173 24.1697L28.136 24.2156C27.6581 24.807 27.3219 25.501 27.154 26.2426L27.1398 26.3052L27.078 26.3222C26.7919 26.4013 26.5104 26.497 26.2355 26.6088L26.1593 26.6398L26.1097 26.5742C24.6929 24.7029 23.4478 22.704 22.3949 20.6062C21.6933 19.2084 21.0755 17.7688 20.5472 16.2967C20.4514 16.0296 20.1602 15.8871 19.8911 15.9792C19.6225 16.0712 19.478 16.3623 19.5664 16.6294C20.1094 18.1463 20.7441 19.6301 21.4682 21.0694C22.5197 23.1596 23.756 25.1551 25.1577 27.0285L25.2256 27.1193L25.1311 27.1819C24.3614 27.6925 23.702 28.3547 23.1946 29.1265L23.0936 29.2801L23.0097 29.1166C22.5998 28.318 22.0746 27.5843 21.4668 26.9246C20.5887 25.9718 19.8533 24.8945 19.2734 23.7362C18.1492 21.4904 17.4992 18.9514 17.46 16.4369C17.4471 15.6048 17.4983 14.7275 17.6672 13.911C17.737 13.5737 17.9079 12.8749 18.1763 12.6371L18.2093 12.6078L18.2534 12.6103V12.6103ZM37.4725 41.5829C37.1983 41.6375 37.0168 41.9001 37.0628 42.176C37.1089 42.4527 37.3672 42.6423 37.6449 42.6038L37.6523 42.6028L37.6501 42.6033C37.8798 42.5774 38.1112 42.5394 38.3424 42.5129C38.9027 42.4484 39.4659 42.4023 40.0292 42.3729L40.1505 42.3666L40.1416 42.4879C40.1294 42.652 40.1195 42.8157 40.0916 42.9781C40.0156 43.4208 39.8768 43.851 39.6833 44.2562L39.6431 44.3402L39.5543 44.3122C38.3118 43.9204 37.0369 43.6336 35.7498 43.4559C35.4706 43.4268 35.2171 43.6281 35.1821 43.9065C35.1472 44.1854 35.3414 44.4435 35.6203 44.4833C36.7347 44.6424 37.8378 44.8787 38.9184 45.194L39.0752 45.2398L38.9709 45.3653C38.2346 46.2517 37.2201 46.8668 36.0905 47.0988C35.3588 47.249 34.5958 47.2365 33.8695 47.0617C33.4716 46.966 33.0498 47.0125 32.6842 47.2056C31.0281 48.0184 29.0889 48.0184 27.4298 47.2041C27.0698 47.0129 26.6507 46.9642 26.2551 47.0592C25.5256 47.2346 24.7619 47.2498 24.0266 47.0993C22.8957 46.8679 21.88 46.2522 21.1425 45.3654L21.0381 45.2398L21.1949 45.194C22.2755 44.8787 23.3786 44.6423 24.493 44.4833C24.7719 44.4435 24.9662 44.1853 24.9312 43.9065C24.8962 43.6281 24.6426 43.4268 24.3671 43.4555C23.0764 43.6335 21.8015 43.9204 20.5589 44.3122L20.4701 44.3402L20.43 44.2562C20.2365 43.851 20.0984 43.4207 20.0223 42.9781C19.9943 42.8154 19.9838 42.6513 19.9723 42.4868L19.9638 42.366L20.0847 42.3723C20.8832 42.414 21.6783 42.4872 22.469 42.6032C22.7467 42.642 23.0049 42.4519 23.0511 42.1754C23.0971 41.8994 22.9157 41.637 22.6415 41.5824C21.8126 41.4562 20.9773 41.3732 20.1398 41.3338L20.0186 41.3281L20.0392 41.2086C20.1587 40.5143 20.4216 39.8514 20.8105 39.2638L20.8594 39.1899L20.9411 39.2241C22.2729 39.7806 23.5505 40.4636 24.7529 41.2619L24.7559 41.264C24.9888 41.4301 25.3123 41.376 25.4784 41.1433C25.6445 40.9105 25.5905 40.587 25.36 40.4224C24.2139 39.647 22.9972 38.9782 21.7284 38.4262L21.5842 38.3635L21.704 38.2436L21.7066 38.2413C21.9299 38.0446 22.0971 37.7918 22.1908 37.5093L22.2383 37.366L22.3579 37.4581C22.951 37.9151 23.6667 38.1898 24.4147 38.2361C24.7235 38.2551 25.0268 38.1362 25.2473 37.921C25.5553 37.4794 25.6702 36.9246 25.5626 36.3969L25.5609 36.3886L25.5606 36.3802C25.5526 36.202 25.5449 36.0239 25.5448 35.8454C25.484 34.5555 24.4571 33.5208 23.1678 33.45C23.0051 33.4522 22.8436 33.4791 22.6889 33.5297L22.5191 33.5853L22.5501 33.4092C22.6556 32.8119 22.8144 32.2238 23.0379 31.6596C23.811 29.7081 24.8578 28.1674 26.8965 27.4523L27.0391 27.4023V28.3427C27.0391 28.6288 27.271 28.8606 27.5571 28.8606C27.8431 28.8606 28.075 28.6288 28.075 28.3427V27.0893L28.0752 27.086C28.1397 26.0672 28.6012 25.1141 29.3605 24.4318L29.5392 24.2712V25.2159C29.5426 25.4187 29.664 25.6009 29.85 25.682C30.0386 25.7643 30.259 25.7305 30.4144 25.5956L30.42 25.5906L30.4263 25.5866C30.8073 25.3395 31.2459 25.1947 31.6992 25.1664L31.8477 25.1571L31.8094 25.3009C31.5824 26.1522 31.2619 27.6182 31.5051 28.467C31.5561 28.6448 31.6979 28.7822 31.8774 28.8271C32.0566 28.8719 32.247 28.8174 32.3754 28.6846C32.5038 28.5519 32.5518 28.3597 32.501 28.1822L32.4999 28.1784L32.4991 28.1745C32.4442 27.9104 32.4335 27.6385 32.4677 27.371L32.483 27.2511L32.6001 27.2807C34.9784 27.8808 36.1944 29.4404 37.078 31.6626C37.3021 32.2262 37.4599 32.8143 37.5658 33.411L37.5972 33.5878L37.4267 33.5314C37.2716 33.4802 37.1095 33.4527 36.9461 33.45C35.6569 33.5209 34.6301 34.5555 34.5692 35.8454C34.5692 36.024 34.5615 36.2019 34.5535 36.3802L34.5532 36.3886L34.5515 36.3969C34.4439 36.9246 34.5587 37.4794 34.8667 37.921C35.0873 38.1362 35.3906 38.2551 35.6993 38.2361C36.4471 38.1899 37.1624 37.9156 37.7557 37.4593L37.8749 37.3676L37.9226 37.5103C38.0166 37.7917 38.1832 38.0436 38.4052 38.2404L38.4075 38.2425L38.5302 38.3647L38.3856 38.4275C37.1167 38.979 35.8999 39.6476 34.7563 40.4216C34.5235 40.5877 34.4694 40.9112 34.6356 41.144C34.8017 41.3768 35.1252 41.4309 35.3609 41.2628C36.5624 40.463 37.8397 39.7796 39.1716 39.2236L39.2533 39.1896L39.3021 39.2633C39.6918 39.851 39.9551 40.5144 40.0747 41.2094L40.0952 41.3289L39.9741 41.3345C39.1366 41.3738 38.3013 41.4568 37.4724 41.583L37.4725 41.5829ZM22.4497 35.8428C22.4497 35.3827 22.5471 34.4857 23.1699 34.4857H23.175L23.18 34.4861C23.8914 34.5533 24.4519 35.122 24.5087 35.8343L24.509 35.8386V35.8428C24.509 36.0376 24.5172 36.2319 24.5256 36.4229C24.5427 36.6486 24.5427 36.8754 24.5256 37.1011L24.5182 37.1978L24.4212 37.2001C23.8099 37.214 22.4497 36.5402 22.4497 35.8429V35.8428ZM31.5901 44.1713C31.474 44.2089 31.3525 44.2292 31.2286 44.2314C30.9579 44.2308 30.7103 44.079 30.5867 43.8382L30.5749 43.8151V42.5565L30.6495 42.5327C31.4014 42.2935 32.0299 41.7691 32.3989 41.0741C32.5276 40.8185 32.4248 40.507 32.1692 40.3783C31.9128 40.2492 31.6034 40.3543 31.473 40.6087C31.1974 41.1461 30.6684 41.5069 30.069 41.5744L30.0569 41.5758L30.0448 41.5744C29.4466 41.5058 28.9191 41.1451 28.6442 40.6086C28.5138 40.3542 28.2044 40.2491 27.948 40.3783C27.6924 40.507 27.5896 40.8185 27.7173 41.0721C28.0866 41.7685 28.7138 42.2928 29.4647 42.5327L29.5392 42.5566V43.8235L29.5237 43.8492C29.2925 44.23 28.7929 44.3546 28.4101 44.1278C28.1548 44.0025 27.8458 44.1066 27.7185 44.3614C27.5902 44.6184 27.6968 44.9271 27.9513 45.057C28.6088 45.3926 29.4026 45.3279 29.9925 44.8825L30.0593 44.8321L30.1243 44.8846C30.441 45.1399 30.8374 45.2737 31.2437 45.2702C31.5624 45.2675 31.8783 45.1989 32.1649 45.0581C32.331 44.9764 32.4388 44.8104 32.4499 44.6261C32.461 44.4421 32.3722 44.2642 32.2184 44.1626C32.0646 44.061 31.8661 44.049 31.7012 44.1313L31.595 44.1843L31.59 44.1712L31.5901 44.1713ZM50.8421 9.92248C45.6362 4.71654 38.4442 1.49657 30.5 1.49657C22.5559 1.49657 15.3638 4.71654 10.1579 9.92248C4.95197 15.1284 1.732 22.3205 1.732 30.2646C1.732 38.2087 4.95197 45.4008 10.1579 50.6067C15.3638 55.8126 22.5559 59.0326 30.5 59.0326C38.4442 59.0326 45.6362 55.8126 50.8421 50.6067C56.0481 45.4008 59.268 38.2087 59.268 30.2646C59.268 22.3205 56.0481 15.1284 50.8421 9.92248Z"></path></svg>