<svg xmlns:xlink="http://www.w3.org/1999/xlink" width="60" height="61" version="1.1" xmlns="http://www.w3.org/2000/svg" x="0" y="0" viewBox="0 0 60 61" xml:space="preserve"><switch><g><path fill="#FFFFFF" d="M27 28.9h-2.8V36c0 .1 0 .1.1.2 0 .1.1.1.2.1h.7c.1 0 .1 0 .2-.1.1 0 .1-.1.1-.2v-1.7c0-.1 0-.2-.1-.3-.1-.1-.2-.2-.3-.2h2c.3 0 .5-.1.7-.3.2-.2.3-.4.3-.7v-2.9c0-.3-.1-.5-.3-.7-.4-.2-.6-.3-.8-.3zm-.3 3.2c0 .1 0 .2-.1.3-.1.1-.2.1-.3.2h-.8v-2.5h.8c.1 0 .2.1.3.2.1.1.1.2.1.3v1.5zM31.1 30.9v-.3c0-.1-.1-.2-.1-.3-.1-.1-.2-.1-.3-.1h1.4c.1 0 .1 0 .2-.1 0 0 .1-.1.1-.2v-.7c0-.1 0-.1-.1-.2 0 0-.1-.1-.2-.1h-3c-.2 0-.6-.1-.6.2v.7c0 .1 0 .1.1.2 0 .1.1.1.2.1h1c.3.1.2.5.2.8V36c0 .1 0 .1.1.2 0 .1.1.1.2.1h.7c.1 0 .1 0 .2-.1 0 0 .1-.1.1-.2v-3.7l-.2-1.4M33.1 32.6V36c0 .1 0 .1.1.2 0 .1.1.1.2.1h.7c.1 0 .1 0 .2-.1.1 0 .1-.1.1-.2v-.7-.2-.4-.4c0-.3.1-.6.5-.6H35.2c.4 0 .4.2.5.4V36s0 .1.1.2H36.8c.1-.1 0-.1 0-.2v-6.9c0-.1 0-.1-.1-.2 0-.1-.1-.1-.2-.1h-.7c-.1 0-.1 0-.2.1 0 0-.1.1-.1.2v3.2c0 .1 0 .1-.1.2-.1 0-.1.1-.2.1h-.7c-.1 0-.1 0-.2-.1 0-.1-.1-.1-.1-.2v-3.2c0-.1 0-.1-.1-.2 0-.1-.1-.1-.2-.1h-.7c-.1 0-.1 0-.2.1-.1 0-.1.1-.1.2v3.5"></path> <path fill="#FFFFFF" d="M51.6 9.4C46.2 4 38.7.6 30.4.6 22.1.6 14.6 4 9.2 9.4 3.8 14.8.4 22.3.4 30.6c0 8.3 3.4 15.8 8.8 21.2 5.4 5.4 12.9 8.8 21.2 8.8 8.3 0 15.8-3.4 21.2-8.8 5.4-5.4 8.8-12.9 8.8-21.2 0-8.2-3.4-15.7-8.8-21.2zm-.4 41.2l-.2.1-.5.5-.2.2c-5.2 5-12.2 8-19.9 8-7.9 0-15.1-3.2-20.3-8.4-5.2-5.2-8.4-12.4-8.4-20.3 0-7.7 3-14.7 8-19.9l.2-.2c.3-.3.1-.1.4-.5l.2-.2c5.2-5 12.2-8 19.9-8 7.9 0 15.1 3.2 20.3 8.4 5.2 5.2 8.4 12.4 8.4 20.3.1 7.8-3 14.8-7.9 20z"></path> <path fill="#FFFFFF" d="M42.1 41.9V25c0-1-.6-1.9-1.6-2.2-.4-.1-.7-.6-.7-1v-.5h1.7c.3 0 .6-.3.6-.6v-3.1c0-1.2-1-2.1-2.1-2.1H20.8c-1.2 0-2.1 1-2.1 2.1V20.7c0 .3.3.6.6.6h1.6v.6c-.1.4-.3.7-.7.8-.9.3-1.6 1.2-1.6 2.2v18.6c0 1.1.7 1.9 1.8 2.1H40c1.2 0 2.1-1 2.1-2.1v-.7c.1-.1.1-.6 0-.9zM19.9 20.1v-2.5c0-.5.4-.9.9-.9H40c.5 0 .9.4.9.9v2.5h-21m21 21.6v2c0 .5-.4.9-.9.9H20.8c-.5 0-.9-.4-.9-.9V25c.2-.6.5-.9.7-1 .2-.1.2-.1.5-.2.4-.3.7-.7.8-.8.1-.1.1-.3.2-.3 0 0 0-.1.1-.2.1-.2.1-.5.1-.6v-.5h16.5v.5c0 1 .6 1.9 1.6 2.2.4.1.7.6.7 1v15.3l-.2 1.3z"></path> <path fill="#FFFFFF" d="M36.5 37.8V39h2.1c.3 0 .6-.3.6-.6v-2.1H38v1.5h-1.5zM22.9 36.3h-1.2v2.1c0 .3.3.6.6.6h2.1v-1.2h-1.5v-1.5z"></path></g></switch></svg>