<svg xmlns:xlink="http://www.w3.org/1999/xlink" width="60" height="61" xmlns="http://www.w3.org/2000/svg" viewBox="0 0 60 61"><switch><g><path fill="none" d="M50.3 10.2C45.1 5 37.9 1.7 30 1.7c-7.7 0-15.9 3.6-20.8 8.9-5 5.2-8 12.2-8 19.9 0 7.9 3.2 15.1 8.4 20.3 5.2 5.2 12.4 8.4 20.3 8.4 7.7 0 14.7-3 19.9-7.9.7-.6.6-.6 1-1 4.9-5.2 7.9-12.1 7.9-19.8.1-7.9-3.2-15.1-8.4-20.3zM34.1 28.6c.7 0 1.2.5 1.2 1.2s-.6 1.2-1.2 1.2-1.2-.5-1.2-1.2c0-.6.5-1.2 1.2-1.2zm-.8-10c0-.4.3-.7.7-.7.4 0 .7.3.7.7s-.3.7-.7.7c-.4.1-.7-.3-.7-.7zm.2-7.9c.8 0 1.5.7 1.5 1.5s-.7 1.5-1.5 1.5S32 13 32 12.2s.6-1.5 1.5-1.5zm-2.4 7.6c.7 0 1.2.5 1.2 1.2s-.5 1.2-1.2 1.2-1.2-.5-1.2-1.2.6-1.2 1.2-1.2zm-2.5 5.9c.4 0 .7.3.7.7 0 .4-.3.7-.7.7-.4 0-.7-.3-.7-.7-.1-.4.3-.7.7-.7zm-.8 14c.4 0 .7.3.7.7 0 .4-.3.7-.7.7s-.7-.3-.7-.7c0-.4.3-.7.7-.7zm-18-6.7c-.4 0-.7-.3-.7-.7-.1-.4.3-.8.7-.8s.7.3.7.7c0 .5-.3.8-.7.8zm.7-11.4c0-.4.3-.7.7-.7s.7.3.7.7-.3.7-.7.7-.7-.3-.7-.7zm2.7 15.5c-.8 0-1.5-.7-1.5-1.5s.7-1.5 1.5-1.5 1.5.7 1.5 1.5c.1.8-.6 1.5-1.5 1.5zm4.4-.9c-.4 0-.7-.3-.7-.7 0-.4.3-.7.7-.7s.7.3.7.7c0 .3-.3.7-.7.7zm1.2-2.4c-.7 0-1.2-.5-1.2-1.2s.5-1.2 1.2-1.2 1.2.5 1.2 1.2-.6 1.2-1.2 1.2zm2.4 11.2c-.4 0-.7-.3-.7-.7 0-.4.3-.7.7-.7s.7.3.7.7c.1.3-.3.7-.7.7zM24 23.9c-.8 0-1.5-.7-1.5-1.5s.7-1.5 1.5-1.5 1.5.7 1.5 1.5c.1.8-.6 1.5-1.5 1.5zM29.1 49c-1.4 0-2.6-1.2-2.6-2.6 0-1.5 1.2-2.6 2.6-2.6 1.4 0 2.6 1.2 2.6 2.6S30.5 49 29.1 49zm3.2-8.9c-.7 0-1.2-.5-1.2-1.2s.5-1.2 1.2-1.2 1.2.5 1.2 1.2-.5 1.2-1.2 1.2zm2.5 4.3c-.4 0-.7-.3-.7-.7 0-.4.3-.7.7-.7s.7.3.7.7-.3.7-.7.7zM36.3 29c-.4 0-.7-.3-.7-.7 0-.4.3-.7.7-.7s.7.3.7.7-.3.7-.7.7zm1.5 6.1c-.4 0-.7-.3-.7-.7 0-.4.3-.7.7-.7s.7.3.7.7c0 .3-.3.7-.7.7zm2.9-.4c-.4 0-.7-.3-.7-.7 0-.4.3-.7.7-.7s.7.3.7.7-.3.7-.7.7zm.1-10.9c-.4 0-.7-.3-.7-.7 0-.4.3-.7.7-.7s.7.3.7.7c0 .3-.3.7-.7.7zm3 9.7c-.8 0-1.5-.7-1.5-1.5s.7-1.5 1.5-1.5 1.5.7 1.5 1.5-.7 1.5-1.5 1.5zm2.8 8c-.4 0-.7-.3-.7-.7 0-.4.3-.7.7-.7s.7.3.7.7c.1.4-.3.7-.7.7zm2.8-12.9c-.7 0-1.2-.5-1.2-1.2s.5-1.2 1.2-1.2 1.2.5 1.2 1.2-.6 1.2-1.2 1.2z"></path> <path fill="#FFFFFF" d="M51.2 9.3C45.8 3.9 38.3.5 30 .5 21.7.5 14.2 3.9 8.8 9.3 3.4 14.7 0 22.2 0 30.5c0 8.3 3.4 15.8 8.8 21.2s12.9 8.8 21.2 8.8c8.3 0 15.8-3.4 21.2-8.8 5.4-5.4 8.8-12.9 8.8-21.2 0-8.3-3.4-15.8-8.8-21.2zm-.4 41c-.4.4-.3.4-1 1-5.2 4.9-12.2 7.9-19.9 7.9-7.9 0-15.1-3.2-20.3-8.4-5.2-5.2-8.4-12.4-8.4-20.3 0-7.7 3-14.7 8-19.9C14.1 5.3 22.3 1.7 30 1.7c7.9 0 15.1 3.2 20.3 8.4 5.2 5.2 8.4 12.4 8.4 20.3.1 7.8-3 14.8-7.9 19.9z"></path> <path fill="#FFFFFF" d="M29.1 43.7c-1.4 0-2.6 1.2-2.6 2.6 0 1.4 1.2 2.6 2.6 2.6s2.6-1.2 2.6-2.6-1.2-2.6-2.6-2.6zM34.8 43c-.4 0-.7.3-.7.7 0 .4.3.7.7.7s.7-.3.7-.7-.3-.7-.7-.7zM21.2 42c-.4 0-.7.3-.7.7 0 .4.3.7.7.7.4 0 .7-.3.7-.7.1-.4-.3-.7-.7-.7zM27.8 39.7c.4 0 .7-.3.7-.7 0-.4-.3-.7-.7-.7s-.7.3-.7.7c0 .3.3.7.7.7zM32.3 37.7c-.7 0-1.2.5-1.2 1.2s.5 1.2 1.2 1.2 1.2-.5 1.2-1.2-.5-1.2-1.2-1.2z"></path> <circle fill="#FFFFFF" cx="18.8" cy="31.1" r="1.2"></circle> <path fill="#FFFFFF" d="M9.8 30c-.4 0-.8.4-.8.8s.3.7.7.7.7-.3.7-.7c.1-.4-.2-.8-.6-.8zM13.2 32.5c-.8 0-1.5.7-1.5 1.5s.7 1.5 1.5 1.5 1.5-.7 1.5-1.5c.1-.8-.6-1.5-1.5-1.5zM17.6 33.2c-.4 0-.7.3-.7.7 0 .4.3.7.7.7s.7-.3.7-.7c0-.4-.3-.7-.7-.7zM12 20.1c0-.4-.3-.7-.7-.7s-.7.3-.7.7c0 .4.3.7.7.7s.7-.3.7-.7zM24 20.9c-.8 0-1.5.7-1.5 1.5s.7 1.5 1.5 1.5 1.5-.7 1.5-1.5c.1-.8-.6-1.5-1.5-1.5zM33.5 13.8c.8 0 1.5-.7 1.5-1.5s-.7-1.5-1.5-1.5-1.5.6-1.5 1.5c0 .8.6 1.5 1.5 1.5z"></path> <circle fill="#FFFFFF" cx="31.1" cy="19.5" r="1.2"></circle> <path fill="#FFFFFF" d="M34.8 18.6c0-.4-.3-.7-.7-.7-.4 0-.7.3-.7.7 0 .4.3.7.7.7.3.1.7-.3.7-.7zM28.6 25.7c.4 0 .7-.3.7-.7 0-.4-.3-.7-.7-.7s-.7.3-.7.7c-.1.4.3.7.7.7z"></path> <circle fill="#FFFFFF" cx="34.1" cy="29.8" r="1.2"></circle> <path fill="#FFFFFF" d="M36.3 27.5c-.4 0-.7.3-.7.7 0 .4.3.7.7.7s.7-.3.7-.7-.3-.7-.7-.7zM40.8 22.3c-.4 0-.7.3-.7.7 0 .4.3.7.7.7s.7-.3.7-.7c0-.4-.3-.7-.7-.7zM43.8 30.5c-.8 0-1.5.7-1.5 1.5s.7 1.5 1.5 1.5 1.5-.7 1.5-1.5c0-.9-.7-1.5-1.5-1.5z"></path> <circle fill="#FFFFFF" cx="40.7" cy="34" r=".7"></circle> <path fill="#FFFFFF" d="M37.8 33.6c-.4 0-.7.3-.7.7 0 .4.3.7.7.7.4 0 .7-.3.7-.7 0-.4-.3-.7-.7-.7zM49.4 26.3c-.7 0-1.2.5-1.2 1.2s.5 1.2 1.2 1.2 1.2-.5 1.2-1.2-.6-1.2-1.2-1.2zM46.6 40c-.4 0-.7.3-.7.7 0 .4.3.7.7.7s.7-.3.7-.7c.1-.3-.3-.7-.7-.7z"></path></g></switch></svg>