<svg xmlns:xlink="http://www.w3.org/1999/xlink" width="60" height="61" version="1.1" xmlns="http://www.w3.org/2000/svg" x="0" y="0" viewBox="0 0 60 61" xml:space="preserve"><switch><g><path fill="#FFFFFF" d="M51.2 9.3C45.8 3.9 38.3.5 30 .5 21.7.5 14.2 3.9 8.8 9.3 3.4 14.7 0 22.2 0 30.5c0 8.3 3.4 15.8 8.8 21.2 5.4 5.4 12.9 8.8 21.2 8.8 8.3 0 15.8-3.4 21.2-8.8 5.4-5.4 8.8-12.9 8.8-21.2 0-8.3-3.4-15.8-8.8-21.2zm-.4 41.1l-.3.3c-.2.2-.2.2-.3.2l-.3.3-.1.1c-5.2 5-12.2 8-19.9 8-7.9 0-15.1-3.2-20.3-8.4-5.2-5.2-8.4-12.4-8.4-20.3 0-7.7 3-14.7 8-19.9l.3-.3.3-.4.3-.2c5.2-5 12.2-8 19.9-8 7.9 0 15.1 3.2 20.3 8.4 5.2 5.2 8.4 12.4 8.4 20.3.1 7.7-3 14.7-7.9 19.9z"></path> <path fill="#FFFFFF" d="M43.6 34.6c0-3.1-1.1-6.1-3-8.6l-1.8-2.3c-.2-.3-.6-.3-.9-.1-.3.2-.3.6-.1.9l1.8 2.3c1.8 2.2 2.8 5 2.8 7.8 0 2.1-.5 4.2-1.5 5.9l-.2.3c-.2.2 0 0-.1.2-.2.3-.1.1-.2.3l-.2.3C38 44.8 34.2 47 30 47c-6.8 0-12.4-5.5-12.4-12.4 0-2.9 1-5.7 2.8-7.9v-.1l2.1-2.6.3-.4c.2-.3.1-.2.4-.5l.1-.1 6.7-8.5 2.7 3.5c.2.3.6.3.9.1.3-.2.3-.6.1-.9L30.5 13c-.1-.2-.3-.2-.5-.2s-.4.1-.5.2l-7.1 9-.3.3c-.3.4-.1.1-.4.5l-.1.2-2.2 2.8c-2 2.4-3 5.5-3 8.6C16.4 41.9 22.5 48 30 48c4.6 0 8.6-2.3 11.1-5.7l.1-.2c.3-.4 0 0 .3-.5l.3-.4c1.1-1.8 1.8-4.2 1.8-6.6z"></path> <path fill="#FFFFFF" d="M36.1 21.5c.2 0 .3-.1.4-.2s.2-.3.2-.4c0-.2-.1-.3-.2-.4-.1-.1-.3-.2-.4-.2-.2 0-.3.1-.4.2-.1.1-.2.3-.2.4 0 .2.1.3.2.4 0 .1.2.2.4.2z"></path></g></switch></svg>