<svg xmlns:xlink="http://www.w3.org/1999/xlink" width="60" height="61" version="1.1" xmlns="http://www.w3.org/2000/svg" x="0" y="0" viewBox="0 0 60 61" xml:space="preserve"><switch><g><path fill="#FFFFFF" d="M31.1 54.3c1.2.1 2.5-.3 3.4-1.1s1.5-1.9 1.6-3.2c.1-1.2-.3-2.4-1.1-3.4-.8-.9-1.9-1.5-3.2-1.6-1.2-.1-2.5.3-3.4 1.1-.9.8-1.5 1.9-1.6 3.2-.1 1.2.3 2.4 1.1 3.4s2 1.5 3.2 1.6zm-1.8-7.2c.7-.6 1.6-.9 2.5-.8.9.1 1.7.5 2.3 1.2.6.7.9 1.6.8 2.5-.1.9-.5 1.7-1.2 2.3-.7.6-1.6.9-2.5.8-.9-.1-1.7-.5-2.3-1.2s-.9-1.6-.8-2.5c0-.9.5-1.7 1.2-2.3z"></path> <path fill="#FFFFFF" d="M51.2 9.7C45.8 4.3 38.3.9 30 .9 21.7.9 14.2 4.3 8.8 9.7 3.4 15.2 0 22.7 0 30.9c0 8.3 3.4 15.8 8.8 21.2 5.4 5.4 12.9 8.8 21.2 8.8 8.3 0 15.8-3.4 21.2-8.8 5.4-5.4 8.8-12.9 8.8-21.2 0-8.2-3.4-15.7-8.8-21.2zm-.4 41.1l-.3.3-.4.4-.2.2c-5.2 5-12.2 8-19.9 8-7.9 0-15.1-3.2-20.3-8.4C4.5 46.1 1.3 38.9 1.3 31c0-7.7 3-14.7 8-19.9l.3-.3c.3-.3.1-.1.4-.5l.1-.1c5.2-5 12.2-8 19.9-8 7.9 0 15.1 3.2 20.3 8.4 5.2 5.2 8.4 12.4 8.4 20.3.1 7.8-3 14.8-7.9 19.9z"></path> <path fill="#FFFFFF" d="M49.5 29c-1.2-.9-2.9-.9-4.1.1-.2.1-.3.3-.5.5-.2.3-.4.6-.5.9v.1l-3.4-.5V30c0-.9-.1-1.8-.4-2.7-.3-.9-.8-1.7-1.4-2.5-.6-.7-1.3-1.3-2.2-1.8v-.1l1-6.5h.2c1.3.2 2.6-.2 3.6-1 .9-.8 1.5-1.9 1.6-3.1.1-1.2-.3-2.4-1.1-3.3-.8-.9-1.9-1.5-3.1-1.6-1.2-.1-2.4.3-3.3 1.1-.9.8-1.5 1.9-1.6 3.1-.1 1.2.3 2.4 1.1 3.3.4.4.8.8 1.3 1l.1.1v.2l-1 6.3-.2-.1c-2.5-.7-5.1-.2-7.1 1.5-.9.7-1.6 1.7-2 2.7l-.1.3c-.2.4-.1.2-.2.6l-.1.4c0 .1 0 .2-.1.3v.1l-1.6-.1H24l-3.3-.3v-.1c0-1.4-.5-2.7-1.4-3.8-1-1.2-2.4-1.9-3.9-2-1.5-.1-3 .4-4.2 1.3-1.2 1-1.9 2.4-2 3.9-.1 1.5.4 3 1.3 4.2 1 1.2 2.4 1.9 3.9 2 1.5.1 3-.4 4.2-1.3.9-.7 1.5-1.7 1.8-2.8v-.1l5.3.5v.1c0 1.8.7 3.5 1.8 4.8 1 1.2 2.4 2 3.9 2.4h.1l-.2 2c0 .3.2.6.6.7.3 0 .6-.2.7-.6l.2-1.9h.1c.7 0 1.4 0 2.1-.2l.3-.1c.4-.1-.2 0 .5-.1.2-.1.3-.1.3-.1l.2-.1c.7-.3 1.3-.7 1.9-1.2 1.2-1 2.1-2.4 2.5-4v-.1l3.4.5v.2c.1.9.5 1.6 1.2 2.1 1.4 1.1 3.4.8 4.5-.6.5-.7.8-1.5.6-2.4.2-.8-.2-1.6-.9-2.1zm-31.6 2.1c-.9.8-2.1 1.2-3.3 1.1-1.2-.1-2.3-.7-3.1-1.6-.8-.9-1.2-2.1-1.1-3.3.1-1.2.7-2.3 1.6-3.1.9-.8 2.1-1.2 3.3-1.1 1.2.1 2.3.7 3.1 1.6.8.9 1.2 2.1 1.1 3.3-.1 1.2-.7 2.3-1.6 3.1zm18.4-17c-.6-.7-.8-1.5-.8-2.4.1-.9.5-1.7 1.1-2.2.7-.6 1.5-.8 2.4-.8.9.1 1.7.5 2.2 1.1.6.7.8 1.5.8 2.4-.1.9-.5 1.7-1.1 2.2-.7.6-1.5.8-2.4.8-.8 0-1.6-.4-2.2-1.1zm3.5 16.1c-.1 1.7-.9 3.2-2.2 4.3-.6.5-1.3.9-2 1.2l-.3.1c-.5.2-.1 0-.4.1-.1 0-.3 0-.4.1H33c-1.7-.1-3.2-.9-4.3-2.2-1.1-1.3-1.6-2.9-1.5-4.6v-.4c.1-.5 0-.1.1-.7l.2-.6c.4-1 1-2 1.9-2.7 1.3-1.1 2.9-1.6 4.6-1.5 1.7.1 3.2.9 4.3 2.2 1.1 1.3 1.6 3 1.5 4.7zm9.3 2.6c-.7.9-1.9 1-2.8.4-.4-.3-.7-.8-.8-1.3-.1-.5.1-1.1.4-1.5.7-.9 1.9-1 2.8-.4.4.3.7.8.8 1.3 0 .5-.1 1.1-.4 1.5z"></path></g></switch></svg>