<svg width="90" height="90" viewBox="0 0 90 90" fill="none" xmlns="http://www.w3.org/2000/svg">
<path d="M29.4 28.5059C30 25.8444 31.35 23.1828 33.15 20.9649C33.45 20.5213 33.45 20.0777 33 19.6341C32.55 19.3384 32.1 19.3384 31.65 19.7819C29.85 21.852 28.65 24.3657 27.9 26.8794L27.75 27.323C27.6 28.0623 27.6 27.6187 27.45 28.358L27.3 28.8016C27 29.9845 27 31.3153 27 32.4982C27 36.4905 28.2 40.4829 30.45 43.8837L30.6 44.0316C30.9 44.4752 31.35 44.9188 31.65 45.3624C37.35 52.1641 37.35 62.071 31.65 69.0206C31.35 69.4641 31.35 69.9077 31.8 70.3513C31.95 70.4992 32.1 70.4992 32.4 70.4992C32.7 70.4992 33 70.3513 33.15 70.2035C36.15 66.5069 37.8 61.9231 37.8 57.1915C37.8 52.9034 36.45 48.7632 34.05 45.3624L33.9 45.2145C33.6 44.9188 33.45 44.623 33.15 44.1795C29.85 40.1871 28.5 35.1598 29.1 30.2803V29.9845C29.25 29.2452 29.1 29.6888 29.25 28.8016L29.4 28.5059Z" fill="white"/>
<path d="M76.8 13.8675C68.7 5.88284 57.45 0.855469 45 0.855469C32.55 0.855469 21.3 5.88284 13.2 13.8675C5.1 21.8521 0 32.9419 0 45.2146C0 57.4873 5.1 68.5771 13.2 76.5617C21.3 84.5463 32.55 89.5737 45 89.5737C57.45 89.5737 68.7 84.5463 76.8 76.5617C84.9 68.5771 90 57.4873 90 45.2146C90 32.9419 84.9 21.8521 76.8 13.8675ZM76.2 74.6395L75.9 75.0831C75.6 75.3788 75.75 75.0831 75.45 75.5266L75.15 75.8224L74.85 76.1181C67.05 83.5113 56.55 87.9472 45 87.9472C33.15 87.9472 22.35 83.2156 14.55 75.5266C6.75 67.8377 1.95 57.1915 1.95 45.5103C1.95 34.1248 6.45 23.7743 13.95 16.0854L14.25 15.7897L14.85 15.1982L15.3 14.7547C23.1 7.36147 33.6 2.92556 45.15 2.92556C57 2.92556 67.8 7.6572 75.6 15.3461C83.4 23.035 88.2 33.6812 88.2 45.3624C88.2 56.6001 83.55 66.9506 76.2 74.6395Z" fill="white"/>
<path d="M42.0001 28.5059C42.6001 25.8444 43.9501 23.1828 45.7501 20.9649C46.0501 20.5213 46.0501 20.0777 45.6001 19.6341C45.1501 19.3384 44.7001 19.3384 44.2501 19.7819C42.4501 21.852 41.2501 24.3657 40.5001 26.8794L40.3501 27.323C40.2001 28.0623 40.2001 27.6187 40.0501 28.358L39.9001 28.8016C39.6001 29.9845 39.6001 31.3153 39.6001 32.4982C39.6001 36.4905 40.8001 40.4829 43.0501 43.8837L43.2001 44.0316C43.5001 44.4752 43.9501 44.9188 44.2501 45.3624C49.9501 52.1641 49.9501 62.071 44.2501 69.0206C43.9501 69.4641 43.9501 69.9077 44.4001 70.3513C44.5501 70.4992 44.7001 70.4992 45.0001 70.4992C45.3001 70.4992 45.6001 70.3513 45.7501 70.2035C48.7501 66.5069 50.4001 61.9231 50.4001 57.1915C50.4001 52.9034 49.0501 48.7632 46.6501 45.3624L46.5001 45.6581C46.2001 45.3624 46.0501 45.0666 45.7501 44.6231C42.4501 40.6307 41.1001 35.6034 41.7001 30.7239V30.4281C41.8501 29.6888 41.7001 30.1324 41.8501 29.2452L42.0001 28.5059ZM53.2501 28.5059C53.8501 25.8444 55.2001 23.1828 57.0001 20.9649C57.3001 20.5213 57.3001 20.0777 56.8501 19.6341C56.4001 19.3384 55.9501 19.3384 55.5001 19.7819C53.7001 21.852 52.5001 24.3657 51.7501 26.8794L51.6001 27.323C51.4501 28.0623 51.4501 27.6187 51.3001 28.358L51.1501 28.8016C50.8501 29.9845 50.8501 31.3153 50.8501 32.4982C50.8501 36.4905 52.0501 40.4829 54.3001 43.8837L54.4501 44.0316C54.7501 44.4752 55.2001 44.9188 55.5001 45.3624C61.2001 52.1641 61.2001 62.071 55.5001 69.0206C55.2001 69.4641 55.2001 69.9077 55.6501 70.3513C55.8001 70.4992 55.9501 70.4992 56.2501 70.4992C56.5501 70.4992 56.8501 70.3513 57.0001 70.2035C60.0001 66.5069 61.6501 61.9231 61.6501 57.1915C61.6501 52.9034 60.3001 48.7632 57.9001 45.3624L57.7501 45.2145C57.4501 44.9188 57.3001 44.623 57.0001 44.1795C53.7001 40.1871 52.3501 35.1598 52.9501 30.2803V29.9845C53.1001 29.2452 52.9501 29.6888 53.1001 28.8016L53.2501 28.5059Z" fill="white"/>
<path d="M14 13L76.5 75.5" stroke="white" stroke-width="2"/>
</svg>
