<svg width="90" height="90" viewBox="0 0 90 90" fill="none" xmlns="http://www.w3.org/2000/svg">
<path d="M41.85 67.2195H48.3V61.6007H54V55.2425H48.3V49.6237H41.85V55.2425H36.15V61.6007H41.85V67.2195ZM37.95 59.8263V57.1648H43.65V51.5459H46.35V57.1648H52.05V59.8263H46.35V65.4451H43.65V59.8263H37.95ZM76.8 13.3971C68.7 5.41246 57.45 0.532959 45 0.532959C32.55 0.532959 21.3 5.41246 13.2 13.3971C5.1 21.3817 0 32.6194 0 44.8921C0 57.1648 5.1 68.2545 13.2 76.2392C21.3 84.2238 32.55 89.2512 45 89.2512C57.45 89.2512 68.7 84.2238 76.8 76.2392C84.9 68.2545 90 57.0169 90 44.8921C90 32.6194 84.9 21.5296 76.8 13.3971ZM76.2 74.317C68.85 82.0059 56.55 87.329 45 87.329C33.15 87.329 22.35 82.5973 14.55 74.9084C6.75 67.2195 1.8 56.5733 1.8 44.8921C1.8 33.5066 6.3 23.1561 13.8 15.4672C21.15 8.07401 33.45 2.30732 45 2.30732C56.85 2.30732 67.65 7.03896 75.45 14.7279C83.25 22.4168 88.05 33.063 88.05 44.7442C88.2 56.2776 83.55 66.628 76.2 74.317ZM67.35 44.7442C67.35 44.5963 67.35 44.4485 67.2 44.3006C67.05 44.0049 66.75 43.857 66.45 43.857H64.05V37.351C64.05 36.9074 63.6 36.4638 63.15 36.4638H61.8V35.4288C61.8 34.9852 61.8 34.6895 61.65 34.2459V34.098C61.2 32.4715 59.7 31.1407 57.9 30.6972C57.75 27.0006 56.4 23.4518 54.3 20.4946L51.9 17.0937C51.75 16.798 51.45 16.6501 51.15 16.6501C50.85 16.6501 50.55 16.798 50.4 16.9458L47.4 20.7903C45.45 23.304 42.45 24.6347 39.3 24.6347C35.85 24.6347 33 27.1484 32.55 30.5493H32.25C31.95 30.5493 31.05 30.9929 30.9 31.1408C30.45 31.4365 30.6 31.2886 30.3 31.5843C29.25 32.6194 28.5 33.8023 28.5 35.2809V36.316H27C26.55 36.316 26.1 36.7596 26.1 37.2032V43.7092H23.7C23.25 43.7092 22.8 44.1528 22.8 44.5964V55.6861C22.8 61.7485 24.9 67.6631 28.65 72.5426C28.8 72.8383 29.1 72.8383 29.4 72.8383H61.05C61.35 72.8383 61.65 72.6905 61.8 72.5426C63.3 70.6204 64.5 68.5503 65.55 66.3323C65.55 66.3323 65.55 66.1844 65.7 66.1844C66.15 65.0015 67.05 62.0443 67.35 60.8614C67.5 60.4178 67.5 59.8263 67.65 59.3827C67.65 59.2349 67.65 58.9391 67.8 58.7913C67.8 58.3477 67.8 58.0519 67.95 57.6084V57.3126V55.9819L67.35 44.7442ZM30.15 35.4288C30.15 34.3938 30.75 33.3587 31.5 32.9151L32.4 32.4715H41.55C42.75 32.4715 42.75 30.6972 41.55 30.6972H34.2V30.5493C34.65 28.3313 36.75 26.557 39.15 26.557C42.9 26.557 46.35 24.7826 48.6 21.9732L50.85 19.1638L52.5 21.5296C54.45 24.1912 55.65 27.2963 55.8 30.5493H53.85C52.65 30.5493 52.65 32.3237 53.85 32.3237H56.85C58.5 32.3237 59.85 33.6544 59.85 35.2809V36.316H30.3V35.4288H30.15ZM27.9 40.1604V38.2382H62.25V40.1604H50.1C48.9 40.1604 48.9 41.9348 50.1 41.9348H62.25V43.857H27.9V41.9348H40.05C40.2 41.9348 40.35 41.9348 40.5 41.7869C40.5 41.7869 40.65 41.7869 40.65 41.6391C40.8 41.4912 40.95 41.1955 40.95 40.8998C40.95 40.3083 40.5 40.0126 40.05 40.0126L27.9 40.1604ZM65.55 55.834V57.6084C65.55 58.0519 65.4 58.6434 65.4 59.087C65.25 60.2699 64.35 63.5229 63.9 64.7058C63 66.9238 61.8 69.1417 60.3 71.0639H29.7C26.4 66.628 24.45 61.3049 24.45 55.834V45.7793H65.4V55.834H65.55Z" fill="white"/>
<path d="M14 14L76 76" stroke="white" stroke-width="2"/>
</svg>
