<svg xmlns:xlink="http://www.w3.org/1999/xlink" xmlns="http://www.w3.org/2000/svg" width="53" height="51" viewBox="0 0 53 51" fill="none">
<path d="M32.3551 44.8278C20.646 40.1115 18.0941 43.4922 5.54692 42.7867C18.7422 42.2733 20.0009 38.843 32.3551 44.8278ZM40.6082 42.4178C38.3662 28.183 44.6726 24.257 48.4664 14.4621C46.3516 23.9933 39.8549 28.1253 40.6082 42.4178ZM11.0936 6.46676C20.9176 21.501 20.6727 30.5616 36.2428 42.588C19.5102 33.8891 16.9547 16.6821 11.0936 6.46676ZM27.0033 40.0629C13.6642 34.3153 14.2771 39.8618 0.765625 42.4758C8.62398 45.2532 10.6972 50.0458 17.9516 50.0625C25.404 50.071 28.7294 43.5765 35.8163 46.9814C34.4421 44.8459 31.1789 42.6861 30.457 42.0176C33.801 43.6775 36.9264 44.8494 40.8188 45.2952C41.0363 45.7834 41.2464 46.0739 41.5563 46.3599C41.2903 39.5076 44.144 38.7996 47.3902 35.3911C53.3866 28.5939 52.8999 23.7386 50.8093 15.9624C50.2363 13.9962 50.1202 11.0163 50.0203 8.43405C48.2857 12.3807 46.1078 15.151 42.366 18.5786C35.5451 24.6122 36.8239 37.0945 40.4906 44.5119C32.2502 39.5606 37.6968 23.7329 29.833 15.6845C26.2482 10.3527 12.3603 5.82082 6.96958 0.0625C15.5361 18.5274 4.18193 25.5335 27.0033 40.0628V40.0629Z" fill="#39559E"/>
</svg>