<svg xmlns:xlink="http://www.w3.org/1999/xlink" xmlns="http://www.w3.org/2000/svg" width="46" height="71" viewBox="0 0 46 71" fill="none">
<path d="M43.0664 29.3686H26.0935L40.7454 3.58915C41.108 2.95416 41.1059 2.17497 40.7395 1.54211C40.371 0.90979 39.6959 0.520996 38.9648 0.520996H14.3555C13.4727 0.520996 12.6892 1.08603 12.411 1.9229L0.106309 38.9736C-0.10411 39.5985 0.00216752 40.2874 0.386688 40.822C0.773346 41.3571 1.39232 41.6733 2.05081 41.6733H19.4488L8.36977 67.6632C7.97297 68.5865 8.30568 69.6621 9.15483 70.2005C9.9901 70.7345 11.1122 70.5941 11.7861 69.8325L44.5986 32.7818C45.1353 32.1788 45.2678 31.3153 44.9372 30.5804C44.6066 29.8434 43.8739 29.3686 43.0664 29.3686Z" fill="#39559E"/>
</svg>