<svg xmlns:xlink="http://www.w3.org/1999/xlink" xmlns="http://www.w3.org/2000/svg" width="60" height="61" viewBox="0 0 60 61" fill="none">
<path fill-rule="evenodd" clip-rule="evenodd" d="M60 30.5203C60 28.9216 59.8722 27.3528 59.6289 25.8222L59.6325 25.8446L50.0898 28.8886C48.9678 29.2464 47.7729 29.277 46.6338 28.978L36.493 26.3135C36.0782 26.2045 35.7308 25.9412 35.5148 25.5721C35.299 25.2033 35.2404 24.7728 35.35 24.36C35.5508 23.6039 36.2673 23.1101 37.0471 23.1758L44.9406 23.8814C45.4377 23.9374 45.8809 23.5598 45.9255 23.063C45.9705 22.5664 45.6023 22.1273 45.103 22.083L37.2095 21.3774C35.548 21.2251 34.0229 22.2886 33.5951 23.8988C33.5679 24.0014 33.5454 24.1045 33.528 24.2075L19.8554 25.9622C19.8437 25.9637 19.8322 25.9655 19.8205 25.9674C19.0064 26.1034 18.1969 25.6787 17.8523 24.9323C17.4596 24.0818 17.7873 23.0636 18.5979 22.5961L36.1704 14.9972C38.1205 14.1154 40.3118 14.0048 42.3418 14.6859L53.3467 18.7795C54.7413 19.2984 56.2454 19.3231 57.6309 18.8763C53.0704 8.1778 42.4162 0.67334 30 0.67334C13.4315 0.67334 0 14.0363 0 30.5203C0 32.6401 0.223686 34.7077 0.646038 36.7025L0.64371 36.6916L17.3354 31.3671C18.5028 30.9947 19.7463 30.963 20.9314 31.274L31.483 34.0465C31.9146 34.1599 32.2761 34.4338 32.5008 34.8179C32.7254 35.2017 32.7863 35.6498 32.6723 36.0792C32.4633 36.8659 31.7179 37.3798 30.9065 37.3113L22.6932 36.5771C22.1761 36.5189 21.7148 36.9118 21.6684 37.4288C21.6218 37.9455 22.0048 38.4023 22.5244 38.4485L30.7376 39.1827C32.4663 39.3412 34.0532 38.2345 34.4984 36.5592C34.5267 36.4524 34.55 36.3452 34.5681 36.2379L48.7945 34.4122C48.8068 34.4105 48.8188 34.4088 48.831 34.4067C49.678 34.2654 50.5204 34.7074 50.8788 35.484C51.2875 36.3689 50.9466 37.4283 50.1032 37.9147L31.8189 45.8214C29.7898 46.7388 27.5098 46.854 25.3975 46.1453L13.947 41.8858C12.0417 41.1768 9.93937 41.3518 8.17898 42.3643L3.50074 44.5205C3.49169 44.5036 3.48271 44.4866 3.47369 44.4696C8.50697 53.925 18.4967 60.3672 30 60.3672C46.5685 60.3672 60 47.0043 60 30.5203ZM57.6542 18.9311C57.6467 18.9135 57.6393 18.8959 57.6318 18.8783C57.6393 18.8959 57.6467 18.9135 57.6542 18.9311Z" fill="#39559E"/>
</svg>