<svg xmlns:xlink="http://www.w3.org/1999/xlink" xmlns="http://www.w3.org/2000/svg" width="60" height="46" viewBox="0 0 60 46" fill="none">
<path d="M6.36718 33.4777C5.91165 33.9332 5.36994 34.3025 4.79129 34.5488V37.6882V42.8838C4.79129 44.1272 5.80085 45.1245 7.03201 45.1245H12.0798C13.3233 45.1245 14.3205 44.1149 14.3205 42.8838V37.6882V31.0646V25.8691C14.3205 25.7582 14.3082 25.6474 14.2959 25.549L6.36718 33.4777Z" fill="#39559E"/>
<path d="M58.6435 0.987305C58.5942 0.987305 58.545 0.987305 58.4834 0.987305C55.0854 1.14736 51.6751 1.30741 48.2771 1.46746C47.7477 1.49208 47.2306 1.51671 46.9351 2.15691C46.6396 2.78481 46.972 3.14184 47.3414 3.51119C48.3879 4.55769 49.4221 5.61649 50.4809 6.63836L49.3236 7.79565L39.9051 17.2141L39.068 18.0513L37.0119 20.1073L28.9108 28.2084L28.443 27.7405L18.7537 18.0513L16.6977 15.9952L16.1437 15.4412C15.7004 14.998 15.1341 14.7887 14.5555 14.7887C13.9768 14.7887 13.4105 15.0103 12.9672 15.4412L12.4132 15.9952L0.655595 27.7529C-0.218532 28.627 -0.218532 30.0551 0.655595 30.9293L1.20962 31.4833C1.65284 31.9265 2.21918 32.1358 2.79782 32.1358C3.37647 32.1358 3.94281 31.9142 4.38603 31.4833L14.5555 21.3139L15.0233 21.7817L24.7126 31.471L26.7686 33.527L27.3226 34.081C27.7659 34.5243 28.3322 34.7336 28.9108 34.7336C29.4895 34.7336 30.0558 34.512 30.499 34.081L31.0531 33.527L40.7423 23.8377L42.7984 21.7817L43.6356 20.9445L53.054 11.5261L54.199 10.3811L57.2769 13.4344C57.5601 13.7176 57.8432 14.0254 58.2495 14.0254C58.3972 14.0254 58.5696 13.9761 58.7543 13.8776C59.3699 13.5452 59.5053 13.0035 59.5299 12.4002C59.6777 9.07606 59.8377 5.76423 59.9978 2.44008C60.0347 1.44284 59.6161 0.987305 58.6435 0.987305Z" fill="#39559E"/>
<path d="M24.7508 35.5461L22.6948 33.4901L18.2626 29.0579C18.0656 29.3903 17.9548 29.7843 17.9548 30.1905V31.077V42.0097V42.8962C17.9548 44.1396 18.9644 45.1369 20.1955 45.1369H25.2433C26.4868 45.1369 27.484 44.1273 27.484 42.8962V42.0097V37.3929C26.6715 37.1589 25.9204 36.7157 25.3049 36.1001L24.7508 35.5461Z" fill="#39559E"/>
<path d="M33.0602 35.5461L32.5062 36.1001C32.0999 36.5064 31.632 36.8388 31.115 37.085V42.0097V42.8961C31.115 44.1396 32.1245 45.1369 33.3557 45.1369H38.4035C39.6469 45.1369 40.6442 44.1273 40.6442 42.8961V42.0097V31.077V30.1905C40.6442 29.5749 40.398 29.0209 39.9917 28.6146L33.0602 35.5461Z" fill="#39559E"/>
<path d="M45.6423 22.9511L44.8051 23.7883L44.2634 24.33V25.869V26.9278V31.0645V32.1233V37.6759V42.8714C44.2634 44.1149 45.273 45.1121 46.5042 45.1121H51.5519C52.7954 45.1121 53.7926 44.1026 53.7926 42.8714V37.6759V32.1356V31.0768V26.9401V25.8813V20.3164V15.1209C53.7926 15.0224 53.7803 14.9239 53.768 14.8254L45.6423 22.9511Z" fill="#39559E"/>
</svg>