<svg xmlns:xlink="http://www.w3.org/1999/xlink" xmlns="http://www.w3.org/2000/svg" width="61" height="61" viewBox="0 0 61 61" fill="none">
<path d="M59.0948 29.1144H58.564C58.398 25.8332 57.6862 22.7736 56.4799 19.8403C56.4736 19.8147 56.4746 19.7876 56.4644 19.7639C53.971 13.743 49.5692 8.88144 43.9155 5.82236C43.8899 5.80978 43.8662 5.79381 43.842 5.78123C43.5013 5.59784 43.1544 5.42461 42.8046 5.25526C42.7218 5.2151 42.6415 5.17155 42.5578 5.13187C42.19 4.95719 41.8145 4.79364 41.4376 4.63396C41.3752 4.60638 41.3152 4.57831 41.2532 4.5517C38.2493 3.30861 35.1873 2.60021 31.9066 2.44053V1.92617C31.9066 1.15148 31.2761 0.52002 30.5005 0.52002C29.7248 0.52002 29.0943 1.15148 29.0943 1.92617V2.44392C22.0636 2.79183 15.5694 5.72897 10.7365 10.5131C10.6358 10.6132 10.5371 10.7129 10.4379 10.8155C10.254 11.0023 10.0726 11.1925 9.89402 11.3865C9.78225 11.5055 9.66999 11.6246 9.56111 11.7475C9.34966 11.9836 9.14304 12.225 8.93885 12.4684C8.7932 12.6441 8.65142 12.8202 8.51013 12.9997C8.36739 13.1793 8.22561 13.3588 8.08674 13.5426C7.96818 13.6989 7.85302 13.8586 7.73737 14.0178C7.60866 14.1949 7.48285 14.3744 7.35801 14.5559C7.25301 14.7093 7.14656 14.8617 7.04446 15.017C6.85478 15.3045 6.66994 15.5972 6.49042 15.8938C6.41251 16.0225 6.33703 16.1522 6.26058 16.2824C6.10767 16.5441 5.95767 16.8079 5.8125 17.0754C5.74089 17.2085 5.67121 17.3426 5.60105 17.4761C5.46798 17.7306 5.33879 17.9871 5.21346 18.2474C5.15491 18.3698 5.09491 18.4908 5.03781 18.6113C4.8612 18.9921 4.68894 19.3748 4.52781 19.7634C3.26053 22.823 2.57971 25.8327 2.42584 29.1144H1.90615C1.13098 29.1144 0.5 29.7448 0.5 30.5205C0.5 31.2962 1.13098 31.9267 1.90615 31.9267H2.42826C2.59374 35.2078 3.30601 38.2689 4.51281 41.2026C4.51813 41.2283 4.51716 41.2529 4.52732 41.2771C7.02123 47.2971 11.4226 52.1596 17.0772 55.2186C17.1019 55.2322 17.1251 55.2472 17.1498 55.2607C17.4929 55.4451 17.8422 55.6178 18.1945 55.7896C18.2748 55.8288 18.3522 55.8714 18.433 55.9101C18.8085 56.0887 19.1913 56.2561 19.5774 56.4182C19.6321 56.4404 19.6843 56.468 19.739 56.4903C22.7444 57.7343 25.8127 58.4427 29.0938 58.6024V59.1148C29.0938 59.89 29.7248 60.521 30.5 60.521C31.2752 60.521 31.9062 59.8895 31.9062 59.1148V58.5971C38.4685 58.2671 44.6646 55.6474 49.3926 51.35C49.6853 51.0824 49.9713 50.8076 50.2534 50.5299C50.356 50.4287 50.4561 50.3266 50.5563 50.2236C50.7387 50.0387 50.9182 49.8505 51.0948 49.6579C51.2071 49.5374 51.3218 49.4145 51.4321 49.2916C51.6373 49.0627 51.8381 48.8285 52.0355 48.5924C52.1903 48.4076 52.3423 48.2193 52.4923 48.0287C52.6297 47.8545 52.7676 47.6803 52.9016 47.5027C53.0226 47.344 53.1407 47.1809 53.2588 47.0188C53.3841 46.8442 53.507 46.67 53.6275 46.4943C53.7359 46.3366 53.8442 46.1793 53.9497 46.0201C54.1312 45.7438 54.3078 45.4636 54.4801 45.182C54.5691 45.0354 54.6547 44.8893 54.7399 44.7407C54.8894 44.4862 55.0356 44.2293 55.1764 43.9694C55.2494 43.8354 55.321 43.697 55.3936 43.5591C55.5248 43.3085 55.6525 43.0539 55.7769 42.7955C55.8364 42.6731 55.8959 42.5522 55.9535 42.4288C56.1311 42.0489 56.3023 41.6662 56.4635 41.2776C57.7308 38.2185 58.4106 35.2083 58.5659 31.9271H59.0938C59.8695 31.9271 60.5 31.2962 60.5 30.521C60.5 29.7458 59.87 29.1144 59.0948 29.1144ZM30.5073 5.218C33.6718 5.218 36.7754 5.8151 39.7397 6.98174L37.2395 13.0147C35.0751 12.1796 32.8125 11.7518 30.5039 11.7518C28.143 11.7518 25.8606 12.1892 23.7465 13.0002L21.2453 6.9619C24.137 5.82914 27.2672 5.218 30.5073 5.218ZM12.9894 37.2638L6.96752 39.7592C4.70974 34.0122 4.53603 27.4411 6.95688 21.2775L12.9894 23.7767C11.3036 28.1432 11.3036 32.8973 12.9894 37.2638ZM30.485 55.8249C27.32 55.8249 24.2173 55.2259 21.2531 54.0598L23.7523 48.0268C25.9167 48.8619 28.1788 49.2897 30.4884 49.2897C32.8487 49.2897 35.1312 48.8523 37.2453 48.0413L39.7464 54.0796C36.8548 55.2128 33.7251 55.8249 30.485 55.8249ZM45.2341 36.6251C42.7552 42.6107 36.9675 46.4779 30.4889 46.4779C28.3951 46.4779 26.3435 46.0675 24.391 45.2599C20.4542 43.6288 17.3879 40.5615 15.7567 36.6246C14.126 32.6883 14.126 28.3522 15.7567 24.4164C18.2361 18.4308 24.0243 14.5636 30.5034 14.5636C32.5971 14.5636 34.6483 14.974 36.6003 15.7816C40.5381 17.4127 43.6039 20.48 45.2341 24.4169C46.8657 28.3532 46.8657 32.6892 45.2341 36.6251ZM54.0349 39.7636L48.0019 37.2643C49.6872 32.8978 49.6872 28.1437 48.0019 23.7772L54.0247 21.2818C56.2825 27.0313 56.4562 33.6014 54.0349 39.7636Z" fill="#39559E"/>
</svg>